{"glyphs":{"0":{"ha":875,"x_min":63,"x_max":813,"o":"m 714 119 q 665 51 714 119 q 438 -18 615 -18 q 161 119 260 -18 q 63 486 63 257 q 161 853 63 715 q 438 990 260 990 q 714 853 615 990 q 813 486 813 715 q 714 119 813 257 m 256 207 q 288 158 256 207 q 438 108 319 108 q 620 207 556 108 q 685 486 685 306 q 620 766 685 667 q 438 865 556 865 q 256 767 319 865 q 192 486 192 668 q 256 207 192 306 z "},"1":{"ha":494,"x_min":19,"x_max":386,"o":"m 275 972 l 386 972 l 386 0 l 258 0 l 258 833 l 51 772 l 19 883 l 275 972 z "},"2":{"ha":732,"x_min":50,"x_max":678,"o":"m 50 0 l 50 106 l 393 456 q 531 692 531 593 q 481 819 531 774 q 358 865 431 865 q 158 735 221 865 l 50 799 q 177 942 96 893 q 357 990 258 990 q 569 910 479 990 q 660 693 660 829 q 486 372 660 546 l 238 125 l 678 125 l 678 0 l 50 0 z "},"3":{"ha":743,"x_min":39,"x_max":692,"o":"m 439 574 q 621 478 550 553 q 692 288 692 403 q 594 64 692 146 q 358 -18 497 -18 q 161 33 247 -18 q 39 179 75 83 l 147 243 q 358 108 190 108 q 506 156 449 108 q 563 288 563 203 q 506 420 563 372 q 358 468 449 468 l 325 468 l 274 547 l 499 851 l 67 851 l 67 972 l 650 972 l 650 858 l 439 574 z "},"4":{"ha":806,"x_min":33,"x_max":776,"o":"m 776 306 l 776 185 l 658 185 l 658 0 l 529 0 l 529 185 l 33 185 l 33 306 l 382 972 l 521 972 l 172 306 l 529 306 l 529 581 l 658 581 l 658 306 l 776 306 z "},"5":{"ha":754,"x_min":49,"x_max":703,"o":"m 375 593 q 608 512 513 593 q 703 288 703 431 q 606 64 703 146 q 369 -18 508 -18 q 171 35 258 -18 q 49 190 83 89 l 158 253 q 233 145 178 182 q 369 108 289 108 q 518 156 461 108 q 575 288 575 203 q 518 420 575 372 q 372 468 461 468 l 97 468 l 133 972 l 665 972 l 665 851 l 250 851 l 233 593 l 375 593 z "},"6":{"ha":747,"x_min":39,"x_max":708,"o":"m 374 636 q 614 545 519 636 q 708 310 708 454 q 614 74 708 165 q 374 -18 519 -18 q 133 74 226 -18 q 39 310 39 165 q 97 504 39 422 l 410 972 l 557 972 l 328 633 q 374 636 358 636 m 224 162 q 253 134 224 162 q 374 106 282 106 q 523 162 465 106 q 581 310 581 218 q 523 457 581 401 q 374 513 465 513 q 224 457 281 513 q 167 310 167 401 q 224 162 167 218 z "},"7":{"ha":681,"x_min":25,"x_max":632,"o":"m 25 972 l 632 972 l 632 857 l 278 0 l 143 0 l 494 850 l 25 850 l 25 972 z "},"8":{"ha":771,"x_min":53,"x_max":718,"o":"m 567 503 q 678 406 638 467 q 718 267 718 344 q 625 58 718 133 q 385 -18 532 -18 q 146 58 239 -18 q 53 267 53 133 q 93 406 53 344 q 204 503 133 467 q 85 715 85 578 q 173 919 85 847 q 385 990 261 990 q 598 919 510 990 q 686 715 686 847 q 567 503 686 578 m 385 867 q 262 828 311 867 q 213 713 213 789 q 263 598 213 639 q 385 557 313 557 q 507 598 457 557 q 557 713 557 639 q 508 828 557 789 q 385 867 460 867 m 385 106 q 534 149 478 106 q 590 275 590 193 q 534 399 590 356 q 385 443 478 443 q 237 399 293 443 q 181 275 181 356 q 237 149 181 193 q 385 106 293 106 z "},"9":{"ha":747,"x_min":39,"x_max":708,"o":"m 708 664 q 649 468 708 551 l 650 468 l 336 0 l 190 0 l 421 340 q 374 338 390 338 q 133 428 226 338 q 39 664 39 519 q 133 899 39 808 q 374 990 226 990 q 615 899 521 990 q 708 664 708 808 m 224 811 q 195 783 224 811 q 167 664 167 756 q 224 516 167 572 q 374 460 282 460 q 523 516 465 460 q 581 664 581 572 q 524 811 581 756 q 374 867 467 867 q 224 811 282 867 z "}," ":{"ha":347,"x_min":0,"x_max":0,"o":""},"!":{"ha":338,"x_min":78,"x_max":258,"o":"m 122 285 l 96 694 l 96 972 l 242 972 l 242 694 l 215 285 l 122 285 m 168 -15 q 104 11 131 -15 q 78 75 78 38 q 104 139 78 113 q 168 165 131 165 q 233 139 207 165 q 258 75 258 113 q 233 11 258 38 q 168 -15 207 -15 z "},"\"":{"ha":463,"x_min":67,"x_max":396,"o":"m 83 681 l 67 972 l 188 972 l 171 681 l 83 681 m 292 681 l 275 972 l 396 972 l 379 681 l 292 681 z "},"#":{"ha":840,"x_min":39,"x_max":801,"o":"m 785 563 l 624 563 l 599 410 l 761 410 l 744 310 l 582 310 l 542 69 l 436 69 l 476 310 l 307 310 l 267 69 l 160 69 l 200 310 l 39 310 l 56 410 l 217 410 l 242 563 l 79 563 l 96 664 l 258 664 l 299 903 l 406 903 l 365 664 l 535 664 l 575 903 l 681 903 l 640 664 l 801 664 l 785 563 m 493 410 l 518 563 l 349 563 l 324 410 l 493 410 z "},"$":{"ha":764,"x_min":49,"x_max":715,"o":"m 715 260 q 640 72 715 146 q 446 -15 565 -1 l 446 -139 l 358 -139 l 358 -17 q 165 46 244 -8 q 49 192 85 100 l 160 256 q 358 110 207 126 l 358 446 q 258 487 296 468 q 178 538 219 506 q 116 616 136 569 q 96 724 96 663 q 171 907 96 836 q 358 989 246 978 l 358 1111 l 446 1111 l 446 988 q 594 929 529 976 q 696 801 660 882 l 588 740 q 446 861 547 842 l 446 542 q 547 500 510 518 q 629 449 585 482 q 694 369 674 417 q 715 260 715 322 m 224 724 q 256 638 224 671 q 358 575 288 604 l 358 863 q 260 817 297 854 q 224 724 224 781 m 446 113 q 549 162 513 122 q 586 258 586 201 q 552 349 586 315 q 446 414 518 383 l 446 113 z "},"%":{"ha":1011,"x_min":76,"x_max":935,"o":"m 296 560 q 139 622 201 560 q 76 775 76 685 q 140 927 76 864 q 296 990 203 990 q 453 928 390 990 q 515 775 515 865 q 453 622 515 685 q 296 560 392 560 m 216 694 q 232 677 216 694 q 296 661 247 661 q 376 694 344 661 q 407 775 407 728 q 376 855 407 822 q 296 888 344 888 q 216 855 247 888 q 185 775 185 822 q 216 694 185 726 m 142 138 l 788 860 l 856 822 l 208 99 l 142 138 m 872 46 q 841 15 872 46 q 715 -17 810 -17 q 558 46 621 -17 q 496 199 496 108 q 558 351 496 289 q 715 414 621 414 q 872 351 810 414 q 935 199 935 289 q 872 46 935 108 m 635 119 q 651 102 635 119 q 715 86 667 86 q 795 119 764 86 q 826 199 826 151 q 795 278 826 246 q 715 311 764 311 q 635 278 667 311 q 604 199 604 246 q 635 119 604 151 z "},"&":{"ha":919,"x_min":76,"x_max":888,"o":"m 888 40 l 779 -22 l 681 83 q 403 -18 572 -18 q 167 58 257 -18 q 76 263 76 133 q 122 426 76 351 q 254 543 167 500 q 192 719 192 622 q 276 915 192 840 q 478 990 360 990 q 654 938 575 990 q 768 792 733 885 l 660 729 q 591 829 639 793 q 481 865 543 865 q 367 825 414 865 q 321 721 321 785 q 342 638 321 675 q 407 556 364 601 l 672 272 q 722 449 707 344 l 833 385 q 758 178 814 269 l 888 40 m 406 104 q 597 172 521 104 l 335 454 q 237 376 268 426 q 206 271 206 326 q 258 149 206 193 q 406 104 311 104 z "},"'":{"ha":254,"x_min":67,"x_max":188,"o":"m 83 681 l 67 972 l 188 972 l 171 681 l 83 681 z "},"(":{"ha":389,"x_min":81,"x_max":354,"o":"m 233 -139 q 81 486 81 167 q 233 1111 81 806 l 354 1111 q 201 486 201 806 q 354 -139 201 167 l 233 -139 z "},")":{"ha":389,"x_min":35,"x_max":308,"o":"m 156 -139 l 35 -139 q 188 486 188 167 q 35 1111 188 806 l 156 1111 q 308 486 308 806 q 156 -139 308 167 z "},"*":{"ha":547,"x_min":81,"x_max":468,"o":"m 468 847 l 468 758 l 342 764 l 415 663 l 336 615 l 274 729 l 211 615 l 133 663 l 206 764 l 81 758 l 81 847 l 206 840 l 133 943 l 211 990 l 274 876 l 336 990 l 415 943 l 342 840 l 468 847 z "},"+":{"ha":757,"x_min":81,"x_max":678,"o":"m 678 544 l 678 429 l 436 429 l 436 188 l 321 188 l 321 429 l 81 429 l 81 544 l 321 544 l 321 785 l 436 785 l 436 544 l 678 544 z "},",":{"ha":351,"x_min":78,"x_max":272,"o":"m 272 143 l 182 -194 l 78 -194 l 133 143 l 272 143 z "},"-":{"ha":715,"x_min":104,"x_max":611,"o":"m 104 368 l 104 485 l 611 485 l 611 368 l 104 368 z "},".":{"ha":338,"x_min":78,"x_max":258,"o":"m 168 -15 q 104 11 131 -15 q 78 75 78 38 q 104 139 78 113 q 168 165 131 165 q 233 139 207 165 q 258 75 258 113 q 233 11 258 38 q 168 -15 207 -15 z "},"/":{"ha":733,"x_min":53,"x_max":681,"o":"m 125 -139 l 53 -139 l 608 1111 l 681 1111 l 125 -139 z "},":":{"ha":338,"x_min":78,"x_max":258,"o":"m 168 531 q 104 557 131 531 q 78 621 78 583 q 104 685 78 658 q 168 711 131 711 q 233 685 207 711 q 258 621 258 658 q 233 557 258 583 q 168 531 207 531 m 168 -15 q 104 11 131 -15 q 78 75 78 38 q 104 139 78 113 q 168 165 131 165 q 233 139 207 165 q 258 75 258 113 q 233 11 258 38 q 168 -15 207 -15 z "},";":{"ha":356,"x_min":78,"x_max":278,"o":"m 188 531 q 124 557 150 531 q 97 621 97 583 q 124 685 97 658 q 188 711 150 711 q 252 685 226 711 q 278 621 278 658 q 252 557 278 583 q 188 531 226 531 m 272 143 l 182 -194 l 78 -194 l 133 143 l 272 143 z "},"<":{"ha":726,"x_min":76,"x_max":650,"o":"m 650 796 l 650 665 l 214 486 l 650 308 l 650 178 l 76 428 l 76 546 l 650 796 z "},"=":{"ha":743,"x_min":76,"x_max":667,"o":"m 76 569 l 76 685 l 667 685 l 667 569 l 76 569 m 76 288 l 76 403 l 667 403 l 667 288 l 76 288 z "},">":{"ha":726,"x_min":76,"x_max":650,"o":"m 76 796 l 650 546 l 650 428 l 76 178 l 76 308 l 513 486 l 76 665 l 76 796 z "},"?":{"ha":749,"x_min":63,"x_max":669,"o":"m 285 285 q 311 399 285 346 q 375 489 338 451 q 450 560 413 526 q 514 635 488 594 q 540 722 540 676 q 492 828 540 792 q 368 865 444 865 q 172 731 215 865 l 63 792 q 181 940 97 889 q 369 990 264 990 q 581 921 493 990 q 669 728 669 851 q 643 618 669 669 q 579 529 617 567 q 504 456 542 492 q 440 377 467 421 q 414 285 414 333 l 285 285 m 349 -15 q 285 11 311 -15 q 258 75 258 38 q 285 139 258 113 q 349 165 311 165 q 413 139 388 165 q 439 75 439 113 q 413 11 439 38 q 349 -15 388 -15 z "},"@":{"ha":1096,"x_min":53,"x_max":1044,"o":"m 558 850 q 819 778 706 850 q 989 600 933 707 q 1044 375 1044 493 q 983 153 1044 229 q 838 78 922 78 q 672 194 706 78 q 524 124 617 124 q 367 188 429 124 q 306 347 306 251 q 367 507 306 443 q 524 571 429 571 q 664 510 607 571 l 664 560 l 771 560 l 771 253 q 858 131 771 131 q 959 191 919 131 q 999 375 999 251 q 872 683 999 558 q 558 808 744 808 q 232 676 367 808 q 97 347 97 543 q 235 17 97 147 q 583 -114 374 -114 q 819 -75 721 -114 l 819 -119 q 583 -156 722 -156 q 204 -13 356 -156 q 53 347 53 129 q 198 703 53 557 q 558 850 343 850 m 451 258 q 469 241 451 258 q 540 224 488 224 q 628 258 593 224 q 664 347 664 292 q 628 437 664 403 q 540 471 593 471 q 451 437 488 471 q 414 347 414 403 q 451 258 414 292 z "},"A":{"ha":893,"x_min":11,"x_max":882,"o":"m 744 0 l 665 218 l 228 218 l 149 0 l 11 0 l 374 972 l 519 972 l 882 0 l 744 0 m 272 339 l 621 339 l 446 818 l 272 339 z "},"B":{"ha":854,"x_min":104,"x_max":806,"o":"m 660 504 q 766 413 726 472 q 806 275 806 353 q 724 79 806 158 q 524 0 642 0 l 104 0 l 104 972 l 493 972 q 686 896 607 972 q 765 707 765 819 q 660 504 765 578 m 493 851 l 233 851 l 233 554 l 493 554 q 596 597 554 554 q 638 703 638 640 q 595 808 638 764 q 493 851 553 851 m 524 121 q 633 167 589 121 q 678 279 678 213 q 633 390 678 344 q 524 436 588 436 l 233 436 l 233 121 l 524 121 z "},"C":{"ha":1026,"x_min":53,"x_max":981,"o":"m 561 -18 q 197 128 340 -18 q 53 486 53 274 q 197 844 53 699 q 561 990 340 990 q 806 926 694 990 q 981 754 918 863 l 868 689 q 744 817 826 769 q 561 865 661 865 q 287 757 393 865 q 181 486 181 649 q 287 217 181 325 q 561 108 393 108 q 744 156 661 108 q 868 283 826 204 l 981 219 q 807 47 919 111 q 561 -18 694 -18 z "},"D":{"ha":997,"x_min":104,"x_max":944,"o":"m 483 972 q 813 831 682 972 q 944 486 944 690 q 813 141 944 282 q 483 0 682 0 l 104 0 l 104 972 l 483 972 m 483 122 q 726 226 632 122 q 821 486 821 331 q 726 746 821 642 q 483 850 632 850 l 233 850 l 233 122 l 483 122 z "},"E":{"ha":736,"x_min":104,"x_max":685,"o":"m 233 122 l 685 122 l 685 0 l 104 0 l 104 972 l 678 972 l 678 850 l 233 850 l 233 551 l 643 551 l 643 431 l 233 431 l 233 122 z "},"F":{"ha":717,"x_min":104,"x_max":664,"o":"m 664 850 l 233 850 l 233 535 l 646 535 l 646 413 l 233 413 l 233 0 l 104 0 l 104 972 l 664 972 l 664 850 z "},"G":{"ha":1094,"x_min":53,"x_max":1042,"o":"m 1042 482 l 1042 424 q 911 108 1042 233 q 565 -18 781 -18 q 198 128 343 -18 q 53 486 53 275 q 198 844 53 697 q 563 990 343 990 q 810 926 697 990 q 983 756 922 861 l 872 690 q 747 817 831 769 q 561 865 663 865 q 288 756 394 865 q 181 486 181 647 q 288 217 181 325 q 567 108 396 108 q 803 180 713 108 q 913 365 893 251 l 556 365 l 556 482 l 1042 482 z "},"H":{"ha":938,"x_min":104,"x_max":833,"o":"m 706 972 l 833 972 l 833 0 l 706 0 l 706 438 l 233 438 l 233 0 l 104 0 l 104 972 l 233 972 l 233 560 l 706 560 l 706 972 z "},"I":{"ha":338,"x_min":104,"x_max":233,"o":"m 104 972 l 233 972 l 233 0 l 104 0 l 104 972 z "},"J":{"ha":775,"x_min":53,"x_max":683,"o":"m 357 -18 q 171 26 251 -18 q 53 156 90 71 l 163 219 q 357 108 206 108 q 503 153 450 108 q 556 285 556 197 l 556 972 l 683 972 l 683 285 q 591 60 683 139 q 357 -18 499 -18 z "},"K":{"ha":822,"x_min":104,"x_max":811,"o":"m 811 0 l 653 0 l 233 467 l 233 0 l 104 0 l 104 972 l 233 972 l 233 533 l 639 972 l 797 972 l 368 500 l 811 0 z "},"L":{"ha":678,"x_min":104,"x_max":653,"o":"m 233 122 l 653 122 l 653 0 l 104 0 l 104 972 l 233 972 l 233 122 z "},"M":{"ha":1118,"x_min":104,"x_max":1014,"o":"m 1014 972 l 1014 0 l 886 0 l 886 760 l 568 231 l 551 231 l 233 758 l 233 0 l 104 0 l 104 972 l 250 972 l 560 458 l 868 972 l 1014 972 z "},"N":{"ha":942,"x_min":104,"x_max":838,"o":"m 708 972 l 838 972 l 838 0 l 733 0 l 233 726 l 233 0 l 104 0 l 104 972 l 208 972 l 708 247 l 708 972 z "},"O":{"ha":1111,"x_min":53,"x_max":1060,"o":"m 913 129 q 840 56 913 129 q 556 -18 767 -18 q 199 129 344 -18 q 53 486 53 276 q 199 844 53 697 q 556 990 344 990 q 913 844 767 990 q 1060 486 1060 697 q 913 129 1060 276 m 288 217 q 342 163 288 217 q 556 108 396 108 q 823 217 715 108 q 931 486 931 326 q 823 756 931 647 q 556 865 715 865 q 288 756 396 865 q 181 486 181 647 q 288 217 181 326 z "},"P":{"ha":819,"x_min":104,"x_max":771,"o":"m 457 972 q 681 883 592 972 q 771 660 771 793 q 681 438 771 528 q 457 347 592 347 l 233 347 l 233 0 l 104 0 l 104 972 l 457 972 m 457 468 q 590 523 538 468 q 643 660 643 578 q 590 797 643 743 q 457 851 538 851 l 233 851 l 233 468 l 457 468 z "},"Q":{"ha":1118,"x_min":53,"x_max":1060,"o":"m 1060 486 q 922 140 1060 286 l 1029 33 l 940 -47 l 831 64 q 556 -18 704 -18 q 200 129 347 -18 q 53 486 53 276 q 200 843 53 696 q 556 990 347 990 q 912 843 764 990 q 1060 486 1060 696 m 556 108 q 739 156 656 108 l 544 351 l 633 431 l 833 231 q 931 486 931 336 q 822 756 931 646 q 556 865 713 865 q 290 756 399 865 q 181 486 181 646 q 290 218 181 328 q 556 108 399 108 z "},"R":{"ha":849,"x_min":104,"x_max":824,"o":"m 681 0 l 463 372 l 233 372 l 233 0 l 104 0 l 104 972 l 493 972 q 707 884 618 972 q 796 671 796 796 q 740 499 796 576 q 594 389 683 421 l 824 0 l 681 0 m 233 851 l 233 489 l 493 489 q 616 542 565 489 q 667 671 667 596 q 616 799 667 746 q 493 851 565 851 l 233 851 z "},"S":{"ha":803,"x_min":50,"x_max":754,"o":"m 418 -18 q 185 46 282 -18 q 50 221 89 110 l 161 285 q 421 108 218 108 q 574 149 521 108 q 626 258 626 190 q 574 363 626 328 q 397 436 521 397 q 304 467 336 456 q 224 503 272 479 q 153 553 176 528 q 110 621 129 579 q 92 715 92 663 q 181 916 92 842 q 397 990 269 990 q 598 932 513 990 q 726 778 683 874 l 618 715 q 397 865 556 865 q 269 826 318 865 q 221 721 221 788 q 267 624 221 657 q 425 554 313 590 q 482 536 465 542 q 534 517 499 531 q 586 494 569 503 q 631 471 603 486 q 674 442 660 456 q 706 408 688 428 q 733 367 725 388 q 748 319 742 346 q 754 261 754 292 q 661 58 754 133 q 418 -18 568 -18 z "},"T":{"ha":750,"x_min":25,"x_max":726,"o":"m 726 972 l 726 850 l 439 850 l 439 0 l 311 0 l 311 850 l 25 850 l 25 972 l 726 972 z "},"U":{"ha":914,"x_min":92,"x_max":821,"o":"m 719 76 q 669 29 719 76 q 457 -18 618 -18 q 194 76 296 -18 q 92 326 92 169 l 92 972 l 221 972 l 221 332 q 282 169 221 229 q 457 108 343 108 q 632 169 571 108 q 693 332 693 229 l 693 972 l 821 972 l 821 326 q 719 76 821 169 z "},"V":{"ha":863,"x_min":11,"x_max":853,"o":"m 358 0 l 11 972 l 150 972 l 432 161 l 713 972 l 853 972 l 504 0 l 358 0 z "},"W":{"ha":1389,"x_min":35,"x_max":1354,"o":"m 314 0 l 35 972 l 171 972 l 393 172 l 629 972 l 760 972 l 996 172 l 1218 972 l 1354 972 l 1075 0 l 925 0 l 694 776 l 464 0 l 314 0 z "},"X":{"ha":819,"x_min":25,"x_max":796,"o":"m 796 0 l 649 0 l 410 383 l 171 0 l 25 0 l 338 500 l 43 972 l 189 972 l 410 618 l 631 972 l 776 972 l 483 501 l 796 0 z "},"Y":{"ha":839,"x_min":11,"x_max":828,"o":"m 828 972 l 483 393 l 483 0 l 354 0 l 354 394 l 11 972 l 156 972 l 419 517 l 683 972 l 828 972 z "},"Z":{"ha":729,"x_min":54,"x_max":689,"o":"m 207 122 l 689 122 l 689 0 l 54 0 l 54 113 l 524 850 l 67 850 l 67 972 l 678 972 l 678 861 l 207 122 z "},"[":{"ha":403,"x_min":81,"x_max":375,"o":"m 375 994 l 201 994 l 201 -22 l 375 -22 l 375 -139 l 81 -139 l 81 1111 l 375 1111 l 375 994 z "},"\\":{"ha":733,"x_min":53,"x_max":681,"o":"m 608 -139 l 53 1111 l 125 1111 l 681 -139 l 608 -139 z "},"]":{"ha":403,"x_min":28,"x_max":322,"o":"m 322 1111 l 322 -139 l 28 -139 l 28 -22 l 201 -22 l 201 994 l 28 994 l 28 1111 l 322 1111 z "},"^":{"ha":722,"x_min":56,"x_max":667,"o":"m 415 972 l 667 542 l 531 542 l 361 836 l 192 542 l 56 542 l 307 972 l 415 972 z "},"_":{"ha":722,"x_min":53,"x_max":671,"o":"m 53 -210 l 53 -93 l 671 -93 l 671 -210 l 53 -210 z "},"`":{"ha":313,"x_min":28,"x_max":285,"o":"m 285 789 l 174 972 l 28 972 l 168 789 l 285 789 z "},"a":{"ha":879,"x_min":53,"x_max":788,"o":"m 667 694 l 788 694 l 788 0 l 667 0 l 667 119 q 404 -18 576 -18 q 156 88 258 -18 q 53 347 53 194 q 156 606 53 500 q 404 713 258 713 q 667 575 576 713 l 667 694 m 419 99 q 596 170 525 99 q 667 347 667 242 q 596 524 667 453 q 419 596 525 596 q 244 524 315 596 q 174 347 174 453 q 244 170 174 242 q 419 99 315 99 z "},"b":{"ha":879,"x_min":92,"x_max":826,"o":"m 475 713 q 724 606 621 713 q 826 347 826 500 q 724 88 826 194 q 475 -18 621 -18 q 213 119 303 -18 l 213 0 l 92 0 l 92 972 l 213 972 l 213 575 q 475 713 303 713 m 460 99 q 635 170 564 99 q 706 347 706 242 q 635 524 706 453 q 460 596 564 596 q 283 524 354 596 q 213 347 213 453 q 283 170 213 242 q 460 99 354 99 z "},"c":{"ha":760,"x_min":53,"x_max":731,"o":"m 418 -18 q 157 87 261 -18 q 53 347 53 192 q 157 608 53 503 q 418 713 261 713 q 603 663 521 713 q 725 531 685 614 l 624 472 q 542 561 597 528 q 418 594 488 594 q 244 524 314 594 q 174 347 174 453 q 244 172 174 243 q 418 101 314 101 q 543 134 488 101 q 628 222 599 167 l 731 163 q 603 31 686 81 q 418 -18 519 -18 z "},"d":{"ha":879,"x_min":53,"x_max":788,"o":"m 667 972 l 788 972 l 788 0 l 667 0 l 667 119 q 404 -18 576 -18 q 156 88 258 -18 q 53 347 53 194 q 156 606 53 500 q 404 713 258 713 q 667 575 576 713 l 667 972 m 419 99 q 596 170 525 99 q 667 347 667 242 q 596 524 667 453 q 419 596 525 596 q 244 524 315 596 q 174 347 174 453 q 244 170 174 242 q 419 99 315 99 z "},"e":{"ha":810,"x_min":53,"x_max":763,"o":"m 176 292 q 262 147 194 199 q 428 96 329 96 q 628 197 565 96 l 731 139 q 425 -18 629 -18 q 156 85 260 -18 q 53 347 53 189 q 154 608 53 504 q 417 713 256 713 q 666 605 569 713 q 763 346 763 497 q 758 292 763 319 l 176 292 m 417 599 q 256 544 319 599 q 176 397 192 489 l 640 397 q 563 547 625 496 q 417 599 500 599 z "},"f":{"ha":449,"x_min":33,"x_max":449,"o":"m 449 874 q 265 715 265 889 l 265 694 l 449 694 l 449 578 l 265 578 l 265 0 l 144 0 l 144 578 l 33 578 l 33 694 l 144 694 l 144 715 q 223 928 144 856 q 449 990 301 1000 l 449 874 z "},"g":{"ha":879,"x_min":53,"x_max":788,"o":"m 668 694 l 788 694 l 788 29 q 683 -210 788 -125 q 433 -296 579 -296 q 232 -252 317 -296 q 104 -126 147 -208 l 210 -67 q 436 -183 267 -183 q 606 -126 544 -183 q 668 29 668 -69 l 668 128 q 407 -11 576 -11 q 156 94 258 -11 q 53 351 53 200 q 156 608 53 503 q 407 713 258 713 q 668 575 578 713 l 668 694 m 244 175 q 280 140 244 175 q 421 104 315 104 q 597 175 526 104 q 668 351 668 246 q 597 526 668 456 q 421 597 526 597 q 244 526 315 597 q 174 351 174 456 q 244 175 174 246 z "},"h":{"ha":783,"x_min":92,"x_max":707,"o":"m 438 713 q 633 635 560 713 q 707 426 707 558 l 707 0 l 586 0 l 586 419 q 540 551 586 504 q 414 597 494 597 q 268 541 324 597 q 213 368 213 485 l 213 0 l 92 0 l 92 972 l 213 972 l 213 594 q 438 713 286 713 z "},"i":{"ha":306,"x_min":71,"x_max":233,"o":"m 153 821 q 94 844 118 821 q 71 901 71 868 q 94 959 71 935 q 153 983 118 983 q 210 959 186 983 q 233 901 233 935 q 210 844 233 868 q 153 821 186 821 m 92 0 l 92 694 l 213 694 l 213 0 l 92 0 z "},"j":{"ha":335,"x_min":-25,"x_max":264,"o":"m 183 821 q 125 844 149 821 q 101 901 101 868 q 125 959 101 935 q 183 983 149 983 q 240 959 217 983 q 264 901 264 935 q 240 844 264 868 q 183 821 217 821 m 122 -42 l 122 694 l 243 694 l 243 -42 q 175 -241 243 -176 q -25 -296 107 -306 l -25 -179 q 87 -154 51 -186 q 122 -42 122 -122 z "},"k":{"ha":700,"x_min":92,"x_max":679,"o":"m 679 0 l 529 0 l 213 329 l 213 0 l 92 0 l 92 972 l 213 972 l 213 388 l 513 694 l 668 694 l 336 358 l 679 0 z "},"l":{"ha":306,"x_min":92,"x_max":213,"o":"m 92 0 l 92 1014 l 213 1014 l 213 0 l 92 0 z "},"m":{"ha":1179,"x_min":92,"x_max":1103,"o":"m 842 713 q 1031 637 958 713 q 1103 432 1103 561 l 1103 0 l 982 0 l 982 428 q 940 553 982 508 q 829 597 899 597 q 705 545 751 597 q 658 386 658 493 l 658 0 l 538 0 l 538 428 q 498 553 538 508 q 390 597 458 597 q 263 544 314 597 q 213 386 213 492 l 213 0 l 92 0 l 92 694 l 213 694 l 213 601 q 419 713 283 713 q 624 594 560 713 q 842 713 696 713 z "},"n":{"ha":783,"x_min":92,"x_max":707,"o":"m 438 713 q 633 635 560 713 q 707 426 707 558 l 707 0 l 586 0 l 586 419 q 540 551 586 504 q 414 597 494 597 q 268 541 324 597 q 213 368 213 485 l 213 0 l 92 0 l 92 694 l 213 694 l 213 594 q 438 713 286 713 z "},"o":{"ha":836,"x_min":53,"x_max":785,"o":"m 678 88 q 624 35 678 88 q 418 -18 571 -18 q 159 88 265 -18 q 53 347 53 193 q 159 607 53 501 q 418 713 265 713 q 678 607 571 713 q 785 347 785 501 q 678 88 785 193 m 418 100 q 593 171 522 100 q 664 347 664 242 q 593 524 664 453 q 418 594 522 594 q 244 524 315 594 q 174 347 174 453 q 244 171 174 242 q 418 100 315 100 z "},"p":{"ha":879,"x_min":92,"x_max":826,"o":"m 475 713 q 724 606 621 713 q 826 347 826 500 q 724 88 826 194 q 475 -18 621 -18 q 213 119 303 -18 l 213 -278 l 92 -278 l 92 694 l 213 694 l 213 575 q 475 713 303 713 m 460 99 q 635 170 564 99 q 706 347 706 242 q 635 524 706 453 q 460 596 564 596 q 283 524 354 596 q 213 347 213 453 q 283 170 213 242 q 460 99 354 99 z "},"q":{"ha":879,"x_min":53,"x_max":788,"o":"m 667 694 l 788 694 l 788 -278 l 667 -278 l 667 119 q 404 -18 576 -18 q 156 88 258 -18 q 53 347 53 194 q 156 606 53 500 q 404 713 258 713 q 667 575 576 713 l 667 694 m 419 99 q 596 170 525 99 q 667 347 667 242 q 596 524 667 453 q 419 596 525 596 q 244 524 315 596 q 174 347 174 453 q 244 170 174 242 q 419 99 315 99 z "},"r":{"ha":456,"x_min":92,"x_max":429,"o":"m 213 578 q 429 707 272 707 l 429 581 q 276 533 340 585 q 213 368 213 482 l 213 0 l 92 0 l 92 694 l 213 694 l 213 578 z "},"s":{"ha":636,"x_min":49,"x_max":585,"o":"m 196 507 q 236 442 196 467 q 333 403 276 418 q 447 370 390 389 q 544 306 504 351 q 585 190 585 261 q 512 39 585 96 q 325 -18 439 -18 q 151 26 224 -18 q 49 144 79 71 l 153 204 q 215 125 169 154 q 325 96 261 96 q 424 119 385 96 q 463 190 463 142 q 422 255 463 231 q 325 294 382 279 q 211 328 268 308 q 114 392 154 347 q 74 506 74 436 q 144 654 74 596 q 319 713 214 713 q 470 674 404 713 q 569 568 536 636 l 468 511 q 319 600 431 600 q 232 576 268 600 q 196 507 196 551 z "},"t":{"ha":525,"x_min":26,"x_max":469,"o":"m 469 578 l 285 578 l 285 201 q 305 128 285 150 q 367 106 325 107 q 469 108 408 106 l 469 0 q 238 26 311 -21 q 164 201 164 72 l 164 578 l 26 578 l 26 694 l 164 694 l 164 853 l 285 889 l 285 694 l 469 694 l 469 578 z "},"u":{"ha":783,"x_min":76,"x_max":692,"o":"m 571 694 l 692 694 l 692 0 l 571 0 l 571 100 q 346 -18 497 -18 q 150 59 224 -18 q 76 268 76 136 l 76 694 l 197 694 l 197 275 q 243 144 197 190 q 369 97 289 97 q 515 153 460 97 q 571 326 571 210 l 571 694 z "},"v":{"ha":719,"x_min":11,"x_max":708,"o":"m 578 694 l 708 694 l 431 0 l 289 0 l 11 694 l 142 694 l 360 129 l 578 694 z "},"w":{"ha":1069,"x_min":33,"x_max":1036,"o":"m 910 694 l 1036 694 l 821 0 l 697 0 l 535 514 l 372 0 l 249 0 l 33 694 l 160 694 l 313 167 l 476 694 l 593 694 l 757 165 l 910 694 z "},"x":{"ha":715,"x_min":21,"x_max":694,"o":"m 694 0 l 553 0 l 358 263 l 163 0 l 21 0 l 288 357 l 36 694 l 179 694 l 358 453 l 538 694 l 679 694 l 429 358 l 694 0 z "},"y":{"ha":715,"x_min":11,"x_max":706,"o":"m 576 694 l 706 694 l 422 -43 q 298 -223 378 -161 q 114 -278 218 -285 l 114 -165 q 301 -24 242 -175 l 314 3 l 11 694 l 140 694 l 376 150 l 576 694 z "},"z":{"ha":654,"x_min":67,"x_max":601,"o":"m 232 115 l 601 115 l 601 0 l 67 0 l 67 81 l 421 579 l 81 579 l 81 694 l 588 694 l 588 614 l 232 115 z "},"{":{"ha":494,"x_min":69,"x_max":467,"o":"m 467 -150 q 203 86 203 -171 l 203 310 q 172 408 203 385 q 69 429 140 431 l 69 546 q 172 568 140 544 q 203 665 203 592 l 203 889 q 467 1125 203 1146 l 467 1008 q 357 991 390 1017 q 324 889 324 965 l 324 665 q 224 488 324 526 q 324 310 324 450 l 324 86 q 358 -16 324 10 q 467 -33 392 -42 l 467 -150 z "},"|":{"ha":329,"x_min":104,"x_max":225,"o":"m 104 -278 l 104 1000 l 225 1000 l 225 -278 l 104 -278 z "},"}":{"ha":494,"x_min":28,"x_max":425,"o":"m 28 -150 l 28 -33 q 137 -16 103 -42 q 171 86 171 10 l 171 310 q 271 488 171 450 q 171 665 171 526 l 171 889 q 138 991 171 965 q 28 1008 104 1017 l 28 1125 q 292 889 292 1146 l 292 665 q 323 568 292 592 q 425 546 354 544 l 425 429 q 323 408 354 431 q 292 310 292 385 l 292 86 q 28 -150 292 -171 z "},"~":{"ha":828,"x_min":76,"x_max":751,"o":"m 647 589 l 751 539 q 626 384 715 415 q 401 428 536 353 q 250 473 296 485 q 181 383 204 461 l 76 432 q 203 587 113 556 q 425 544 294 618 q 578 498 533 486 q 647 589 624 510 z "},"¡":{"ha":338,"x_min":78,"x_max":258,"o":"m 168 710 q 233 683 207 710 q 258 619 258 657 q 233 556 258 582 q 168 529 207 529 q 104 556 131 529 q 78 619 78 582 q 104 683 78 657 q 168 710 131 710 m 122 410 l 215 410 l 242 0 l 242 -278 l 96 -278 l 96 0 l 122 410 z "},"¢":{"ha":760,"x_min":53,"x_max":731,"o":"m 628 361 l 731 301 q 603 170 686 219 q 418 121 519 121 q 328 132 372 121 l 285 0 l 211 0 l 261 154 q 109 286 165 197 q 53 486 53 375 q 157 747 53 642 q 418 851 261 851 q 485 846 456 851 l 525 972 l 599 972 l 551 826 q 725 669 671 782 l 624 611 q 515 714 589 682 l 364 246 q 418 240 388 240 q 543 273 488 240 q 628 361 599 306 m 174 486 q 207 358 174 415 q 299 269 240 301 l 447 732 q 418 733 438 733 q 244 663 314 733 q 174 486 174 592 z "},"£":{"ha":811,"x_min":53,"x_max":792,"o":"m 301 125 l 792 125 l 792 0 l 53 0 l 53 125 l 174 125 l 174 394 l 76 394 l 76 508 l 174 508 l 174 694 q 260 914 174 838 q 465 990 347 990 q 635 940 564 990 q 742 799 706 889 l 635 738 q 467 865 589 865 q 349 822 396 865 q 301 692 301 778 l 301 508 l 610 508 l 610 394 l 301 394 l 301 125 z "},"¤":{"ha":763,"x_min":53,"x_max":711,"o":"m 614 671 q 678 486 678 592 q 614 301 678 381 l 711 204 l 664 157 l 565 256 q 382 193 488 193 q 197 254 278 193 l 100 157 l 53 204 l 149 301 q 85 486 85 381 q 149 671 85 592 l 53 768 l 100 815 l 197 718 q 382 781 276 781 q 565 718 485 781 l 664 815 l 711 768 l 614 671 m 256 360 q 282 334 256 360 q 382 308 307 308 q 508 360 457 308 q 558 486 558 411 q 508 613 558 563 q 382 664 457 664 q 256 613 306 664 q 206 486 206 563 q 256 360 206 411 z "},"¥":{"ha":811,"x_min":11,"x_max":828,"o":"m 828 972 l 540 489 l 711 489 l 711 399 l 488 399 l 483 393 l 483 322 l 711 322 l 711 231 l 483 231 l 483 0 l 354 0 l 354 231 l 100 231 l 100 322 l 354 322 l 354 394 l 351 399 l 100 399 l 100 489 l 299 489 l 11 972 l 156 972 l 419 517 l 683 972 l 828 972 z "},"¦":{"ha":329,"x_min":104,"x_max":225,"o":"m 104 486 l 104 1000 l 225 1000 l 225 486 l 104 486 m 104 -278 l 104 236 l 225 236 l 225 -278 l 104 -278 z "},"§":{"ha":724,"x_min":78,"x_max":669,"o":"m 669 374 q 582 201 669 268 q 639 60 639 142 q 567 -96 639 -36 q 379 -156 494 -156 q 83 26 154 -156 l 188 86 q 379 -44 231 -44 q 480 -17 442 -44 q 518 60 518 10 q 515 85 518 72 q 502 108 511 97 q 485 128 493 119 q 460 147 476 136 q 434 163 444 157 q 401 179 424 169 q 367 194 379 189 q 331 210 356 199 q 294 225 306 221 q 136 320 194 265 q 78 464 78 375 q 172 638 78 568 q 121 776 121 693 q 192 931 121 871 q 368 990 263 990 q 526 946 458 990 q 628 821 594 901 l 529 765 q 368 878 483 878 q 278 851 315 878 q 242 776 242 824 q 256 728 242 750 q 297 689 269 707 q 353 657 325 671 q 424 625 382 643 q 450 614 442 618 q 611 516 553 569 q 669 374 669 463 m 199 468 q 237 385 199 418 q 344 325 275 351 q 493 264 456 283 q 549 367 549 306 q 510 451 549 419 q 397 514 471 483 q 258 572 285 558 q 199 468 199 533 z "},"¨":{"ha":465,"x_min":28,"x_max":438,"o":"m 153 808 q 142 797 153 808 q 101 786 132 786 q 49 808 71 786 q 28 860 28 829 q 49 911 28 890 q 101 932 71 932 q 153 911 132 932 q 174 860 174 890 q 153 808 174 829 m 417 808 q 406 797 417 808 q 365 786 396 786 q 313 808 335 786 q 292 860 292 829 q 313 911 292 890 q 365 932 335 932 q 417 911 396 932 q 438 860 438 890 q 417 808 438 829 z "},"©":{"ha":1110,"x_min":53,"x_max":1058,"o":"m 911 131 q 838 57 911 131 q 556 -17 764 -17 q 200 131 347 -17 q 53 486 53 278 q 200 842 53 694 q 556 989 347 989 q 911 842 764 989 q 1058 486 1058 694 q 911 131 1058 278 m 556 25 q 878 160 744 25 q 1013 486 1013 294 q 878 813 1013 678 q 556 947 744 947 q 231 813 365 947 q 97 486 97 678 q 231 160 97 294 q 556 25 365 25 m 560 218 q 367 297 446 218 q 288 486 288 375 q 367 676 288 597 q 560 754 446 754 q 694 719 633 754 q 789 624 756 685 l 693 568 q 558 646 657 646 q 444 599 488 646 q 400 486 400 551 q 444 374 400 421 q 558 326 488 326 q 640 347 603 326 q 694 406 678 368 l 790 349 q 695 253 757 289 q 560 218 633 218 z "},"«":{"ha":708,"x_min":94,"x_max":614,"o":"m 378 683 l 225 429 l 378 176 l 247 176 l 94 429 l 247 683 l 378 683 m 614 683 l 461 429 l 614 176 l 483 176 l 331 429 l 483 683 l 614 683 z "},"¬":{"ha":736,"x_min":76,"x_max":660,"o":"m 76 544 l 660 544 l 660 267 l 539 267 l 539 429 l 76 429 l 76 544 z "},"®":{"ha":1110,"x_min":53,"x_max":1058,"o":"m 200 842 q 274 915 200 842 q 556 989 347 989 q 911 842 764 989 q 1058 486 1058 694 q 911 131 1058 278 q 556 -17 764 -17 q 200 131 347 -17 q 53 486 53 278 q 200 842 53 694 m 556 25 q 878 160 744 25 q 1013 486 1013 294 q 878 813 1013 678 q 556 947 744 947 q 231 813 365 947 q 97 486 97 678 q 231 160 97 294 q 556 25 365 25 m 760 576 q 672 425 760 468 l 779 229 l 663 229 l 572 403 l 564 403 l 497 403 l 497 229 l 390 229 l 390 743 l 564 743 q 707 695 654 743 q 760 576 760 647 m 497 643 l 497 500 l 564 500 q 629 519 606 500 q 653 571 653 539 q 564 643 653 643 l 497 643 z "},"¯":{"ha":431,"x_min":28,"x_max":403,"o":"m 28 799 l 28 900 l 403 900 l 403 799 l 28 799 z "},"°":{"ha":543,"x_min":53,"x_max":492,"o":"m 272 694 q 115 757 178 694 q 53 910 53 819 q 115 1063 53 1000 q 272 1125 178 1125 q 429 1063 367 1125 q 492 910 492 1000 q 430 757 492 819 q 272 694 368 694 m 193 831 q 208 815 193 831 q 272 799 224 799 q 351 831 321 799 q 382 910 382 863 q 351 989 382 957 q 272 1021 321 1021 q 193 989 224 1021 q 163 910 163 957 q 193 831 163 863 z "},"±":{"ha":757,"x_min":81,"x_max":678,"o":"m 436 646 l 678 646 l 678 531 l 436 531 l 436 313 l 321 313 l 321 531 l 81 531 l 81 646 l 321 646 l 321 865 l 436 865 l 436 646 m 81 108 l 81 224 l 678 224 l 678 108 l 81 108 z "},"´":{"ha":313,"x_min":28,"x_max":285,"o":"m 28 789 l 144 789 l 285 972 l 139 972 l 28 789 z "},"µ":{"ha":847,"x_min":92,"x_max":808,"o":"m 756 115 l 808 115 l 808 0 l 738 0 q 596 93 629 0 q 375 -18 524 -18 q 213 36 275 -18 l 213 -278 l 92 -278 l 92 694 l 213 694 l 213 276 q 258 144 213 190 q 385 97 304 97 q 531 153 475 97 q 586 326 586 210 l 586 694 l 707 694 l 707 164 q 720 128 707 142 q 756 115 733 115 z "},"¶":{"ha":847,"x_min":49,"x_max":789,"o":"m 789 972 l 789 863 l 704 863 l 704 -278 l 589 -278 l 589 863 l 449 863 l 449 -278 l 333 -278 l 333 403 q 132 486 215 403 q 49 688 49 569 q 131 889 49 806 q 333 972 214 972 l 789 972 z "},"·":{"ha":338,"x_min":78,"x_max":258,"o":"m 168 394 q 104 421 131 394 q 78 485 78 447 q 104 549 78 522 q 168 575 131 575 q 233 549 207 575 q 258 485 258 522 q 233 421 258 447 q 168 394 207 394 z "},"¸":{"ha":347,"x_min":28,"x_max":319,"o":"m 201 -62 q 287 -103 254 -74 q 319 -174 319 -132 q 28 -300 319 -317 l 28 -208 q 214 -165 214 -222 q 99 -115 214 -122 l 99 0 l 201 0 l 201 -62 z "},"»":{"ha":708,"x_min":94,"x_max":614,"o":"m 225 683 l 378 429 l 225 176 l 94 176 l 247 429 l 94 683 l 225 683 m 461 683 l 614 429 l 461 176 l 331 176 l 483 429 l 331 683 l 461 683 z "},"¼":{"ha":1138,"x_min":11,"x_max":1111,"o":"m 267 417 l 160 417 l 160 860 l 38 824 l 11 914 l 174 972 l 267 972 l 267 417 m 728 972 l 825 972 l 269 0 l 172 0 l 728 972 m 1111 197 l 1111 99 l 1046 99 l 1046 0 l 940 0 l 940 99 l 664 99 l 664 197 l 861 556 l 976 556 l 782 197 l 940 197 l 940 319 l 1046 319 l 1046 197 l 1111 197 z "},"½":{"ha":1124,"x_min":11,"x_max":1082,"o":"m 267 417 l 160 417 l 160 860 l 38 824 l 11 914 l 174 972 l 267 972 l 267 417 m 728 972 l 825 972 l 269 0 l 172 0 l 728 972 m 843 100 l 1082 100 l 1082 0 l 685 0 l 685 79 l 910 292 q 964 399 964 342 q 941 452 964 432 q 879 472 918 472 q 769 392 803 472 l 681 442 q 879 574 736 574 q 1018 524 964 574 q 1072 401 1072 475 q 983 226 1072 308 l 843 100 z "},"¾":{"ha":1272,"x_min":28,"x_max":1246,"o":"m 439 581 q 383 448 439 497 q 232 399 326 399 q 28 518 83 399 l 118 569 q 232 499 149 499 q 306 521 281 499 q 332 581 332 543 q 304 641 332 618 q 231 664 276 664 l 218 664 l 171 733 l 288 872 l 49 872 l 49 972 l 414 972 l 414 881 l 297 742 q 401 685 364 728 q 439 581 439 643 m 863 972 l 960 972 l 404 0 l 307 0 l 863 972 m 1246 197 l 1246 99 l 1181 99 l 1181 0 l 1075 0 l 1075 99 l 799 99 l 799 197 l 996 556 l 1111 556 l 917 197 l 1075 197 l 1075 319 l 1181 319 l 1181 197 l 1246 197 z "},"¿":{"ha":749,"x_min":79,"x_max":686,"o":"m 400 710 q 464 683 438 710 q 490 619 490 657 q 464 556 490 582 q 400 529 438 529 q 335 556 361 529 q 310 619 310 582 q 335 683 310 657 q 400 710 361 710 m 464 410 q 438 296 464 349 q 374 206 411 243 q 299 134 336 168 q 235 59 261 100 q 208 -28 208 18 q 256 -134 208 -97 q 381 -171 304 -171 q 576 -36 533 -171 l 686 -97 q 568 -245 651 -194 q 379 -296 485 -296 q 167 -226 256 -296 q 79 -33 79 -157 q 106 76 79 25 q 169 165 132 128 q 244 238 207 203 q 308 317 282 274 q 335 410 335 361 l 464 410 z "},"À":{"ha":893,"x_min":11,"x_max":882,"o":"m 539 1067 l 422 1067 l 282 1250 l 428 1250 l 539 1067 m 744 0 l 665 218 l 228 218 l 149 0 l 11 0 l 374 972 l 519 972 l 882 0 l 744 0 m 272 339 l 621 339 l 446 818 l 272 339 z "},"Á":{"ha":893,"x_min":11,"x_max":882,"o":"m 619 1250 l 479 1067 l 363 1067 l 474 1250 l 619 1250 m 744 0 l 665 218 l 228 218 l 149 0 l 11 0 l 374 972 l 519 972 l 882 0 l 744 0 m 272 339 l 621 339 l 446 818 l 272 339 z "},"Â":{"ha":893,"x_min":11,"x_max":882,"o":"m 444 1175 l 360 1063 l 231 1063 l 378 1250 l 511 1250 l 658 1063 l 529 1063 l 444 1175 m 744 0 l 665 218 l 228 218 l 149 0 l 11 0 l 374 972 l 519 972 l 882 0 l 744 0 m 272 339 l 621 339 l 446 818 l 272 339 z "},"Ã":{"ha":893,"x_min":11,"x_max":882,"o":"m 439 1107 q 364 1145 389 1149 q 339 1074 339 1142 l 238 1074 q 270 1208 238 1163 q 351 1251 303 1253 q 451 1211 399 1249 q 527 1173 503 1169 q 551 1243 551 1176 l 653 1243 q 621 1110 653 1154 q 541 1067 589 1065 q 439 1107 493 1069 m 744 0 l 665 218 l 228 218 l 149 0 l 11 0 l 374 972 l 519 972 l 882 0 l 744 0 m 272 339 l 621 339 l 446 818 l 272 339 z "},"Ä":{"ha":893,"x_min":11,"x_max":882,"o":"m 365 1085 q 355 1075 365 1085 q 314 1064 344 1064 q 262 1085 283 1064 q 240 1138 240 1107 q 262 1189 240 1168 q 314 1210 283 1210 q 365 1189 344 1210 q 386 1138 386 1168 q 365 1085 386 1107 m 629 1085 q 619 1075 629 1085 q 578 1064 608 1064 q 526 1085 547 1064 q 504 1138 504 1107 q 526 1189 504 1168 q 578 1210 547 1210 q 629 1189 608 1210 q 650 1138 650 1168 q 629 1085 650 1107 m 744 0 l 665 218 l 228 218 l 149 0 l 11 0 l 374 972 l 519 972 l 882 0 l 744 0 m 272 339 l 621 339 l 446 818 l 272 339 z "},"Å":{"ha":893,"x_min":11,"x_max":882,"o":"m 744 0 l 665 218 l 228 218 l 149 0 l 11 0 l 360 935 q 290 1060 290 975 q 334 1165 290 1124 q 447 1207 378 1207 q 560 1165 517 1207 q 604 1060 604 1124 q 533 933 604 974 l 882 0 l 744 0 m 447 1122 q 399 1104 417 1122 q 382 1060 382 1086 q 399 1014 382 1032 q 447 996 417 996 q 497 1014 479 996 q 514 1060 514 1032 q 497 1105 514 1088 q 447 1122 479 1122 m 272 339 l 621 339 l 446 818 l 272 339 z "},"Æ":{"ha":1222,"x_min":0,"x_max":1171,"o":"m 751 122 l 1171 122 l 1171 0 l 625 0 l 625 218 l 278 218 l 146 0 l 0 0 l 589 972 l 1164 972 l 1164 850 l 751 850 l 751 551 l 1139 551 l 1139 431 l 751 431 l 751 122 m 350 339 l 625 339 l 625 794 l 350 339 z "},"Ç":{"ha":1026,"x_min":53,"x_max":981,"o":"m 561 108 q 744 156 661 108 q 868 283 826 204 l 981 219 q 828 59 926 122 q 613 -15 731 -4 l 613 -62 q 698 -103 665 -74 q 731 -174 731 -132 q 439 -300 731 -317 l 439 -208 q 625 -165 625 -222 q 510 -115 625 -122 l 510 -15 q 181 145 310 3 q 53 486 53 288 q 197 844 53 699 q 561 990 340 990 q 806 926 694 990 q 981 754 918 863 l 868 689 q 744 817 826 769 q 561 865 661 865 q 287 757 393 865 q 181 486 181 649 q 287 217 181 325 q 561 108 393 108 z "},"È":{"ha":736,"x_min":104,"x_max":685,"o":"m 485 1067 l 368 1067 l 228 1250 l 374 1250 l 485 1067 m 233 122 l 685 122 l 685 0 l 104 0 l 104 972 l 678 972 l 678 850 l 233 850 l 233 551 l 643 551 l 643 431 l 233 431 l 233 122 z "},"É":{"ha":736,"x_min":104,"x_max":685,"o":"m 565 1250 l 425 1067 l 308 1067 l 419 1250 l 565 1250 m 233 122 l 685 122 l 685 0 l 104 0 l 104 972 l 678 972 l 678 850 l 233 850 l 233 551 l 643 551 l 643 431 l 233 431 l 233 122 z "},"Ê":{"ha":736,"x_min":104,"x_max":685,"o":"m 390 1175 l 306 1063 l 176 1063 l 324 1250 l 457 1250 l 604 1063 l 475 1063 l 390 1175 m 233 122 l 685 122 l 685 0 l 104 0 l 104 972 l 678 972 l 678 850 l 233 850 l 233 551 l 643 551 l 643 431 l 233 431 l 233 122 z "},"Ë":{"ha":736,"x_min":104,"x_max":685,"o":"m 311 1085 q 301 1075 311 1085 q 260 1064 290 1064 q 208 1085 229 1064 q 186 1138 186 1107 q 208 1189 186 1168 q 260 1210 229 1210 q 311 1189 290 1210 q 332 1138 332 1168 q 311 1085 332 1107 m 575 1085 q 565 1075 575 1085 q 524 1064 554 1064 q 472 1085 493 1064 q 450 1138 450 1107 q 472 1189 450 1168 q 524 1210 493 1210 q 575 1189 554 1210 q 596 1138 596 1168 q 575 1085 596 1107 m 233 122 l 685 122 l 685 0 l 104 0 l 104 972 l 678 972 l 678 850 l 233 850 l 233 551 l 643 551 l 643 431 l 233 431 l 233 122 z "},"Ì":{"ha":338,"x_min":4,"x_max":261,"o":"m 261 1067 l 150 1250 l 4 1250 l 144 1067 l 261 1067 m 104 972 l 233 972 l 233 0 l 104 0 l 104 972 z "},"Í":{"ha":338,"x_min":85,"x_max":342,"o":"m 85 1067 l 201 1067 l 342 1250 l 196 1250 l 85 1067 m 104 972 l 233 972 l 233 0 l 104 0 l 104 972 z "},"Î":{"ha":338,"x_min":-47,"x_max":381,"o":"m 233 1250 l 381 1063 l 251 1063 l 167 1175 l 82 1063 l -47 1063 l 100 1250 l 233 1250 m 104 0 l 104 972 l 233 972 l 233 0 l 104 0 z "},"Ï":{"ha":338,"x_min":-37,"x_max":372,"o":"m 88 1085 q 77 1075 88 1085 q 36 1064 67 1064 q -16 1085 6 1064 q -37 1138 -37 1107 q -16 1189 -37 1168 q 36 1210 6 1210 q 88 1189 67 1210 q 108 1138 108 1168 q 88 1085 108 1107 m 351 1085 q 341 1075 351 1085 q 300 1064 331 1064 q 248 1085 269 1064 q 226 1138 226 1107 q 248 1189 226 1168 q 300 1210 269 1210 q 351 1189 331 1210 q 372 1138 372 1168 q 351 1085 372 1107 m 104 972 l 233 972 l 233 0 l 104 0 l 104 972 z "},"Ð":{"ha":1032,"x_min":38,"x_max":979,"o":"m 518 972 q 848 831 717 972 q 979 486 979 690 q 848 141 979 282 q 518 0 717 0 l 139 0 l 139 425 l 38 425 l 38 542 l 139 542 l 139 972 l 518 972 m 518 122 q 761 226 667 122 q 856 486 856 331 q 761 746 856 642 q 518 850 667 850 l 268 850 l 268 542 l 544 542 l 544 425 l 268 425 l 268 122 l 518 122 z "},"Ñ":{"ha":942,"x_min":104,"x_max":838,"o":"m 258 1074 q 291 1208 258 1163 q 372 1251 324 1253 q 472 1211 419 1249 q 548 1173 524 1169 q 572 1243 572 1176 l 674 1243 q 642 1110 674 1154 q 562 1067 610 1065 q 460 1107 514 1069 q 385 1145 410 1149 q 360 1074 360 1142 l 258 1074 m 708 972 l 838 972 l 838 0 l 733 0 l 233 726 l 233 0 l 104 0 l 104 972 l 208 972 l 708 247 l 708 972 z "},"Ò":{"ha":1111,"x_min":53,"x_max":1060,"o":"m 649 1071 l 538 1254 l 392 1254 l 532 1071 l 649 1071 m 913 129 q 840 56 913 129 q 556 -18 767 -18 q 199 129 344 -18 q 53 486 53 276 q 199 844 53 697 q 556 990 344 990 q 913 844 767 990 q 1060 486 1060 697 q 913 129 1060 276 m 288 217 q 342 163 288 217 q 556 108 396 108 q 823 217 715 108 q 931 486 931 326 q 823 756 931 647 q 556 865 715 865 q 288 756 396 865 q 181 486 181 647 q 288 217 181 326 z "},"Ó":{"ha":1111,"x_min":53,"x_max":1060,"o":"m 472 1071 l 589 1071 l 729 1254 l 583 1254 l 472 1071 m 913 129 q 840 56 913 129 q 556 -18 767 -18 q 199 129 344 -18 q 53 486 53 276 q 199 844 53 697 q 556 990 344 990 q 913 844 767 990 q 1060 486 1060 697 q 913 129 1060 276 m 288 217 q 342 163 288 217 q 556 108 396 108 q 823 217 715 108 q 931 486 931 326 q 823 756 931 647 q 556 865 715 865 q 288 756 396 865 q 181 486 181 647 q 288 217 181 326 z "},"Ô":{"ha":1111,"x_min":53,"x_max":1060,"o":"m 554 1179 l 469 1067 l 340 1067 l 488 1254 l 621 1254 l 768 1067 l 639 1067 l 554 1179 m 199 844 q 272 917 199 844 q 556 990 344 990 q 913 844 767 990 q 1060 486 1060 697 q 913 129 1060 276 q 556 -18 767 -18 q 199 129 344 -18 q 53 486 53 276 q 199 844 53 697 m 288 217 q 342 163 288 217 q 556 108 396 108 q 823 217 715 108 q 931 486 931 326 q 823 756 931 647 q 556 865 715 865 q 288 756 396 865 q 181 486 181 647 q 288 217 181 326 z "},"Õ":{"ha":1111,"x_min":53,"x_max":1060,"o":"m 347 1078 q 380 1212 347 1167 q 460 1255 413 1257 q 561 1215 508 1253 q 637 1177 613 1174 q 661 1247 661 1181 l 763 1247 q 731 1114 763 1158 q 651 1072 699 1069 q 549 1111 603 1074 q 474 1149 499 1153 q 449 1078 449 1146 l 347 1078 m 913 129 q 840 56 913 129 q 556 -18 767 -18 q 199 129 344 -18 q 53 486 53 276 q 199 844 53 697 q 556 990 344 990 q 913 844 767 990 q 1060 486 1060 697 q 913 129 1060 276 m 288 217 q 342 163 288 217 q 556 108 396 108 q 823 217 715 108 q 931 486 931 326 q 823 756 931 647 q 556 865 715 865 q 288 756 396 865 q 181 486 181 647 q 288 217 181 326 z "},"Ö":{"ha":1111,"x_min":53,"x_max":1060,"o":"m 475 1090 q 465 1079 475 1090 q 424 1068 454 1068 q 372 1090 393 1068 q 350 1142 350 1111 q 372 1193 350 1172 q 424 1214 393 1214 q 475 1193 454 1214 q 496 1142 496 1172 q 475 1090 496 1111 m 739 1090 q 728 1079 739 1090 q 688 1068 718 1068 q 635 1090 657 1068 q 614 1142 614 1111 q 635 1193 614 1172 q 688 1214 657 1214 q 739 1193 718 1214 q 760 1142 760 1172 q 739 1090 760 1111 m 913 129 q 840 56 913 129 q 556 -18 767 -18 q 199 129 344 -18 q 53 486 53 276 q 199 844 53 697 q 556 990 344 990 q 913 844 767 990 q 1060 486 1060 697 q 913 129 1060 276 m 288 217 q 342 163 288 217 q 556 108 396 108 q 823 217 715 108 q 931 486 931 326 q 823 756 931 647 q 556 865 715 865 q 288 756 396 865 q 181 486 181 647 q 288 217 181 326 z "},"×":{"ha":674,"x_min":69,"x_max":604,"o":"m 604 674 l 417 486 l 604 299 l 522 221 l 338 407 l 151 221 l 69 299 l 257 486 l 69 674 l 151 751 l 338 567 l 522 751 l 604 674 z "},"Ø":{"ha":1124,"x_min":65,"x_max":1072,"o":"m 926 843 q 1072 486 1072 697 q 926 129 1072 276 q 568 -18 779 -18 q 276 74 408 -18 l 208 -6 l 133 39 l 210 131 q 65 486 65 278 q 211 844 65 697 q 568 990 357 990 q 861 899 732 990 l 928 978 l 1003 935 l 926 843 m 193 486 q 292 226 193 333 l 779 803 q 568 865 683 865 q 301 756 408 865 q 193 486 193 647 m 568 108 q 835 217 728 108 q 943 486 943 326 q 844 747 943 638 l 357 171 q 568 108 450 108 z "},"Ù":{"ha":914,"x_min":92,"x_max":821,"o":"m 550 1067 l 439 1250 l 293 1250 l 433 1067 l 550 1067 m 719 76 q 669 29 719 76 q 457 -18 618 -18 q 194 76 296 -18 q 92 326 92 169 l 92 972 l 221 972 l 221 332 q 282 169 221 229 q 457 108 343 108 q 632 169 571 108 q 693 332 693 229 l 693 972 l 821 972 l 821 326 q 719 76 821 169 z "},"Ú":{"ha":914,"x_min":92,"x_max":821,"o":"m 374 1067 l 490 1067 l 631 1250 l 485 1250 l 374 1067 m 719 76 q 669 29 719 76 q 457 -18 618 -18 q 194 76 296 -18 q 92 326 92 169 l 92 972 l 221 972 l 221 332 q 282 169 221 229 q 457 108 343 108 q 632 169 571 108 q 693 332 693 229 l 693 972 l 821 972 l 821 326 q 719 76 821 169 z "},"Û":{"ha":914,"x_min":92,"x_max":821,"o":"m 456 1175 l 371 1063 l 242 1063 l 389 1250 l 522 1250 l 669 1063 l 540 1063 l 456 1175 m 693 972 l 821 972 l 821 326 q 719 76 821 169 q 457 -18 618 -18 q 194 76 296 -18 q 92 326 92 169 l 92 972 l 221 972 l 221 332 q 282 169 221 229 q 457 108 343 108 q 632 169 571 108 q 693 332 693 229 l 693 972 z "},"Ü":{"ha":914,"x_min":92,"x_max":821,"o":"m 376 1085 q 366 1075 376 1085 q 325 1064 356 1064 q 273 1085 294 1064 q 251 1138 251 1107 q 273 1189 251 1168 q 325 1210 294 1210 q 376 1189 356 1210 q 397 1138 397 1168 q 376 1085 397 1107 m 640 1085 q 630 1075 640 1085 q 589 1064 619 1064 q 537 1085 558 1064 q 515 1138 515 1107 q 537 1189 515 1168 q 589 1210 558 1210 q 640 1189 619 1210 q 661 1138 661 1168 q 640 1085 661 1107 m 719 76 q 669 29 719 76 q 457 -18 618 -18 q 194 76 296 -18 q 92 326 92 169 l 92 972 l 221 972 l 221 332 q 282 169 221 229 q 457 108 343 108 q 632 169 571 108 q 693 332 693 229 l 693 972 l 821 972 l 821 326 q 719 76 821 169 z "},"Ý":{"ha":839,"x_min":11,"x_max":828,"o":"m 589 1250 l 449 1067 l 332 1067 l 443 1250 l 589 1250 m 828 972 l 483 393 l 483 0 l 354 0 l 354 394 l 11 972 l 156 972 l 419 517 l 683 972 l 828 972 z "},"Þ":{"ha":819,"x_min":104,"x_max":771,"o":"m 458 799 q 681 709 592 799 q 771 486 771 619 q 681 264 771 354 q 458 174 592 174 l 233 174 l 233 0 l 104 0 l 104 972 l 233 972 l 233 799 l 458 799 m 458 294 q 590 349 538 294 q 643 486 643 404 q 590 624 643 569 q 458 678 538 678 l 233 678 l 233 294 l 458 294 z "},"ß":{"ha":726,"x_min":92,"x_max":700,"o":"m 397 -6 l 397 103 q 579 208 579 90 q 550 296 579 249 q 485 380 521 343 q 421 463 450 417 q 392 546 392 508 q 447 653 392 586 q 501 760 501 719 q 465 845 501 814 q 369 876 429 876 q 258 837 303 876 q 213 713 213 797 l 213 0 l 92 0 l 92 713 q 169 916 92 842 q 372 990 247 990 q 555 926 488 990 q 622 769 622 863 q 595 680 622 722 q 541 604 568 638 q 514 549 514 571 q 543 480 514 519 q 607 405 572 440 q 671 313 642 369 q 700 197 700 256 q 624 39 700 96 q 397 -6 547 -18 z "},"à":{"ha":879,"x_min":53,"x_max":788,"o":"m 518 789 l 401 789 l 261 972 l 407 972 l 518 789 m 667 694 l 788 694 l 788 0 l 667 0 l 667 119 q 404 -18 576 -18 q 156 88 258 -18 q 53 347 53 194 q 156 606 53 500 q 404 713 258 713 q 667 575 576 713 l 667 694 m 419 99 q 596 170 525 99 q 667 347 667 242 q 596 524 667 453 q 419 596 525 596 q 244 524 315 596 q 174 347 174 453 q 244 170 174 242 q 419 99 315 99 z "},"á":{"ha":879,"x_min":53,"x_max":788,"o":"m 599 972 l 458 789 l 342 789 l 453 972 l 599 972 m 667 694 l 788 694 l 788 0 l 667 0 l 667 119 q 404 -18 576 -18 q 156 88 258 -18 q 53 347 53 194 q 156 606 53 500 q 404 713 258 713 q 667 575 576 713 l 667 694 m 419 99 q 596 170 525 99 q 667 347 667 242 q 596 524 667 453 q 419 596 525 596 q 244 524 315 596 q 174 347 174 453 q 244 170 174 242 q 419 99 315 99 z "},"â":{"ha":879,"x_min":53,"x_max":788,"o":"m 424 897 l 339 785 l 210 785 l 357 972 l 490 972 l 638 785 l 508 785 l 424 897 m 667 694 l 788 694 l 788 0 l 667 0 l 667 119 q 404 -18 576 -18 q 156 88 258 -18 q 53 347 53 194 q 156 606 53 500 q 404 713 258 713 q 667 575 576 713 l 667 694 m 419 99 q 596 170 525 99 q 667 347 667 242 q 596 524 667 453 q 419 596 525 596 q 244 524 315 596 q 174 347 174 453 q 244 170 174 242 q 419 99 315 99 z "},"ã":{"ha":879,"x_min":53,"x_max":788,"o":"m 418 829 q 343 867 368 871 q 318 796 318 864 l 217 796 q 249 930 217 885 q 330 973 282 975 q 431 933 378 971 q 506 895 482 892 q 531 965 531 899 l 632 965 q 600 832 632 876 q 520 790 568 788 q 418 829 472 792 m 667 694 l 788 694 l 788 0 l 667 0 l 667 119 q 404 -18 576 -18 q 156 88 258 -18 q 53 347 53 194 q 156 606 53 500 q 404 713 258 713 q 667 575 576 713 l 667 694 m 419 99 q 596 170 525 99 q 667 347 667 242 q 596 524 667 453 q 419 596 525 596 q 244 524 315 596 q 174 347 174 453 q 244 170 174 242 q 419 99 315 99 z "},"ä":{"ha":879,"x_min":53,"x_max":788,"o":"m 344 808 q 334 797 344 808 q 293 786 324 786 q 241 808 263 786 q 219 860 219 829 q 241 911 219 890 q 293 932 263 932 q 344 911 324 932 q 365 860 365 890 q 344 808 365 829 m 608 808 q 598 797 608 808 q 557 786 588 786 q 505 808 526 786 q 483 860 483 829 q 505 911 483 890 q 557 932 526 932 q 608 911 588 932 q 629 860 629 890 q 608 808 629 829 m 667 694 l 788 694 l 788 0 l 667 0 l 667 119 q 404 -18 576 -18 q 156 88 258 -18 q 53 347 53 194 q 156 606 53 500 q 404 713 258 713 q 667 575 576 713 l 667 694 m 419 99 q 596 170 525 99 q 667 347 667 242 q 596 524 667 453 q 419 596 525 596 q 244 524 315 596 q 174 347 174 453 q 244 170 174 242 q 419 99 315 99 z "},"å":{"ha":879,"x_min":53,"x_max":788,"o":"m 538 801 q 516 780 538 801 q 425 758 494 758 q 312 801 356 758 q 268 907 268 843 q 312 1013 268 971 q 425 1054 356 1054 q 538 1013 494 1054 q 582 907 582 971 q 538 801 582 843 m 425 969 q 377 951 394 969 q 360 907 360 933 q 377 861 360 879 q 425 843 394 843 q 474 861 457 843 q 492 907 492 879 q 474 952 492 935 q 425 969 457 969 m 667 694 l 788 694 l 788 0 l 667 0 l 667 119 q 404 -18 576 -18 q 156 88 258 -18 q 53 347 53 194 q 156 606 53 500 q 404 713 258 713 q 667 575 576 713 l 667 694 m 419 99 q 596 170 525 99 q 667 347 667 242 q 596 524 667 453 q 419 596 525 596 q 244 524 315 596 q 174 347 174 453 q 244 170 174 242 q 419 99 315 99 z "},"æ":{"ha":1422,"x_min":53,"x_max":1375,"o":"m 792 292 q 874 147 808 199 q 1036 96 940 96 q 1240 197 1178 96 l 1343 139 q 1051 -18 1242 -18 q 783 118 871 -18 l 783 0 l 667 0 l 667 119 q 404 -18 576 -18 q 156 88 258 -18 q 53 347 53 194 q 156 606 53 500 q 404 713 258 713 q 667 575 576 713 l 667 694 l 783 694 l 783 576 q 1043 713 872 713 q 1286 606 1197 713 q 1375 346 1375 500 q 1371 292 1375 319 l 792 292 m 1031 599 q 869 544 932 599 q 792 399 806 490 l 1253 399 q 1177 547 1239 496 q 1031 599 1115 599 m 419 99 q 596 170 525 99 q 667 347 667 242 q 596 524 667 453 q 419 596 525 596 q 244 524 315 596 q 174 347 174 453 q 244 170 174 242 q 419 99 315 99 z "},"ç":{"ha":760,"x_min":53,"x_max":731,"o":"m 731 163 q 623 44 692 92 q 469 -14 554 -3 l 469 -62 q 555 -103 522 -74 q 588 -174 588 -132 q 296 -300 588 -317 l 296 -208 q 482 -165 482 -222 q 367 -115 482 -122 l 367 -15 q 141 104 229 3 q 53 347 53 206 q 157 608 53 503 q 418 713 261 713 q 603 663 521 713 q 725 531 685 614 l 624 472 q 542 561 597 528 q 418 594 488 594 q 244 524 314 594 q 174 347 174 453 q 244 172 174 243 q 418 101 314 101 q 543 134 488 101 q 628 222 599 167 l 731 163 z "},"è":{"ha":810,"x_min":53,"x_max":763,"o":"m 501 790 l 385 790 l 244 974 l 390 974 l 501 790 m 176 292 q 262 147 194 199 q 428 96 329 96 q 628 197 565 96 l 731 139 q 425 -18 629 -18 q 156 85 260 -18 q 53 347 53 189 q 154 608 53 504 q 417 713 256 713 q 666 605 569 713 q 763 346 763 497 q 758 292 763 319 l 176 292 m 417 599 q 256 544 319 599 q 176 397 192 489 l 640 397 q 563 547 625 496 q 417 599 500 599 z "},"é":{"ha":810,"x_min":53,"x_max":763,"o":"m 582 974 l 442 790 l 325 790 l 436 974 l 582 974 m 176 292 q 262 147 194 199 q 428 96 329 96 q 628 197 565 96 l 731 139 q 425 -18 629 -18 q 156 85 260 -18 q 53 347 53 189 q 154 608 53 504 q 417 713 256 713 q 666 605 569 713 q 763 346 763 497 q 758 292 763 319 l 176 292 m 417 599 q 256 544 319 599 q 176 397 192 489 l 640 397 q 563 547 625 496 q 417 599 500 599 z "},"ê":{"ha":810,"x_min":53,"x_max":763,"o":"m 407 899 l 322 786 l 193 786 l 340 974 l 474 974 l 621 786 l 492 786 l 407 899 m 176 292 q 262 147 194 199 q 428 96 329 96 q 628 197 565 96 l 731 139 q 425 -18 629 -18 q 156 85 260 -18 q 53 347 53 189 q 154 608 53 504 q 417 713 256 713 q 666 605 569 713 q 763 346 763 497 q 758 292 763 319 l 176 292 m 417 599 q 256 544 319 599 q 176 397 192 489 l 640 397 q 563 547 625 496 q 417 599 500 599 z "},"ë":{"ha":810,"x_min":53,"x_max":763,"o":"m 328 809 q 317 798 328 809 q 276 788 307 788 q 224 809 246 788 q 203 861 203 831 q 224 913 203 892 q 276 933 246 933 q 328 913 307 933 q 349 861 349 892 q 328 809 349 831 m 592 809 q 581 798 592 809 q 540 788 571 788 q 488 809 510 788 q 467 861 467 831 q 488 913 467 892 q 540 933 510 933 q 592 913 571 933 q 613 861 613 892 q 592 809 613 831 m 176 292 q 262 147 194 199 q 428 96 329 96 q 628 197 565 96 l 731 139 q 425 -18 629 -18 q 156 85 260 -18 q 53 347 53 189 q 154 608 53 504 q 417 713 256 713 q 666 605 569 713 q 763 346 763 497 q 758 292 763 319 l 176 292 m 417 599 q 256 544 319 599 q 176 397 192 489 l 640 397 q 563 547 625 496 q 417 599 500 599 z "},"ì":{"ha":306,"x_min":1,"x_max":213,"o":"m 210 785 l 143 972 l 1 972 l 93 785 l 210 785 m 213 0 l 92 0 l 92 694 l 213 694 l 213 0 z "},"í":{"ha":306,"x_min":92,"x_max":304,"o":"m 96 785 l 213 785 l 304 972 l 161 972 l 96 785 m 92 0 l 92 694 l 213 694 l 213 0 l 92 0 z "},"î":{"ha":306,"x_min":-37,"x_max":342,"o":"m 219 972 l 342 785 l 214 785 l 153 882 l 92 785 l -37 785 l 86 972 l 219 972 m 92 0 l 92 694 l 213 694 l 213 0 l 92 0 z "},"ï":{"ha":306,"x_min":-25,"x_max":329,"o":"m 100 810 q 90 799 100 810 q 49 789 79 789 q -3 810 18 789 q -25 861 -25 831 q -3 913 -25 892 q 49 935 18 935 q 100 913 79 935 q 121 861 121 892 q 100 810 121 831 m 308 810 q 298 799 308 810 q 257 789 288 789 q 205 810 226 789 q 183 861 183 831 q 205 913 183 892 q 257 935 226 935 q 308 913 288 935 q 329 861 329 892 q 308 810 329 831 m 92 0 l 92 694 l 213 694 l 213 0 l 92 0 z "},"ð":{"ha":807,"x_min":53,"x_max":756,"o":"m 692 514 q 756 319 756 424 q 652 76 756 169 q 404 -17 549 -17 q 156 76 260 -17 q 53 319 53 169 q 159 558 53 465 q 407 640 265 651 q 460 633 442 638 l 356 775 l 192 682 l 192 779 l 304 843 l 210 972 l 350 972 l 404 900 l 563 990 l 563 893 l 454 832 l 692 514 m 404 99 q 567 159 500 99 q 635 319 635 219 q 597 447 635 397 q 406 535 531 535 q 239 476 304 535 q 174 319 174 417 q 240 159 174 219 q 404 99 307 99 z "},"ñ":{"ha":783,"x_min":92,"x_max":707,"o":"m 400 833 q 325 872 350 875 q 300 800 300 868 l 199 800 q 231 934 199 889 q 312 977 264 979 q 413 938 360 975 q 488 899 464 896 q 513 969 513 903 l 614 969 q 582 836 614 881 q 502 794 550 792 q 400 833 454 796 m 438 713 q 633 635 560 713 q 707 426 707 558 l 707 0 l 586 0 l 586 419 q 540 551 586 504 q 414 597 494 597 q 268 541 324 597 q 213 368 213 485 l 213 0 l 92 0 l 92 694 l 213 694 l 213 594 q 438 713 286 713 z "},"ò":{"ha":836,"x_min":53,"x_max":785,"o":"m 511 793 l 400 976 l 254 976 l 394 793 l 511 793 m 678 88 q 624 35 678 88 q 418 -18 571 -18 q 159 88 265 -18 q 53 347 53 193 q 159 607 53 501 q 418 713 265 713 q 678 607 571 713 q 785 347 785 501 q 678 88 785 193 m 418 100 q 593 171 522 100 q 664 347 664 242 q 593 524 664 453 q 418 594 522 594 q 244 524 315 594 q 174 347 174 453 q 244 171 174 242 q 418 100 315 100 z "},"ó":{"ha":836,"x_min":53,"x_max":785,"o":"m 335 793 l 451 793 l 592 976 l 446 976 l 335 793 m 678 88 q 624 35 678 88 q 418 -18 571 -18 q 159 88 265 -18 q 53 347 53 193 q 159 607 53 501 q 418 713 265 713 q 678 607 571 713 q 785 347 785 501 q 678 88 785 193 m 418 100 q 593 171 522 100 q 664 347 664 242 q 593 524 664 453 q 418 594 522 594 q 244 524 315 594 q 174 347 174 453 q 244 171 174 242 q 418 100 315 100 z "},"ô":{"ha":836,"x_min":53,"x_max":785,"o":"m 417 901 l 332 789 l 203 789 l 350 976 l 483 976 l 631 789 l 501 789 l 417 901 m 159 607 q 212 660 159 607 q 418 713 265 713 q 678 607 571 713 q 785 347 785 501 q 678 88 785 193 q 418 -18 571 -18 q 159 88 265 -18 q 53 347 53 193 q 159 607 53 501 m 418 100 q 593 171 522 100 q 664 347 664 242 q 593 524 664 453 q 418 594 522 594 q 244 524 315 594 q 174 347 174 453 q 244 171 174 242 q 418 100 315 100 z "},"õ":{"ha":836,"x_min":53,"x_max":785,"o":"m 210 800 q 242 934 210 889 q 323 977 275 979 q 424 938 371 975 q 499 899 475 896 q 524 969 524 903 l 625 969 q 593 836 625 881 q 513 794 561 792 q 411 833 465 796 q 336 872 361 875 q 311 800 311 868 l 210 800 m 678 88 q 624 35 678 88 q 418 -18 571 -18 q 159 88 265 -18 q 53 347 53 193 q 159 607 53 501 q 418 713 265 713 q 678 607 571 713 q 785 347 785 501 q 678 88 785 193 m 418 100 q 593 171 522 100 q 664 347 664 242 q 593 524 664 453 q 418 594 522 594 q 244 524 315 594 q 174 347 174 453 q 244 171 174 242 q 418 100 315 100 z "},"ö":{"ha":836,"x_min":53,"x_max":785,"o":"m 338 812 q 327 801 338 812 q 286 790 317 790 q 234 812 256 790 q 213 864 213 833 q 234 915 213 894 q 286 936 256 936 q 338 915 317 936 q 358 864 358 894 q 338 812 358 833 m 601 812 q 591 801 601 812 q 550 790 581 790 q 498 812 519 790 q 476 864 476 833 q 498 915 476 894 q 550 936 519 936 q 601 915 581 936 q 622 864 622 894 q 601 812 622 833 m 678 88 q 624 35 678 88 q 418 -18 571 -18 q 159 88 265 -18 q 53 347 53 193 q 159 607 53 501 q 418 713 265 713 q 678 607 571 713 q 785 347 785 501 q 678 88 785 193 m 418 100 q 593 171 522 100 q 664 347 664 242 q 593 524 664 453 q 418 594 522 594 q 244 524 315 594 q 174 347 174 453 q 244 171 174 242 q 418 100 315 100 z "},"÷":{"ha":799,"x_min":76,"x_max":722,"o":"m 463 687 q 450 674 463 687 q 400 661 438 661 q 337 687 363 661 q 311 750 311 713 q 337 813 311 788 q 400 838 363 838 q 463 813 438 838 q 488 750 488 788 q 463 687 488 713 m 76 429 l 76 544 l 722 544 l 722 429 l 76 429 m 463 160 q 450 148 463 160 q 400 135 438 135 q 337 160 363 135 q 311 224 311 186 q 337 286 311 261 q 400 311 363 311 q 463 286 438 311 q 488 224 488 261 q 463 160 488 186 z "},"ø":{"ha":836,"x_min":53,"x_max":785,"o":"m 686 599 q 785 347 785 493 q 678 88 785 193 q 418 -18 571 -18 q 204 49 301 -18 l 154 -8 l 92 28 l 151 96 q 53 347 53 201 q 159 607 53 501 q 418 713 265 713 q 632 644 538 713 l 683 703 l 746 667 l 686 599 m 174 347 q 231 186 174 254 l 554 556 q 418 594 493 594 q 244 524 315 594 q 174 347 174 453 m 418 100 q 593 171 522 100 q 664 347 664 242 q 607 508 664 440 l 283 139 q 418 100 344 100 z "},"ù":{"ha":783,"x_min":76,"x_max":692,"o":"m 475 789 l 358 789 l 218 972 l 364 972 l 475 789 m 571 694 l 692 694 l 692 0 l 571 0 l 571 100 q 346 -18 497 -18 q 150 59 224 -18 q 76 268 76 136 l 76 694 l 197 694 l 197 275 q 243 144 197 190 q 369 97 289 97 q 515 153 460 97 q 571 326 571 210 l 571 694 z "},"ú":{"ha":783,"x_min":76,"x_max":692,"o":"m 556 972 l 415 789 l 299 789 l 410 972 l 556 972 m 571 694 l 692 694 l 692 0 l 571 0 l 571 100 q 346 -18 497 -18 q 150 59 224 -18 q 76 268 76 136 l 76 694 l 197 694 l 197 275 q 243 144 197 190 q 369 97 289 97 q 515 153 460 97 q 571 326 571 210 l 571 694 z "},"û":{"ha":783,"x_min":76,"x_max":692,"o":"m 381 897 l 296 785 l 167 785 l 314 972 l 447 972 l 594 785 l 465 785 l 381 897 m 571 694 l 692 694 l 692 0 l 571 0 l 571 100 q 346 -18 497 -18 q 150 59 224 -18 q 76 268 76 136 l 76 694 l 197 694 l 197 275 q 243 144 197 190 q 369 97 289 97 q 515 153 460 97 q 571 326 571 210 l 571 694 z "},"ü":{"ha":783,"x_min":76,"x_max":692,"o":"m 301 808 q 291 797 301 808 q 250 786 281 786 q 198 808 219 786 q 176 860 176 829 q 198 911 176 890 q 250 932 219 932 q 301 911 281 932 q 322 860 322 890 q 301 808 322 829 m 565 808 q 555 797 565 808 q 514 786 544 786 q 462 808 483 786 q 440 860 440 829 q 462 911 440 890 q 514 932 483 932 q 565 911 544 932 q 586 860 586 890 q 565 808 586 829 m 571 694 l 692 694 l 692 0 l 571 0 l 571 100 q 346 -18 497 -18 q 150 59 224 -18 q 76 268 76 136 l 76 694 l 197 694 l 197 275 q 243 144 197 190 q 369 97 289 97 q 515 153 460 97 q 571 326 571 210 l 571 694 z "},"ý":{"ha":715,"x_min":11,"x_max":706,"o":"m 529 972 l 389 789 l 272 789 l 383 972 l 529 972 m 576 694 l 706 694 l 422 -43 q 298 -223 378 -161 q 114 -278 218 -285 l 114 -165 q 301 -24 242 -175 l 314 3 l 11 694 l 140 694 l 376 150 l 576 694 z "},"þ":{"ha":879,"x_min":92,"x_max":826,"o":"m 475 713 q 724 606 621 713 q 826 347 826 500 q 724 88 826 194 q 475 -18 621 -18 q 213 119 303 -18 l 213 -278 l 92 -278 l 92 972 l 213 972 l 213 575 q 475 713 303 713 m 460 99 q 635 170 564 99 q 706 347 706 242 q 635 524 706 453 q 460 596 564 596 q 283 524 354 596 q 213 347 213 453 q 283 170 213 242 q 460 99 354 99 z "},"ÿ":{"ha":715,"x_min":11,"x_max":706,"o":"m 275 808 q 265 797 275 808 q 224 786 254 786 q 172 808 193 786 q 150 860 150 829 q 172 911 150 890 q 224 932 193 932 q 275 911 254 932 q 296 860 296 890 q 275 808 296 829 m 539 808 q 528 797 539 808 q 488 786 518 786 q 435 808 457 786 q 414 860 414 829 q 435 911 414 890 q 488 932 457 932 q 539 911 518 932 q 560 860 560 890 q 539 808 560 829 m 576 694 l 706 694 l 422 -43 q 298 -223 378 -161 q 114 -278 218 -285 l 114 -165 q 301 -24 242 -175 l 314 3 l 11 694 l 140 694 l 376 150 l 576 694 z "},"Ā":{"ha":893,"x_min":11,"x_max":882,"o":"m 633 1178 l 633 1076 l 258 1076 l 258 1178 l 633 1178 m 744 0 l 665 218 l 228 218 l 149 0 l 11 0 l 374 972 l 519 972 l 882 0 l 744 0 m 272 339 l 621 339 l 446 818 l 272 339 z "},"ā":{"ha":879,"x_min":53,"x_max":788,"o":"m 613 900 l 613 799 l 238 799 l 238 900 l 613 900 m 667 694 l 788 694 l 788 0 l 667 0 l 667 119 q 404 -18 576 -18 q 156 88 258 -18 q 53 347 53 194 q 156 606 53 500 q 404 713 258 713 q 667 575 576 713 l 667 694 m 419 99 q 596 170 525 99 q 667 347 667 242 q 596 524 667 453 q 419 596 525 596 q 244 524 315 596 q 174 347 174 453 q 244 170 174 242 q 419 99 315 99 z "},"Ă":{"ha":893,"x_min":11,"x_max":882,"o":"m 446 1051 q 294 1101 350 1051 q 239 1239 239 1150 l 351 1239 q 446 1149 351 1149 q 540 1239 540 1149 l 653 1239 q 598 1101 653 1150 q 446 1051 543 1051 m 744 0 l 665 218 l 228 218 l 149 0 l 11 0 l 374 972 l 519 972 l 882 0 l 744 0 m 272 339 l 621 339 l 446 818 l 272 339 z "},"ă":{"ha":879,"x_min":53,"x_max":788,"o":"m 425 774 q 274 823 329 774 q 218 961 218 872 l 331 961 q 425 871 331 871 q 519 961 519 871 l 632 961 q 577 823 632 872 q 425 774 522 774 m 667 694 l 788 694 l 788 0 l 667 0 l 667 119 q 404 -18 576 -18 q 156 88 258 -18 q 53 347 53 194 q 156 606 53 500 q 404 713 258 713 q 667 575 576 713 l 667 694 m 419 99 q 596 170 525 99 q 667 347 667 242 q 596 524 667 453 q 419 596 525 596 q 244 524 315 596 q 174 347 174 453 q 244 170 174 242 q 419 99 315 99 z "},"Ą":{"ha":893,"x_min":11,"x_max":882,"o":"m 788 -158 q 831 -200 788 -200 q 882 -189 858 -200 l 882 -278 q 790 -296 839 -296 q 702 -266 735 -296 q 669 -185 669 -236 q 767 0 669 -100 l 744 0 l 665 218 l 228 218 l 149 0 l 11 0 l 374 972 l 519 972 l 882 0 q 788 -158 788 -90 m 272 339 l 621 339 l 446 818 l 272 339 z "},"ą":{"ha":879,"x_min":53,"x_max":788,"o":"m 788 0 q 692 -158 692 -92 q 735 -200 692 -200 q 788 -189 764 -200 l 788 -278 q 694 -296 742 -296 q 607 -266 639 -296 q 575 -185 575 -236 q 667 4 575 -101 l 667 119 q 404 -18 576 -18 q 156 88 258 -18 q 53 347 53 194 q 156 606 53 500 q 404 713 258 713 q 667 575 576 713 l 667 694 l 788 694 l 788 0 m 419 99 q 596 170 525 99 q 667 347 667 242 q 596 524 667 453 q 419 596 525 596 q 244 524 315 596 q 174 347 174 453 q 244 170 174 242 q 419 99 315 99 z "},"Ć":{"ha":1026,"x_min":53,"x_max":981,"o":"m 478 1071 l 594 1071 l 735 1254 l 589 1254 l 478 1071 m 561 -18 q 197 128 340 -18 q 53 486 53 274 q 197 844 53 699 q 561 990 340 990 q 806 926 694 990 q 981 754 918 863 l 868 689 q 744 817 826 769 q 561 865 661 865 q 287 757 393 865 q 181 486 181 649 q 287 217 181 325 q 561 108 393 108 q 744 156 661 108 q 868 283 826 204 l 981 219 q 807 47 919 111 q 561 -18 694 -18 z "},"ć":{"ha":760,"x_min":53,"x_max":731,"o":"m 324 789 l 440 789 l 581 972 l 435 972 l 324 789 m 418 -18 q 157 87 261 -18 q 53 347 53 192 q 157 608 53 503 q 418 713 261 713 q 603 663 521 713 q 725 531 685 614 l 624 472 q 542 561 597 528 q 418 594 488 594 q 244 524 314 594 q 174 347 174 453 q 244 172 174 243 q 418 101 314 101 q 543 134 488 101 q 628 222 599 167 l 731 163 q 603 31 686 81 q 418 -18 519 -18 z "},"Ċ":{"ha":1026,"x_min":53,"x_max":981,"o":"m 622 1091 q 610 1078 622 1091 q 561 1065 597 1065 q 499 1090 525 1065 q 474 1151 474 1115 q 499 1213 474 1188 q 561 1239 525 1239 q 622 1213 597 1239 q 647 1151 647 1188 q 622 1091 647 1117 m 561 -18 q 197 128 340 -18 q 53 486 53 274 q 197 844 53 699 q 561 990 340 990 q 806 926 694 990 q 981 754 918 863 l 868 689 q 744 817 826 769 q 561 865 661 865 q 287 757 393 865 q 181 486 181 649 q 287 217 181 325 q 561 108 393 108 q 744 156 661 108 q 868 283 826 204 l 981 219 q 807 47 919 111 q 561 -18 694 -18 z "},"ċ":{"ha":760,"x_min":53,"x_max":731,"o":"m 407 783 q 345 808 371 783 q 319 869 319 833 q 345 931 319 906 q 407 957 371 957 q 468 931 443 957 q 493 869 493 906 q 467 808 493 833 q 407 783 442 783 m 418 -18 q 157 87 261 -18 q 53 347 53 192 q 157 608 53 503 q 418 713 261 713 q 603 663 521 713 q 725 531 685 614 l 624 472 q 542 561 597 528 q 418 594 488 594 q 244 524 314 594 q 174 347 174 453 q 244 172 174 243 q 418 101 314 101 q 543 134 488 101 q 628 222 599 167 l 731 163 q 603 31 686 81 q 418 -18 519 -18 z "},"Č":{"ha":1026,"x_min":53,"x_max":981,"o":"m 493 1067 l 346 1254 l 475 1254 l 560 1142 l 644 1254 l 774 1254 l 626 1067 l 493 1067 m 561 108 q 744 156 661 108 q 868 283 826 204 l 981 219 q 807 47 919 111 q 561 -18 694 -18 q 197 128 340 -18 q 53 486 53 274 q 197 844 53 699 q 561 990 340 990 q 806 926 694 990 q 981 754 918 863 l 868 689 q 744 817 826 769 q 561 865 661 865 q 287 757 393 865 q 181 486 181 649 q 287 217 181 325 q 561 108 393 108 z "},"č":{"ha":760,"x_min":53,"x_max":731,"o":"m 339 785 l 192 972 l 321 972 l 406 860 l 490 972 l 619 972 l 472 785 l 339 785 m 628 222 l 731 163 q 603 31 686 81 q 418 -18 519 -18 q 157 87 261 -18 q 53 347 53 192 q 157 608 53 503 q 418 713 261 713 q 603 663 521 713 q 725 531 685 614 l 624 472 q 542 561 597 528 q 418 594 488 594 q 244 524 314 594 q 174 347 174 453 q 244 172 174 243 q 418 101 314 101 q 543 134 488 101 q 628 222 599 167 z "},"Ď":{"ha":997,"x_min":104,"x_max":944,"o":"m 411 1063 l 264 1250 l 393 1250 l 478 1138 l 563 1250 l 692 1250 l 544 1063 l 411 1063 m 483 972 q 813 831 682 972 q 944 486 944 690 q 813 141 944 282 q 483 0 682 0 l 104 0 l 104 972 l 483 972 m 483 122 q 726 226 632 122 q 821 486 821 331 q 726 746 821 642 q 483 850 632 850 l 233 850 l 233 122 l 483 122 z "},"ď":{"ha":990,"x_min":53,"x_max":1004,"o":"m 667 575 l 667 972 l 788 972 l 788 0 l 667 0 l 667 119 q 404 -18 576 -18 q 156 88 258 -18 q 53 347 53 194 q 156 606 53 500 q 404 713 258 713 q 667 575 576 713 m 888 972 l 1004 972 l 963 722 l 874 722 l 888 972 m 419 99 q 596 170 525 99 q 667 347 667 242 q 596 524 667 453 q 419 596 525 596 q 244 524 315 596 q 174 347 174 453 q 244 170 174 242 q 419 99 315 99 z "},"Đ":{"ha":1032,"x_min":38,"x_max":979,"o":"m 518 972 q 848 831 717 972 q 979 486 979 690 q 848 141 979 282 q 518 0 717 0 l 139 0 l 139 425 l 38 425 l 38 542 l 139 542 l 139 972 l 518 972 m 518 122 q 761 226 667 122 q 856 486 856 331 q 761 746 856 642 q 518 850 667 850 l 268 850 l 268 542 l 544 542 l 544 425 l 268 425 l 268 122 l 518 122 z "},"đ":{"ha":892,"x_min":53,"x_max":881,"o":"m 881 879 l 881 790 l 788 790 l 788 0 l 667 0 l 667 119 q 404 -18 576 -18 q 156 88 258 -18 q 53 347 53 194 q 156 606 53 500 q 404 713 258 713 q 667 575 576 713 l 667 790 l 426 790 l 426 879 l 667 879 l 667 972 l 788 972 l 788 879 l 881 879 m 419 99 q 596 170 525 99 q 667 347 667 242 q 596 524 667 453 q 419 596 525 596 q 244 524 315 596 q 174 347 174 453 q 244 170 174 242 q 419 99 315 99 z "},"Ē":{"ha":736,"x_min":104,"x_max":685,"o":"m 579 1178 l 579 1076 l 204 1076 l 204 1178 l 579 1178 m 233 122 l 685 122 l 685 0 l 104 0 l 104 972 l 678 972 l 678 850 l 233 850 l 233 551 l 643 551 l 643 431 l 233 431 l 233 122 z "},"ē":{"ha":810,"x_min":53,"x_max":763,"o":"m 596 901 l 596 800 l 221 800 l 221 901 l 596 901 m 176 292 q 262 147 194 199 q 428 96 329 96 q 628 197 565 96 l 731 139 q 425 -18 629 -18 q 156 85 260 -18 q 53 347 53 189 q 154 608 53 504 q 417 713 256 713 q 666 605 569 713 q 763 346 763 497 q 758 292 763 319 l 176 292 m 417 599 q 256 544 319 599 q 176 397 192 489 l 640 397 q 563 547 625 496 q 417 599 500 599 z "},"Ė":{"ha":736,"x_min":104,"x_max":685,"o":"m 453 1086 q 440 1074 453 1086 q 392 1061 428 1061 q 330 1086 356 1061 q 304 1147 304 1111 q 330 1209 304 1183 q 392 1235 356 1235 q 453 1209 428 1235 q 478 1147 478 1183 q 453 1086 478 1111 m 233 122 l 685 122 l 685 0 l 104 0 l 104 972 l 678 972 l 678 850 l 233 850 l 233 551 l 643 551 l 643 431 l 233 431 l 233 122 z "},"ė":{"ha":810,"x_min":53,"x_max":763,"o":"m 469 810 q 457 798 469 810 q 408 785 444 785 q 347 810 372 785 q 321 871 321 835 q 347 933 321 907 q 408 958 372 958 q 469 933 444 958 q 494 871 494 907 q 469 810 494 836 m 176 292 q 262 147 194 199 q 428 96 329 96 q 628 197 565 96 l 731 139 q 425 -18 629 -18 q 156 85 260 -18 q 53 347 53 189 q 154 608 53 504 q 417 713 256 713 q 666 605 569 713 q 763 346 763 497 q 758 292 763 319 l 176 292 m 417 599 q 256 544 319 599 q 176 397 192 489 l 640 397 q 563 547 625 496 q 417 599 500 599 z "},"Ę":{"ha":736,"x_min":104,"x_max":685,"o":"m 685 0 q 590 -158 590 -90 q 600 -190 589 -179 q 633 -200 611 -200 q 685 -189 661 -200 l 685 -278 q 593 -296 640 -296 q 504 -266 536 -296 q 472 -185 472 -236 q 569 0 472 -97 l 104 0 l 104 972 l 678 972 l 678 850 l 233 850 l 233 551 l 643 551 l 643 431 l 233 431 l 233 122 l 685 122 l 685 0 z "},"ę":{"ha":810,"x_min":53,"x_max":763,"o":"m 176 292 q 262 147 194 199 q 428 96 329 96 q 628 197 565 96 l 731 139 q 676 75 708 106 q 531 -158 531 -85 q 574 -200 531 -200 q 625 -189 603 -200 l 625 -278 q 533 -296 582 -296 q 446 -266 478 -296 q 414 -185 414 -236 q 503 -11 414 -99 q 425 -18 461 -18 q 156 85 260 -18 q 53 347 53 189 q 154 608 53 504 q 417 713 256 713 q 666 605 569 713 q 763 346 763 497 q 758 292 763 319 l 176 292 m 417 599 q 256 544 319 599 q 176 397 192 489 l 640 397 q 563 547 625 496 q 417 599 500 599 z "},"Ě":{"ha":736,"x_min":104,"x_max":685,"o":"m 324 1063 l 176 1250 l 306 1250 l 390 1138 l 475 1250 l 604 1250 l 457 1063 l 324 1063 m 233 122 l 685 122 l 685 0 l 104 0 l 104 972 l 678 972 l 678 850 l 233 850 l 233 551 l 643 551 l 643 431 l 233 431 l 233 122 z "},"ě":{"ha":810,"x_min":53,"x_max":763,"o":"m 340 786 l 193 974 l 322 974 l 407 861 l 492 974 l 621 974 l 474 786 l 340 786 m 176 292 q 262 147 194 199 q 428 96 329 96 q 628 197 565 96 l 731 139 q 425 -18 629 -18 q 156 85 260 -18 q 53 347 53 189 q 154 608 53 504 q 417 713 256 713 q 666 605 569 713 q 763 346 763 497 q 758 292 763 319 l 176 292 m 417 599 q 256 544 319 599 q 176 397 192 489 l 640 397 q 563 547 625 496 q 417 599 500 599 z "},"Ğ":{"ha":1094,"x_min":53,"x_max":1042,"o":"m 547 1056 q 396 1105 451 1056 q 340 1243 340 1154 l 453 1243 q 547 1153 453 1153 q 642 1243 642 1153 l 754 1243 q 699 1105 754 1154 q 547 1056 644 1056 m 1042 482 l 1042 424 q 911 108 1042 233 q 565 -18 781 -18 q 198 128 343 -18 q 53 486 53 275 q 198 844 53 697 q 563 990 343 990 q 810 926 697 990 q 983 756 922 861 l 872 690 q 747 817 831 769 q 561 865 663 865 q 288 756 394 865 q 181 486 181 647 q 288 217 181 325 q 567 108 396 108 q 803 180 713 108 q 913 365 893 251 l 556 365 l 556 482 l 1042 482 z "},"ğ":{"ha":879,"x_min":53,"x_max":788,"o":"m 422 778 q 271 827 326 778 q 215 965 215 876 l 328 965 q 422 875 328 875 q 517 965 517 875 l 629 965 q 574 827 629 876 q 422 778 519 778 m 668 694 l 788 694 l 788 29 q 683 -210 788 -125 q 433 -296 579 -296 q 232 -252 317 -296 q 104 -126 147 -208 l 210 -67 q 436 -183 267 -183 q 606 -126 544 -183 q 668 29 668 -69 l 668 128 q 407 -11 576 -11 q 156 94 258 -11 q 53 351 53 200 q 156 608 53 503 q 407 713 258 713 q 668 575 578 713 l 668 694 m 244 175 q 280 140 244 175 q 421 104 315 104 q 597 175 526 104 q 668 351 668 246 q 597 526 668 456 q 421 597 526 597 q 244 526 315 597 q 174 351 174 456 q 244 175 174 246 z "},"Ġ":{"ha":1094,"x_min":53,"x_max":1042,"o":"m 608 1091 q 596 1078 608 1091 q 547 1065 583 1065 q 485 1090 511 1065 q 460 1151 460 1115 q 485 1213 460 1188 q 547 1239 511 1239 q 608 1213 583 1239 q 633 1151 633 1188 q 608 1091 633 1117 m 1042 482 l 1042 424 q 911 108 1042 233 q 565 -18 781 -18 q 198 128 343 -18 q 53 486 53 275 q 198 844 53 697 q 563 990 343 990 q 810 926 697 990 q 983 756 922 861 l 872 690 q 747 817 831 769 q 561 865 663 865 q 288 756 394 865 q 181 486 181 647 q 288 217 181 325 q 567 108 396 108 q 803 180 713 108 q 913 365 893 251 l 556 365 l 556 482 l 1042 482 z "},"ġ":{"ha":879,"x_min":53,"x_max":788,"o":"m 483 813 q 471 800 483 813 q 422 788 458 788 q 360 813 386 788 q 335 874 335 838 q 360 935 335 910 q 422 961 386 961 q 483 935 458 961 q 508 874 508 910 q 483 813 508 839 m 668 694 l 788 694 l 788 29 q 683 -210 788 -125 q 433 -296 579 -296 q 232 -252 317 -296 q 104 -126 147 -208 l 210 -67 q 436 -183 267 -183 q 606 -126 544 -183 q 668 29 668 -69 l 668 128 q 407 -11 576 -11 q 156 94 258 -11 q 53 351 53 200 q 156 608 53 503 q 407 713 258 713 q 668 575 578 713 l 668 694 m 244 175 q 280 140 244 175 q 421 104 315 104 q 597 175 526 104 q 668 351 668 246 q 597 526 668 456 q 421 597 526 597 q 244 526 315 597 q 174 351 174 456 q 244 175 174 246 z "},"Ģ":{"ha":1094,"x_min":53,"x_max":1042,"o":"m 1042 482 l 1042 424 q 911 108 1042 233 q 565 -18 781 -18 q 198 128 343 -18 q 53 486 53 275 q 198 844 53 697 q 563 990 343 990 q 810 926 697 990 q 983 756 922 861 l 872 690 q 747 817 831 769 q 561 865 663 865 q 288 756 394 865 q 181 486 181 647 q 288 217 181 325 q 567 108 396 108 q 803 180 713 108 q 913 365 893 251 l 556 365 l 556 482 l 1042 482 m 514 -344 l 528 -94 l 646 -94 l 604 -344 l 514 -344 z "},"ģ":{"ha":879,"x_min":53,"x_max":788,"o":"m 486 1067 l 472 817 l 354 817 l 396 1067 l 486 1067 m 668 694 l 788 694 l 788 29 q 683 -210 788 -125 q 433 -296 579 -296 q 232 -252 317 -296 q 104 -126 147 -208 l 210 -67 q 436 -183 267 -183 q 606 -126 544 -183 q 668 29 668 -69 l 668 128 q 407 -11 576 -11 q 156 94 258 -11 q 53 351 53 200 q 156 608 53 503 q 407 713 258 713 q 668 575 578 713 l 668 694 m 244 175 q 280 140 244 175 q 421 104 315 104 q 597 175 526 104 q 668 351 668 246 q 597 526 668 456 q 421 597 526 597 q 244 526 315 597 q 174 351 174 456 q 244 175 174 246 z "},"Ħ":{"ha":1004,"x_min":49,"x_max":956,"o":"m 956 804 l 956 706 l 867 706 l 867 0 l 738 0 l 738 429 l 265 429 l 265 0 l 138 0 l 138 706 l 49 706 l 49 804 l 138 804 l 138 972 l 265 972 l 265 804 l 738 804 l 738 972 l 867 972 l 867 804 l 956 804 m 738 551 l 738 706 l 265 706 l 265 551 l 738 551 z "},"ħ":{"ha":796,"x_min":11,"x_max":719,"o":"m 450 713 q 646 635 572 713 q 719 426 719 558 l 719 0 l 599 0 l 599 419 q 553 551 599 504 q 426 597 507 597 q 281 541 336 597 q 225 368 225 485 l 225 0 l 104 0 l 104 790 l 11 790 l 11 879 l 104 879 l 104 972 l 225 972 l 225 879 l 424 879 l 424 790 l 225 790 l 225 594 q 450 713 299 713 z "},"Ī":{"ha":338,"x_min":-19,"x_max":356,"o":"m -19 1076 l -19 1178 l 356 1178 l 356 1076 l -19 1076 m 104 972 l 233 972 l 233 0 l 104 0 l 104 972 z "},"ī":{"ha":306,"x_min":7,"x_max":299,"o":"m 7 799 l 7 904 l 299 904 l 299 799 l 7 799 m 92 0 l 92 694 l 213 694 l 213 0 l 92 0 z "},"Į":{"ha":338,"x_min":58,"x_max":271,"o":"m 218 -200 q 271 -189 247 -200 l 271 -278 q 178 -296 225 -296 q 90 -266 122 -296 q 58 -185 58 -236 q 114 0 58 -106 l 104 0 l 104 972 l 233 972 l 233 0 q 175 -158 175 -104 q 218 -200 175 -200 z "},"į":{"ha":306,"x_min":42,"x_max":254,"o":"m 153 821 q 94 844 118 821 q 71 901 71 868 q 94 959 71 935 q 153 983 118 983 q 210 959 186 983 q 233 901 233 935 q 210 844 233 868 q 153 821 186 821 m 203 -200 q 254 -189 231 -200 l 254 -278 q 163 -296 208 -296 q 74 -261 107 -296 q 42 -174 42 -226 q 96 0 42 -101 l 92 0 l 92 694 l 213 694 l 213 0 q 160 -149 160 -86 q 170 -185 158 -169 q 203 -200 182 -200 z "},"İ":{"ha":338,"x_min":81,"x_max":254,"o":"m 168 1061 q 106 1086 132 1061 q 81 1147 81 1111 q 106 1209 81 1183 q 168 1235 132 1235 q 229 1209 204 1235 q 254 1147 254 1183 q 228 1086 254 1111 q 168 1061 203 1061 m 104 972 l 233 972 l 233 0 l 104 0 l 104 972 z "},"ı":{"ha":306,"x_min":92,"x_max":213,"o":"m 92 0 l 92 694 l 213 694 l 213 0 l 92 0 z "},"Ķ":{"ha":822,"x_min":104,"x_max":811,"o":"m 368 500 l 811 0 l 653 0 l 233 467 l 233 0 l 104 0 l 104 972 l 233 972 l 233 533 l 639 972 l 797 972 l 368 500 m 357 -344 l 371 -94 l 489 -94 l 447 -344 l 357 -344 z "},"ķ":{"ha":700,"x_min":92,"x_max":679,"o":"m 336 358 l 679 0 l 529 0 l 213 329 l 213 0 l 92 0 l 92 972 l 213 972 l 213 388 l 513 694 l 668 694 l 336 358 m 306 -344 l 319 -94 l 438 -94 l 396 -344 l 306 -344 z "},"Ĺ":{"ha":678,"x_min":104,"x_max":653,"o":"m 364 1250 l 224 1067 l 107 1067 l 218 1250 l 364 1250 m 233 122 l 653 122 l 653 0 l 104 0 l 104 972 l 233 972 l 233 122 z "},"ĺ":{"ha":306,"x_min":92,"x_max":349,"o":"m 92 1067 l 208 1067 l 349 1250 l 203 1250 l 92 1067 m 92 0 l 92 1014 l 213 1014 l 213 0 l 92 0 z "},"Ļ":{"ha":678,"x_min":104,"x_max":653,"o":"m 233 122 l 653 122 l 653 0 l 104 0 l 104 972 l 233 972 l 233 122 m 321 -344 l 335 -94 l 453 -94 l 411 -344 l 321 -344 z "},"ļ":{"ha":306,"x_min":82,"x_max":214,"o":"m 92 0 l 92 1014 l 213 1014 l 213 0 l 92 0 m 172 -344 l 214 -94 l 96 -94 l 82 -344 l 172 -344 z "},"Ľ":{"ha":678,"x_min":104,"x_max":653,"o":"m 233 122 l 653 122 l 653 0 l 104 0 l 104 972 l 233 972 l 233 122 m 496 972 l 454 729 l 361 729 l 375 972 l 496 972 z "},"ľ":{"ha":415,"x_min":92,"x_max":429,"o":"m 92 0 l 92 1014 l 213 1014 l 213 0 l 92 0 m 388 764 l 429 1014 l 313 1014 l 299 764 l 388 764 z "},"Ł":{"ha":706,"x_min":49,"x_max":681,"o":"m 261 122 l 681 122 l 681 0 l 132 0 l 132 324 l 49 275 l 49 397 l 132 446 l 132 972 l 261 972 l 261 522 l 479 651 l 479 529 l 261 400 l 261 122 z "},"ł":{"ha":344,"x_min":25,"x_max":319,"o":"m 319 653 l 319 538 l 232 478 l 232 0 l 111 0 l 111 394 l 25 336 l 25 451 l 111 510 l 111 1014 l 232 1014 l 232 593 l 319 653 z "},"Ń":{"ha":942,"x_min":104,"x_max":838,"o":"m 383 1067 l 500 1067 l 640 1250 l 494 1250 l 383 1067 m 708 972 l 838 972 l 838 0 l 733 0 l 233 726 l 233 0 l 104 0 l 104 972 l 208 972 l 708 247 l 708 972 z "},"ń":{"ha":783,"x_min":92,"x_max":707,"o":"m 581 976 l 440 793 l 324 793 l 435 976 l 581 976 m 438 713 q 633 635 560 713 q 707 426 707 558 l 707 0 l 586 0 l 586 419 q 540 551 586 504 q 414 597 494 597 q 268 541 324 597 q 213 368 213 485 l 213 0 l 92 0 l 92 694 l 213 694 l 213 594 q 438 713 286 713 z "},"Ņ":{"ha":942,"x_min":104,"x_max":838,"o":"m 708 972 l 838 972 l 838 0 l 733 0 l 233 726 l 233 0 l 104 0 l 104 972 l 208 972 l 708 247 l 708 972 m 492 -344 l 533 -94 l 415 -94 l 401 -344 l 492 -344 z "},"ņ":{"ha":783,"x_min":92,"x_max":707,"o":"m 438 713 q 633 635 560 713 q 707 426 707 558 l 707 0 l 586 0 l 586 419 q 540 551 586 504 q 414 597 494 597 q 268 541 324 597 q 213 368 213 485 l 213 0 l 92 0 l 92 694 l 213 694 l 213 594 q 438 713 286 713 m 338 -344 l 351 -94 l 469 -94 l 428 -344 l 338 -344 z "},"Ň":{"ha":942,"x_min":104,"x_max":838,"o":"m 399 1063 l 251 1250 l 381 1250 l 465 1138 l 550 1250 l 679 1250 l 532 1063 l 399 1063 m 708 972 l 838 972 l 838 0 l 733 0 l 233 726 l 233 0 l 104 0 l 104 972 l 208 972 l 708 247 l 708 972 z "},"ň":{"ha":783,"x_min":92,"x_max":707,"o":"m 339 789 l 192 976 l 321 976 l 406 864 l 490 976 l 619 976 l 472 789 l 339 789 m 438 713 q 633 635 560 713 q 707 426 707 558 l 707 0 l 586 0 l 586 419 q 540 551 586 504 q 414 597 494 597 q 268 541 324 597 q 213 368 213 485 l 213 0 l 92 0 l 92 694 l 213 694 l 213 594 q 438 713 286 713 z "},"Ŋ":{"ha":942,"x_min":104,"x_max":838,"o":"m 708 972 l 838 972 l 838 0 q 756 -214 838 -147 q 535 -278 674 -281 l 535 -157 q 665 -124 621 -157 q 708 4 708 -90 l 708 36 l 233 726 l 233 0 l 104 0 l 104 972 l 208 972 l 708 247 l 708 972 z "},"ŋ":{"ha":783,"x_min":92,"x_max":707,"o":"m 438 713 q 633 635 560 713 q 707 426 707 558 l 707 -42 q 639 -240 707 -174 q 443 -296 571 -306 l 443 -179 q 551 -154 515 -186 q 586 -42 586 -122 l 586 419 q 540 551 586 504 q 414 597 494 597 q 268 541 324 597 q 213 368 213 485 l 213 0 l 92 0 l 92 694 l 213 694 l 213 594 q 438 713 286 713 z "},"Ō":{"ha":1111,"x_min":53,"x_max":1060,"o":"m 368 1081 l 368 1182 l 743 1182 l 743 1081 l 368 1081 m 913 129 q 840 56 913 129 q 556 -18 767 -18 q 199 129 344 -18 q 53 486 53 276 q 199 844 53 697 q 556 990 344 990 q 913 844 767 990 q 1060 486 1060 697 q 913 129 1060 276 m 288 217 q 342 163 288 217 q 556 108 396 108 q 823 217 715 108 q 931 486 931 326 q 823 756 931 647 q 556 865 715 865 q 288 756 396 865 q 181 486 181 647 q 288 217 181 326 z "},"ō":{"ha":836,"x_min":53,"x_max":785,"o":"m 231 803 l 231 904 l 606 904 l 606 803 l 231 803 m 678 88 q 624 35 678 88 q 418 -18 571 -18 q 159 88 265 -18 q 53 347 53 193 q 159 607 53 501 q 418 713 265 713 q 678 607 571 713 q 785 347 785 501 q 678 88 785 193 m 418 100 q 593 171 522 100 q 664 347 664 242 q 593 524 664 453 q 418 594 522 594 q 244 524 315 594 q 174 347 174 453 q 244 171 174 242 q 418 100 315 100 z "},"Ő":{"ha":1111,"x_min":53,"x_max":1060,"o":"m 354 1067 l 476 1067 l 586 1251 l 456 1251 l 354 1067 m 567 1067 l 689 1067 l 813 1251 l 682 1251 l 567 1067 m 913 129 q 840 56 913 129 q 556 -18 767 -18 q 199 129 344 -18 q 53 486 53 276 q 199 844 53 697 q 556 990 344 990 q 913 844 767 990 q 1060 486 1060 697 q 913 129 1060 276 m 288 217 q 342 163 288 217 q 556 108 396 108 q 823 217 715 108 q 931 486 931 326 q 823 756 931 647 q 556 865 715 865 q 288 756 396 865 q 181 486 181 647 q 288 217 181 326 z "},"ő":{"ha":836,"x_min":53,"x_max":785,"o":"m 217 789 l 339 789 l 449 974 l 318 974 l 217 789 m 429 789 l 551 789 l 675 974 l 544 974 l 429 789 m 678 88 q 624 35 678 88 q 418 -18 571 -18 q 159 88 265 -18 q 53 347 53 193 q 159 607 53 501 q 418 713 265 713 q 678 607 571 713 q 785 347 785 501 q 678 88 785 193 m 418 100 q 593 171 522 100 q 664 347 664 242 q 593 524 664 453 q 418 594 522 594 q 244 524 315 594 q 174 347 174 453 q 244 171 174 242 q 418 100 315 100 z "},"Œ":{"ha":1271,"x_min":53,"x_max":1219,"o":"m 803 122 l 1219 122 l 1219 0 l 674 0 q 542 -18 608 -18 q 192 128 332 -18 q 53 486 53 275 q 192 844 53 699 q 542 990 332 990 q 674 972 608 990 l 1213 972 l 1213 850 l 803 850 l 803 551 l 1188 551 l 1188 431 l 803 431 l 803 122 m 674 129 l 674 844 q 542 865 614 865 q 282 757 383 865 q 181 486 181 649 q 282 217 181 325 q 542 108 383 108 q 674 129 618 108 z "},"œ":{"ha":1421,"x_min":53,"x_max":1374,"o":"m 788 292 q 872 147 804 199 q 1036 96 940 96 q 1239 197 1176 96 l 1342 139 q 1217 24 1294 65 q 1039 -18 1139 -18 q 847 32 929 -18 q 724 169 765 82 q 600 33 681 83 q 417 -18 519 -18 q 156 87 260 -18 q 53 347 53 192 q 156 608 53 503 q 417 713 260 713 q 600 662 519 713 q 724 525 681 611 q 845 662 765 611 q 1032 713 925 713 q 1278 605 1183 713 q 1374 346 1374 497 q 1369 292 1374 319 l 788 292 m 1028 599 q 867 544 932 599 q 788 399 803 490 l 1251 399 q 1174 547 1236 496 q 1028 599 1111 599 m 418 100 q 593 171 522 100 q 664 347 664 242 q 593 524 664 453 q 418 594 522 594 q 242 524 311 594 q 174 347 174 453 q 242 171 174 242 q 418 100 311 100 z "},"Ŕ":{"ha":849,"x_min":104,"x_max":824,"o":"m 597 1250 l 457 1067 l 340 1067 l 451 1250 l 597 1250 m 681 0 l 463 372 l 233 372 l 233 0 l 104 0 l 104 972 l 493 972 q 707 884 618 972 q 796 671 796 796 q 740 499 796 576 q 594 389 683 421 l 824 0 l 681 0 m 233 851 l 233 489 l 493 489 q 616 542 565 489 q 667 671 667 596 q 616 799 667 746 q 493 851 565 851 l 233 851 z "},"ŕ":{"ha":456,"x_min":92,"x_max":432,"o":"m 432 972 l 292 789 l 175 789 l 286 972 l 432 972 m 213 578 q 429 707 272 707 l 429 581 q 276 533 340 585 q 213 368 213 482 l 213 0 l 92 0 l 92 694 l 213 694 l 213 578 z "},"Ŗ":{"ha":849,"x_min":104,"x_max":824,"o":"m 594 389 l 824 0 l 681 0 l 463 372 l 233 372 l 233 0 l 104 0 l 104 972 l 493 972 q 707 884 618 972 q 796 671 796 796 q 740 499 796 576 q 594 389 683 421 m 233 851 l 233 489 l 493 489 q 616 542 565 489 q 667 671 667 596 q 616 799 667 746 q 493 851 565 851 l 233 851 m 386 -344 l 400 -94 l 518 -94 l 476 -344 l 386 -344 z "},"ŗ":{"ha":456,"x_min":82,"x_max":429,"o":"m 213 578 q 429 707 272 707 l 429 581 q 276 533 340 585 q 213 368 213 482 l 213 0 l 92 0 l 92 694 l 213 694 l 213 578 m 82 -344 l 96 -94 l 214 -94 l 172 -344 l 82 -344 z "},"Ř":{"ha":849,"x_min":104,"x_max":824,"o":"m 356 1063 l 208 1250 l 338 1250 l 422 1138 l 507 1250 l 636 1250 l 489 1063 l 356 1063 m 681 0 l 463 372 l 233 372 l 233 0 l 104 0 l 104 972 l 493 972 q 707 884 618 972 q 796 671 796 796 q 740 499 796 576 q 594 389 683 421 l 824 0 l 681 0 m 233 851 l 233 489 l 493 489 q 616 542 565 489 q 667 671 667 596 q 616 799 667 746 q 493 851 565 851 l 233 851 z "},"ř":{"ha":456,"x_min":43,"x_max":471,"o":"m 190 785 l 43 972 l 172 972 l 257 860 l 342 972 l 471 972 l 324 785 l 190 785 m 213 578 q 429 707 272 707 l 429 581 q 276 533 340 585 q 213 368 213 482 l 213 0 l 92 0 l 92 694 l 213 694 l 213 578 z "},"Ś":{"ha":803,"x_min":50,"x_max":754,"o":"m 314 1071 l 431 1071 l 571 1254 l 425 1254 l 314 1071 m 418 -18 q 185 46 282 -18 q 50 221 89 110 l 161 285 q 421 108 218 108 q 574 149 521 108 q 626 258 626 190 q 574 363 626 328 q 397 436 521 397 q 304 467 336 456 q 224 503 272 479 q 153 553 176 528 q 110 621 129 579 q 92 715 92 663 q 181 916 92 842 q 397 990 269 990 q 598 932 513 990 q 726 778 683 874 l 618 715 q 397 865 556 865 q 269 826 318 865 q 221 721 221 788 q 267 624 221 657 q 425 554 313 590 q 482 536 465 542 q 534 517 499 531 q 586 494 569 503 q 631 471 603 486 q 674 442 660 456 q 706 408 688 428 q 733 367 725 388 q 748 319 742 346 q 754 261 754 292 q 661 58 754 133 q 418 -18 568 -18 z "},"ś":{"ha":636,"x_min":49,"x_max":585,"o":"m 493 976 l 353 793 l 236 793 l 347 976 l 493 976 m 196 507 q 236 442 196 467 q 333 403 276 418 q 447 370 390 389 q 544 306 504 351 q 585 190 585 261 q 512 39 585 96 q 325 -18 439 -18 q 151 26 224 -18 q 49 144 79 71 l 153 204 q 215 125 169 154 q 325 96 261 96 q 424 119 385 96 q 463 190 463 142 q 422 255 463 231 q 325 294 382 279 q 211 328 268 308 q 114 392 154 347 q 74 506 74 436 q 144 654 74 596 q 319 713 214 713 q 470 674 404 713 q 569 568 536 636 l 468 511 q 319 600 431 600 q 232 576 268 600 q 196 507 196 551 z "},"Ş":{"ha":803,"x_min":50,"x_max":754,"o":"m 754 261 q 674 69 754 143 q 460 -17 593 -6 l 460 -62 q 545 -103 513 -74 q 578 -174 578 -132 q 286 -300 578 -317 l 286 -208 q 472 -165 472 -222 q 357 -115 472 -122 l 357 -14 q 164 61 243 0 q 50 221 85 122 l 161 285 q 421 108 218 108 q 574 149 521 108 q 626 258 626 190 q 574 363 626 328 q 397 436 521 397 q 304 467 336 456 q 224 503 272 479 q 153 553 176 528 q 110 621 129 579 q 92 715 92 663 q 181 916 92 842 q 397 990 269 990 q 598 932 513 990 q 726 778 683 874 l 618 715 q 397 865 556 865 q 269 826 318 865 q 221 721 221 788 q 267 624 221 657 q 425 554 313 590 q 482 536 465 542 q 534 517 499 531 q 586 494 569 503 q 631 471 603 486 q 674 442 660 456 q 706 408 688 428 q 733 367 725 388 q 748 319 742 346 q 754 261 754 292 z "},"ş":{"ha":636,"x_min":49,"x_max":585,"o":"m 585 190 q 528 52 585 107 q 376 -15 471 -3 l 376 -62 q 462 -103 429 -74 q 494 -174 494 -132 q 203 -300 494 -317 l 203 -208 q 389 -165 389 -222 q 274 -115 389 -122 l 274 -15 q 49 144 106 8 l 153 204 q 215 125 169 154 q 325 96 261 96 q 424 119 385 96 q 463 190 463 142 q 422 255 463 231 q 325 294 382 279 q 211 328 268 308 q 114 392 154 347 q 74 506 74 436 q 144 654 74 596 q 319 713 214 713 q 470 674 404 713 q 569 568 536 636 l 468 511 q 319 600 431 600 q 232 576 268 600 q 196 507 196 551 q 236 442 196 467 q 333 403 276 418 q 447 370 390 389 q 544 306 504 351 q 585 190 585 261 z "},"Š":{"ha":803,"x_min":50,"x_max":754,"o":"m 329 1067 l 182 1254 l 311 1254 l 396 1142 l 481 1254 l 610 1254 l 463 1067 l 329 1067 m 425 554 q 482 536 465 542 q 534 517 499 531 q 586 494 569 503 q 631 471 603 486 q 674 442 660 456 q 706 408 688 428 q 733 367 725 388 q 748 319 742 346 q 754 261 754 292 q 661 58 754 133 q 418 -18 568 -18 q 185 46 282 -18 q 50 221 89 110 l 161 285 q 421 108 218 108 q 574 149 521 108 q 626 258 626 190 q 574 363 626 328 q 397 436 521 397 q 304 467 336 456 q 224 503 272 479 q 153 553 176 528 q 110 621 129 579 q 92 715 92 663 q 181 916 92 842 q 397 990 269 990 q 598 932 513 990 q 726 778 683 874 l 618 715 q 397 865 556 865 q 269 826 318 865 q 221 721 221 788 q 267 624 221 657 q 425 554 313 590 z "},"š":{"ha":636,"x_min":49,"x_max":585,"o":"m 251 789 l 104 976 l 233 976 l 318 864 l 403 976 l 532 976 l 385 789 l 251 789 m 196 507 q 236 442 196 467 q 333 403 276 418 q 447 370 390 389 q 544 306 504 351 q 585 190 585 261 q 512 39 585 96 q 325 -18 439 -18 q 151 26 224 -18 q 49 144 79 71 l 153 204 q 215 125 169 154 q 325 96 261 96 q 424 119 385 96 q 463 190 463 142 q 422 255 463 231 q 325 294 382 279 q 211 328 268 308 q 114 392 154 347 q 74 506 74 436 q 144 654 74 596 q 319 713 214 713 q 470 674 404 713 q 569 568 536 636 l 468 511 q 319 600 431 600 q 232 576 268 600 q 196 507 196 551 z "},"Ţ":{"ha":750,"x_min":25,"x_max":726,"o":"m 726 972 l 726 850 l 439 850 l 439 0 l 311 0 l 311 850 l 25 850 l 25 972 l 726 972 m 306 -344 l 319 -94 l 438 -94 l 396 -344 l 306 -344 z "},"ţ":{"ha":525,"x_min":26,"x_max":469,"o":"m 469 578 l 285 578 l 285 201 q 305 128 285 150 q 367 106 325 107 q 469 108 408 106 l 469 0 q 238 26 311 -21 q 164 201 164 72 l 164 578 l 26 578 l 26 694 l 164 694 l 164 853 l 285 889 l 285 694 l 469 694 l 469 578 m 254 -344 l 268 -94 l 386 -94 l 344 -344 l 254 -344 z "},"Ť":{"ha":750,"x_min":25,"x_max":726,"o":"m 307 1063 l 160 1250 l 289 1250 l 374 1138 l 458 1250 l 588 1250 l 440 1063 l 307 1063 m 726 972 l 726 850 l 439 850 l 439 0 l 311 0 l 311 850 l 25 850 l 25 972 l 726 972 z "},"ť":{"ha":535,"x_min":26,"x_max":488,"o":"m 488 999 l 446 765 l 356 765 l 369 999 l 488 999 m 285 889 l 285 694 l 469 694 l 469 578 l 285 578 l 285 201 q 305 128 285 150 q 367 106 325 107 q 469 108 408 106 l 469 0 q 238 26 311 -21 q 164 201 164 72 l 164 578 l 26 578 l 26 694 l 164 694 l 164 853 l 285 889 z "},"Ŧ":{"ha":750,"x_min":25,"x_max":726,"o":"m 726 850 l 439 850 l 439 542 l 629 542 l 629 425 l 439 425 l 439 0 l 311 0 l 311 425 l 122 425 l 122 542 l 311 542 l 311 850 l 25 850 l 25 972 l 726 972 l 726 850 z "},"ŧ":{"ha":525,"x_min":26,"x_max":469,"o":"m 469 578 l 285 578 l 285 406 l 411 406 l 411 308 l 285 308 l 285 201 q 305 128 285 150 q 367 106 325 107 q 469 108 408 106 l 469 0 q 238 26 311 -21 q 164 201 164 72 l 164 308 l 75 308 l 75 406 l 164 406 l 164 578 l 26 578 l 26 694 l 164 694 l 164 853 l 285 889 l 285 694 l 469 694 l 469 578 z "},"Ū":{"ha":914,"x_min":92,"x_max":821,"o":"m 269 1076 l 269 1178 l 644 1178 l 644 1076 l 269 1076 m 719 76 q 669 29 719 76 q 457 -18 618 -18 q 194 76 296 -18 q 92 326 92 169 l 92 972 l 221 972 l 221 332 q 282 169 221 229 q 457 108 343 108 q 632 169 571 108 q 693 332 693 229 l 693 972 l 821 972 l 821 326 q 719 76 821 169 z "},"ū":{"ha":783,"x_min":76,"x_max":692,"o":"m 569 900 l 569 799 l 194 799 l 194 900 l 569 900 m 571 694 l 692 694 l 692 0 l 571 0 l 571 100 q 346 -18 497 -18 q 150 59 224 -18 q 76 268 76 136 l 76 694 l 197 694 l 197 275 q 243 144 197 190 q 369 97 289 97 q 515 153 460 97 q 571 326 571 210 l 571 694 z "},"Ů":{"ha":914,"x_min":92,"x_max":821,"o":"m 570 1037 q 548 1016 570 1037 q 457 994 526 994 q 344 1037 388 994 q 300 1143 300 1079 q 344 1249 300 1207 q 457 1290 388 1290 q 570 1249 526 1290 q 614 1143 614 1207 q 570 1037 614 1079 m 457 1079 q 506 1097 489 1079 q 524 1143 524 1115 q 506 1188 524 1171 q 457 1206 489 1206 q 409 1188 426 1206 q 392 1143 392 1169 q 409 1097 392 1115 q 457 1079 426 1079 m 719 76 q 669 29 719 76 q 457 -18 618 -18 q 194 76 296 -18 q 92 326 92 169 l 92 972 l 221 972 l 221 332 q 282 169 221 229 q 457 108 343 108 q 632 169 571 108 q 693 332 693 229 l 693 972 l 821 972 l 821 326 q 719 76 821 169 z "},"ů":{"ha":783,"x_min":76,"x_max":692,"o":"m 495 801 q 473 780 495 801 q 382 758 451 758 q 269 801 313 758 q 225 907 225 843 q 269 1013 225 971 q 382 1054 313 1054 q 495 1013 451 1054 q 539 907 539 971 q 495 801 539 843 m 382 969 q 334 951 351 969 q 317 907 317 933 q 334 861 317 879 q 382 843 351 843 q 431 861 414 843 q 449 907 449 879 q 431 952 449 935 q 382 969 414 969 m 571 694 l 692 694 l 692 0 l 571 0 l 571 100 q 346 -18 497 -18 q 150 59 224 -18 q 76 268 76 136 l 76 694 l 197 694 l 197 275 q 243 144 197 190 q 369 97 289 97 q 515 153 460 97 q 571 326 571 210 l 571 694 z "},"Ű":{"ha":914,"x_min":92,"x_max":821,"o":"m 256 1063 l 378 1063 l 488 1247 l 357 1247 l 256 1063 m 468 1063 l 590 1063 l 714 1247 l 583 1247 l 468 1063 m 719 76 q 669 29 719 76 q 457 -18 618 -18 q 194 76 296 -18 q 92 326 92 169 l 92 972 l 221 972 l 221 332 q 282 169 221 229 q 457 108 343 108 q 632 169 571 108 q 693 332 693 229 l 693 972 l 821 972 l 821 326 q 719 76 821 169 z "},"ű":{"ha":783,"x_min":76,"x_max":692,"o":"m 413 969 l 303 785 l 181 785 l 282 969 l 413 969 m 515 785 l 393 785 l 508 969 l 639 969 l 515 785 m 571 694 l 692 694 l 692 0 l 571 0 l 571 100 q 346 -18 497 -18 q 150 59 224 -18 q 76 268 76 136 l 76 694 l 197 694 l 197 275 q 243 144 197 190 q 369 97 289 97 q 515 153 460 97 q 571 326 571 210 l 571 694 z "},"Ų":{"ha":914,"x_min":92,"x_max":821,"o":"m 693 972 l 821 972 l 821 326 q 694 56 821 151 q 576 -69 610 -24 q 543 -158 543 -115 q 553 -190 542 -179 q 586 -200 564 -200 q 638 -189 614 -200 l 638 -278 q 546 -296 593 -296 q 457 -266 489 -296 q 425 -185 425 -236 q 507 -15 425 -106 q 457 -18 476 -18 q 194 76 296 -18 q 92 326 92 169 l 92 972 l 221 972 l 221 332 q 282 169 221 229 q 457 108 343 108 q 632 169 571 108 q 693 332 693 229 l 693 972 z "},"ų":{"ha":783,"x_min":76,"x_max":692,"o":"m 692 0 q 597 -158 597 -90 q 640 -200 597 -200 q 692 -189 668 -200 l 692 -278 q 600 -296 649 -296 q 512 -266 544 -296 q 479 -185 479 -236 q 571 1 479 -111 l 571 100 q 346 -18 497 -18 q 150 59 224 -18 q 76 268 76 136 l 76 694 l 197 694 l 197 275 q 243 144 197 190 q 369 97 289 97 q 515 153 460 97 q 571 326 571 210 l 571 694 l 692 694 l 692 0 z "},"Ŵ":{"ha":1389,"x_min":35,"x_max":1354,"o":"m 707 1175 l 622 1063 l 493 1063 l 640 1250 l 774 1250 l 921 1063 l 792 1063 l 707 1175 m 1218 972 l 1354 972 l 1075 0 l 925 0 l 694 776 l 464 0 l 314 0 l 35 972 l 171 972 l 393 172 l 629 972 l 760 972 l 996 172 l 1218 972 z "},"ŵ":{"ha":1069,"x_min":33,"x_max":1036,"o":"m 533 897 l 449 785 l 319 785 l 467 972 l 600 972 l 747 785 l 618 785 l 533 897 m 910 694 l 1036 694 l 821 0 l 697 0 l 535 514 l 372 0 l 249 0 l 33 694 l 160 694 l 313 167 l 476 694 l 593 694 l 757 165 l 910 694 z "},"Ŷ":{"ha":839,"x_min":11,"x_max":828,"o":"m 414 1175 l 329 1063 l 200 1063 l 347 1250 l 481 1250 l 628 1063 l 499 1063 l 414 1175 m 828 972 l 483 393 l 483 0 l 354 0 l 354 394 l 11 972 l 156 972 l 419 517 l 683 972 l 828 972 z "},"ŷ":{"ha":715,"x_min":11,"x_max":706,"o":"m 354 897 l 269 785 l 140 785 l 288 972 l 421 972 l 568 785 l 439 785 l 354 897 m 576 694 l 706 694 l 422 -43 q 298 -223 378 -161 q 114 -278 218 -285 l 114 -165 q 301 -24 242 -175 l 314 3 l 11 694 l 140 694 l 376 150 l 576 694 z "},"Ÿ":{"ha":839,"x_min":11,"x_max":828,"o":"m 335 1085 q 324 1075 335 1085 q 283 1064 314 1064 q 231 1085 253 1064 q 210 1138 210 1107 q 231 1189 210 1168 q 283 1210 253 1210 q 335 1189 314 1210 q 356 1138 356 1168 q 335 1085 356 1107 m 599 1085 q 588 1075 599 1085 q 547 1064 578 1064 q 495 1085 517 1064 q 474 1138 474 1107 q 495 1189 474 1168 q 547 1210 517 1210 q 599 1189 578 1210 q 619 1138 619 1168 q 599 1085 619 1107 m 828 972 l 483 393 l 483 0 l 354 0 l 354 394 l 11 972 l 156 972 l 419 517 l 683 972 l 828 972 z "},"Ź":{"ha":729,"x_min":54,"x_max":689,"o":"m 546 1250 l 406 1067 l 289 1067 l 400 1250 l 546 1250 m 207 122 l 689 122 l 689 0 l 54 0 l 54 113 l 524 850 l 67 850 l 67 972 l 678 972 l 678 861 l 207 122 z "},"ź":{"ha":654,"x_min":67,"x_max":601,"o":"m 510 972 l 369 789 l 253 789 l 364 972 l 510 972 m 232 115 l 601 115 l 601 0 l 67 0 l 67 81 l 421 579 l 81 579 l 81 694 l 588 694 l 588 614 l 232 115 z "},"Ż":{"ha":729,"x_min":54,"x_max":689,"o":"m 433 1086 q 421 1074 433 1086 q 372 1061 408 1061 q 310 1086 336 1061 q 285 1147 285 1111 q 310 1209 285 1183 q 372 1235 336 1235 q 433 1209 408 1235 q 458 1147 458 1183 q 433 1086 458 1111 m 207 122 l 689 122 l 689 0 l 54 0 l 54 113 l 524 850 l 67 850 l 67 972 l 678 972 l 678 861 l 207 122 z "},"ż":{"ha":654,"x_min":67,"x_max":601,"o":"m 397 808 q 385 796 397 808 q 336 783 372 783 q 274 808 300 783 q 249 869 249 833 q 274 931 249 906 q 336 957 300 957 q 397 931 372 957 q 422 869 422 906 q 397 808 422 833 m 232 115 l 601 115 l 601 0 l 67 0 l 67 81 l 421 579 l 81 579 l 81 694 l 588 694 l 588 614 l 232 115 z "},"Ž":{"ha":729,"x_min":54,"x_max":689,"o":"m 304 1063 l 157 1250 l 286 1250 l 371 1138 l 456 1250 l 585 1250 l 438 1063 l 304 1063 m 207 122 l 689 122 l 689 0 l 54 0 l 54 113 l 524 850 l 67 850 l 67 972 l 678 972 l 678 861 l 207 122 z "},"ž":{"ha":654,"x_min":67,"x_max":601,"o":"m 268 785 l 121 972 l 250 972 l 335 860 l 419 972 l 549 972 l 401 785 l 268 785 m 232 115 l 601 115 l 601 0 l 67 0 l 67 81 l 421 579 l 81 579 l 81 694 l 588 694 l 588 614 l 232 115 z "},"ƒ":{"ha":611,"x_min":0,"x_max":611,"o":"m 611 858 q 498 862 546 886 q 439 769 450 838 l 400 546 l 549 546 l 549 429 l 381 429 l 293 -83 q 192 -262 272 -214 q 0 -279 113 -311 l 0 -161 q 113 -163 65 -187 q 172 -72 161 -139 l 258 429 l 118 429 l 118 546 l 278 546 l 318 781 q 419 960 339 911 q 611 978 499 1010 l 611 858 z "},"Ș":{"ha":803,"x_min":50,"x_max":754,"o":"m 418 -18 q 185 46 282 -18 q 50 221 89 110 l 161 285 q 421 108 218 108 q 574 149 521 108 q 626 258 626 190 q 574 363 626 328 q 397 436 521 397 q 304 467 336 456 q 224 503 272 479 q 153 553 176 528 q 110 621 129 579 q 92 715 92 663 q 181 916 92 842 q 397 990 269 990 q 598 932 513 990 q 726 778 683 874 l 618 715 q 397 865 556 865 q 269 826 318 865 q 221 721 221 788 q 267 624 221 657 q 425 554 313 590 q 482 536 465 542 q 534 517 499 531 q 586 494 569 503 q 631 471 603 486 q 674 442 660 456 q 706 408 688 428 q 733 367 725 388 q 748 319 742 346 q 754 261 754 292 q 661 58 754 133 q 418 -18 568 -18 m 444 -344 l 486 -94 l 368 -94 l 354 -344 l 444 -344 z "},"ș":{"ha":636,"x_min":49,"x_max":585,"o":"m 196 507 q 236 442 196 467 q 333 403 276 418 q 447 370 390 389 q 544 306 504 351 q 585 190 585 261 q 512 39 585 96 q 325 -18 439 -18 q 151 26 224 -18 q 49 144 79 71 l 153 204 q 215 125 169 154 q 325 96 261 96 q 424 119 385 96 q 463 190 463 142 q 422 255 463 231 q 325 294 382 279 q 211 328 268 308 q 114 392 154 347 q 74 506 74 436 q 144 654 74 596 q 319 713 214 713 q 470 674 404 713 q 569 568 536 636 l 468 511 q 319 600 431 600 q 232 576 268 600 q 196 507 196 551 m 271 -344 l 285 -94 l 403 -94 l 361 -344 l 271 -344 z "},"Ț":{"ha":750,"x_min":25,"x_max":726,"o":"m 726 972 l 726 850 l 439 850 l 439 0 l 311 0 l 311 850 l 25 850 l 25 972 l 726 972 m 306 -344 l 319 -94 l 438 -94 l 396 -344 l 306 -344 z "},"ț":{"ha":525,"x_min":26,"x_max":469,"o":"m 469 578 l 285 578 l 285 201 q 305 128 285 150 q 367 106 325 107 q 469 108 408 106 l 469 0 q 238 26 311 -21 q 164 201 164 72 l 164 578 l 26 578 l 26 694 l 164 694 l 164 853 l 285 889 l 285 694 l 469 694 l 469 578 m 254 -344 l 268 -94 l 386 -94 l 344 -344 l 254 -344 z "},"ˆ":{"ha":483,"x_min":28,"x_max":456,"o":"m 456 785 l 326 785 l 242 897 l 157 785 l 28 785 l 175 972 l 308 972 l 456 785 z "},"ˇ":{"ha":483,"x_min":28,"x_max":456,"o":"m 326 972 l 456 972 l 308 785 l 175 785 l 28 972 l 157 972 l 242 860 l 326 972 z "},"˘":{"ha":469,"x_min":28,"x_max":442,"o":"m 235 774 q 83 823 139 774 q 28 961 28 872 l 140 961 q 235 871 140 871 q 329 961 329 871 l 442 961 q 387 823 442 872 q 235 774 332 774 z "},"˙":{"ha":233,"x_min":28,"x_max":201,"o":"m 115 783 q 53 808 79 783 q 28 869 28 833 q 53 931 28 906 q 115 957 79 957 q 176 931 151 957 q 201 869 201 906 q 176 808 201 833 q 115 783 150 783 z "},"˚":{"ha":369,"x_min":28,"x_max":342,"o":"m 298 801 q 276 780 298 801 q 185 758 254 758 q 72 801 115 758 q 28 907 28 843 q 72 1013 28 971 q 185 1054 115 1054 q 298 1013 254 1054 q 342 907 342 971 q 298 801 342 843 m 185 843 q 234 861 217 843 q 251 907 251 879 q 234 952 251 935 q 185 969 217 969 q 137 951 154 969 q 119 907 119 933 q 137 861 119 879 q 185 843 154 843 z "},"˛":{"ha":268,"x_min":28,"x_max":240,"o":"m 149 -296 q 60 -266 92 -296 q 28 -185 28 -236 q 125 0 28 -97 l 240 0 q 146 -158 146 -90 q 156 -190 144 -179 q 189 -200 167 -200 q 240 -189 217 -200 l 240 -278 q 149 -296 194 -296 z "},"˜":{"ha":472,"x_min":29,"x_max":444,"o":"m 29 796 q 62 930 29 885 q 142 973 94 975 q 243 933 190 971 q 319 895 294 892 q 343 965 343 899 l 444 965 q 413 832 444 876 q 333 790 381 788 q 231 829 285 792 q 156 867 181 871 q 131 796 131 864 l 29 796 z "},"˝":{"ha":514,"x_min":28,"x_max":486,"o":"m 28 785 l 150 785 l 260 969 l 129 969 l 28 785 m 240 785 l 363 785 l 486 969 l 356 969 l 240 785 z "},"̀":{"ha":0,"x_min":-285,"x_max":-28,"o":"m -28 789 l -139 972 l -285 972 l -144 789 l -28 789 z "},"́":{"ha":0,"x_min":-285,"x_max":-28,"o":"m -285 789 l -168 789 l -28 972 l -174 972 l -285 789 z "},"̂":{"ha":0,"x_min":-456,"x_max":-28,"o":"m -28 785 l -157 785 l -242 897 l -326 785 l -456 785 l -308 972 l -175 972 l -28 785 z "},"̃":{"ha":0,"x_min":-440,"x_max":-25,"o":"m -440 796 q -408 930 -440 885 q -327 973 -375 975 q -226 933 -279 971 q -151 895 -175 892 q -126 965 -126 899 l -25 965 q -57 832 -25 876 q -137 790 -89 788 q -239 829 -185 792 q -314 867 -289 871 q -339 796 -339 864 l -440 796 z "},"̄":{"ha":0,"x_min":-403,"x_max":-28,"o":"m -403 799 l -403 900 l -28 900 l -28 799 l -403 799 z "},"̆":{"ha":0,"x_min":-442,"x_max":-28,"o":"m -235 774 q -386 823 -331 774 q -442 961 -442 872 l -329 961 q -235 871 -329 871 q -140 961 -140 871 l -28 961 q -83 823 -28 872 q -235 774 -137 774 z "},"̇":{"ha":0,"x_min":-201,"x_max":-28,"o":"m -53 808 q -65 796 -53 808 q -114 783 -78 783 q -176 808 -150 783 q -201 869 -201 833 q -176 931 -201 906 q -114 957 -150 957 q -53 931 -78 957 q -28 869 -28 906 q -53 808 -28 833 z "},"̈":{"ha":0,"x_min":-437,"x_max":-28,"o":"m -312 808 q -323 797 -312 808 q -364 786 -333 786 q -416 808 -394 786 q -437 860 -437 829 q -416 911 -437 890 q -364 932 -394 932 q -312 911 -333 932 q -292 860 -292 890 q -312 808 -292 829 m -49 808 q -59 797 -49 808 q -100 786 -69 786 q -152 808 -131 786 q -174 860 -174 829 q -152 911 -174 890 q -100 932 -131 932 q -49 911 -69 932 q -28 860 -28 890 q -49 808 -28 829 z "},"̊":{"ha":0,"x_min":-343,"x_max":-29,"o":"m -73 801 q -95 780 -73 801 q -186 758 -117 758 q -299 801 -256 758 q -343 907 -343 843 q -299 1013 -343 971 q -186 1054 -256 1054 q -73 1013 -117 1054 q -29 907 -29 971 q -73 801 -29 843 m -186 843 q -137 861 -154 843 q -119 907 -119 879 q -137 952 -119 935 q -186 969 -154 969 q -234 951 -217 969 q -251 907 -251 933 q -234 861 -251 879 q -186 843 -217 843 z "},"̋":{"ha":0,"x_min":-486,"x_max":-28,"o":"m -486 785 l -364 785 l -254 969 l -385 969 l -486 785 m -274 785 l -151 785 l -28 969 l -158 969 l -274 785 z "},"̌":{"ha":0,"x_min":-456,"x_max":-28,"o":"m -157 972 l -28 972 l -175 785 l -308 785 l -456 972 l -326 972 l -242 860 l -157 972 z "},"̒":{"ha":0,"x_min":-160,"x_max":-28,"o":"m -118 1340 l -160 1090 l -42 1090 l -28 1340 l -118 1340 z "},"̦":{"ha":0,"x_min":-160,"x_max":-28,"o":"m -69 -344 l -28 -94 l -146 -94 l -160 -344 l -69 -344 z "},"̧":{"ha":0,"x_min":-319,"x_max":-28,"o":"m -146 -62 q -60 -103 -93 -74 q -28 -174 -28 -132 q -319 -300 -28 -317 l -319 -208 q -133 -165 -133 -222 q -249 -115 -133 -122 l -249 0 l -146 0 l -146 -62 z "},"̨":{"ha":0,"x_min":-243,"x_max":-31,"o":"m -122 -296 q -211 -266 -179 -296 q -243 -185 -243 -236 q -146 0 -243 -97 l -31 0 q -125 -158 -125 -90 q -115 -190 -126 -179 q -82 -200 -104 -200 q -31 -189 -54 -200 l -31 -278 q -122 -296 -76 -296 z "},"Δ":{"ha":886,"x_min":11,"x_max":875,"o":"m 515 972 l 875 0 l 11 0 l 369 972 l 515 972 m 192 121 l 694 121 l 443 821 l 192 121 z "},"Ω":{"ha":1104,"x_min":49,"x_max":1056,"o":"m 1056 493 q 1006 281 1056 378 q 868 122 956 185 l 1039 122 l 1039 0 l 657 0 l 657 122 q 852 256 776 156 q 928 486 928 356 q 820 756 928 647 q 553 865 713 865 q 285 756 393 865 q 178 486 178 647 q 252 255 178 354 q 447 122 326 156 l 447 0 l 67 0 l 67 122 l 236 122 q 99 281 149 185 q 49 493 49 378 q 194 846 49 701 q 553 990 340 990 q 910 846 764 990 q 1056 493 1056 701 z "},"π":{"ha":910,"x_min":39,"x_max":872,"o":"m 872 694 l 872 579 l 758 579 l 758 0 l 638 0 l 638 579 l 278 579 l 278 0 l 157 0 l 157 579 l 39 579 l 39 694 l 872 694 z "},"Ё":{"ha":736,"x_min":104,"x_max":685,"o":"m 311 1085 q 301 1075 311 1085 q 260 1064 290 1064 q 208 1085 229 1064 q 186 1138 186 1107 q 208 1189 186 1168 q 260 1210 229 1210 q 311 1189 290 1210 q 332 1138 332 1168 q 311 1085 332 1107 m 575 1085 q 565 1075 575 1085 q 524 1064 554 1064 q 472 1085 493 1064 q 450 1138 450 1107 q 472 1189 450 1168 q 524 1210 493 1210 q 575 1189 554 1210 q 596 1138 596 1168 q 575 1085 596 1107 m 233 122 l 685 122 l 685 0 l 104 0 l 104 972 l 678 972 l 678 850 l 233 850 l 233 551 l 643 551 l 643 431 l 233 431 l 233 122 z "},"Ђ":{"ha":972,"x_min":25,"x_max":889,"o":"m 626 653 q 817 585 744 653 q 889 386 889 517 l 889 242 q 821 42 889 107 q 621 -12 753 -22 l 621 107 q 728 131 696 100 q 760 242 760 163 l 760 381 q 614 536 760 536 q 415 497 515 536 l 415 0 l 286 0 l 286 850 l 25 850 l 25 972 l 715 972 l 715 850 l 415 850 l 415 611 q 626 653 515 653 z "},"Ѓ":{"ha":674,"x_min":104,"x_max":650,"o":"m 554 1249 l 414 1065 l 297 1065 l 408 1249 l 554 1249 m 650 972 l 650 850 l 233 850 l 233 0 l 104 0 l 104 972 l 650 972 z "},"Є":{"ha":1021,"x_min":53,"x_max":975,"o":"m 556 108 q 739 156 656 108 q 863 283 822 204 l 975 219 q 803 47 915 111 q 556 -18 690 -18 q 194 128 336 -18 q 53 486 53 274 q 194 845 53 700 q 556 990 336 990 q 801 926 689 990 q 975 754 914 863 l 863 689 q 738 817 821 769 q 556 865 656 865 q 304 776 404 865 q 185 547 204 688 l 685 547 l 685 426 l 185 426 q 304 197 204 286 q 556 108 404 108 z "},"Ѕ":{"ha":803,"x_min":50,"x_max":754,"o":"m 418 -18 q 185 46 282 -18 q 50 221 89 110 l 161 285 q 421 108 218 108 q 574 149 521 108 q 626 258 626 190 q 574 363 626 328 q 397 436 521 397 q 304 467 336 456 q 224 503 272 479 q 153 553 176 528 q 110 621 129 579 q 92 715 92 663 q 181 916 92 842 q 397 990 269 990 q 598 932 513 990 q 726 778 683 874 l 618 715 q 397 865 556 865 q 269 826 318 865 q 221 721 221 788 q 267 624 221 657 q 425 554 313 590 q 482 536 465 542 q 534 517 499 531 q 586 494 569 503 q 631 471 603 486 q 674 442 660 456 q 706 408 688 428 q 733 367 725 388 q 748 319 742 346 q 754 261 754 292 q 661 58 754 133 q 418 -18 568 -18 z "},"І":{"ha":338,"x_min":104,"x_max":233,"o":"m 104 972 l 233 972 l 233 0 l 104 0 l 104 972 z "},"Ї":{"ha":338,"x_min":-37,"x_max":372,"o":"m 88 1085 q 77 1075 88 1085 q 36 1064 67 1064 q -16 1085 6 1064 q -37 1138 -37 1107 q -16 1189 -37 1168 q 36 1210 6 1210 q 88 1189 67 1210 q 108 1138 108 1168 q 88 1085 108 1107 m 351 1085 q 341 1075 351 1085 q 300 1064 331 1064 q 248 1085 269 1064 q 226 1138 226 1107 q 248 1189 226 1168 q 300 1210 269 1210 q 351 1189 331 1210 q 372 1138 372 1168 q 351 1085 372 1107 m 104 972 l 233 972 l 233 0 l 104 0 l 104 972 z "},"Ј":{"ha":775,"x_min":53,"x_max":683,"o":"m 357 -18 q 171 26 251 -18 q 53 156 90 71 l 163 219 q 357 108 206 108 q 503 153 450 108 q 556 285 556 197 l 556 972 l 683 972 l 683 285 q 591 60 683 139 q 357 -18 499 -18 z "},"Љ":{"ha":1367,"x_min":19,"x_max":1318,"o":"m 1014 574 q 1230 492 1142 574 q 1318 286 1318 410 q 1230 81 1318 163 q 1014 0 1142 0 l 689 0 l 689 850 l 340 850 l 340 421 q 316 202 340 290 q 247 69 292 114 q 147 8 201 24 q 19 -1 92 -8 l 19 115 q 163 170 115 103 q 211 421 211 238 l 211 972 l 818 972 l 818 574 l 1014 574 m 1014 121 q 1139 167 1089 121 q 1189 286 1189 213 q 1139 406 1189 360 q 1014 453 1089 453 l 818 453 l 818 121 l 1014 121 z "},"Њ":{"ha":1351,"x_min":104,"x_max":1303,"o":"m 999 574 q 1215 492 1126 574 q 1303 286 1303 410 q 1215 81 1303 163 q 999 0 1126 0 l 674 0 l 674 453 l 233 453 l 233 0 l 104 0 l 104 972 l 233 972 l 233 574 l 674 574 l 674 972 l 803 972 l 803 574 l 999 574 m 999 121 q 1124 167 1074 121 q 1174 286 1174 213 q 1123 406 1174 360 q 999 453 1072 453 l 803 453 l 803 121 l 999 121 z "},"Ћ":{"ha":979,"x_min":25,"x_max":889,"o":"m 626 653 q 817 585 744 653 q 889 386 889 517 l 889 0 l 760 0 l 760 381 q 614 536 760 536 q 415 497 515 536 l 415 0 l 286 0 l 286 850 l 25 850 l 25 972 l 715 972 l 715 850 l 415 850 l 415 611 q 626 653 515 653 z "},"Ќ":{"ha":822,"x_min":104,"x_max":811,"o":"m 582 1249 l 442 1065 l 325 1065 l 436 1249 l 582 1249 m 811 0 l 653 0 l 233 467 l 233 0 l 104 0 l 104 972 l 233 972 l 233 533 l 639 972 l 797 972 l 368 500 l 811 0 z "},"Ў":{"ha":806,"x_min":39,"x_max":792,"o":"m 597 1181 l 597 1075 l 222 1075 l 222 1181 l 597 1181 m 661 972 l 792 972 l 479 231 q 344 49 426 106 q 144 0 263 -7 l 144 119 q 275 143 225 111 q 358 253 325 175 l 368 275 l 39 972 l 169 972 l 428 417 l 661 972 z "},"Џ":{"ha":914,"x_min":104,"x_max":810,"o":"m 681 972 l 810 972 l 810 0 l 521 0 l 521 -186 l 393 -186 l 393 0 l 104 0 l 104 972 l 233 972 l 233 122 l 681 122 l 681 972 z "},"А":{"ha":893,"x_min":11,"x_max":882,"o":"m 744 0 l 665 218 l 228 218 l 149 0 l 11 0 l 374 972 l 519 972 l 882 0 l 744 0 m 272 339 l 621 339 l 446 818 l 272 339 z "},"Б":{"ha":813,"x_min":104,"x_max":771,"o":"m 469 590 q 683 505 596 590 q 771 296 771 419 q 684 85 771 169 q 469 0 597 0 l 104 0 l 104 972 l 688 972 l 688 850 l 233 850 l 233 590 l 469 590 m 469 121 q 592 171 542 121 q 643 296 643 221 q 592 419 643 369 q 469 469 542 469 l 233 469 l 233 121 l 469 121 z "},"В":{"ha":854,"x_min":104,"x_max":806,"o":"m 660 504 q 766 413 726 472 q 806 275 806 353 q 724 79 806 158 q 524 0 642 0 l 104 0 l 104 972 l 493 972 q 686 896 607 972 q 765 707 765 819 q 660 504 765 578 m 493 851 l 233 851 l 233 554 l 493 554 q 596 597 554 554 q 638 703 638 640 q 595 808 638 764 q 493 851 553 851 m 524 121 q 633 167 589 121 q 678 279 678 213 q 633 390 678 344 q 524 436 588 436 l 233 436 l 233 121 l 524 121 z "},"Г":{"ha":674,"x_min":104,"x_max":650,"o":"m 650 972 l 650 850 l 233 850 l 233 0 l 104 0 l 104 972 l 650 972 z "},"Д":{"ha":965,"x_min":21,"x_max":921,"o":"m 817 122 l 921 122 l 921 -186 l 792 -186 l 792 0 l 150 0 l 150 -186 l 21 -186 l 21 122 l 106 122 q 196 464 196 235 l 196 972 l 817 972 l 817 122 m 251 122 l 688 122 l 688 851 l 325 851 l 325 461 q 251 122 325 240 z "},"Е":{"ha":736,"x_min":104,"x_max":685,"o":"m 233 122 l 685 122 l 685 0 l 104 0 l 104 972 l 678 972 l 678 850 l 233 850 l 233 551 l 643 551 l 643 431 l 233 431 l 233 122 z "},"Ж":{"ha":1206,"x_min":25,"x_max":1182,"o":"m 1182 0 l 1035 0 l 667 467 l 667 0 l 539 0 l 539 467 l 171 0 l 25 0 l 414 497 l 39 972 l 185 972 l 539 526 l 539 972 l 667 972 l 667 526 l 1021 972 l 1168 972 l 792 497 l 1182 0 z "},"З":{"ha":783,"x_min":47,"x_max":735,"o":"m 576 503 q 693 410 651 471 q 735 265 735 349 q 641 61 735 140 q 393 -18 547 -18 q 167 44 253 -18 q 47 206 82 107 l 157 268 q 393 104 200 104 q 550 149 494 104 q 606 269 606 194 q 553 390 606 344 q 408 436 501 436 l 294 436 l 294 554 l 376 554 q 518 598 465 554 q 571 713 571 642 q 522 826 571 782 q 385 869 472 869 q 169 726 224 869 l 61 789 q 385 990 149 990 q 612 913 525 990 q 699 715 699 835 q 576 503 699 576 z "},"И":{"ha":942,"x_min":104,"x_max":838,"o":"m 708 0 l 708 725 l 208 0 l 104 0 l 104 972 l 233 972 l 233 246 l 733 972 l 838 972 l 838 0 l 708 0 z "},"Й":{"ha":942,"x_min":104,"x_max":838,"o":"m 283 1076 l 283 1182 l 658 1182 l 658 1076 l 283 1076 m 708 0 l 708 725 l 208 0 l 104 0 l 104 972 l 233 972 l 233 246 l 733 972 l 838 972 l 838 0 l 708 0 z "},"К":{"ha":822,"x_min":104,"x_max":811,"o":"m 811 0 l 653 0 l 233 467 l 233 0 l 104 0 l 104 972 l 233 972 l 233 533 l 639 972 l 797 972 l 368 500 l 811 0 z "},"Л":{"ha":957,"x_min":19,"x_max":853,"o":"m 19 0 l 19 117 q 163 170 115 103 q 211 421 211 238 l 211 972 l 853 972 l 853 0 l 724 0 l 724 850 l 340 850 l 340 421 q 316 202 340 290 q 247 69 292 114 q 147 9 201 25 q 19 0 92 -7 z "},"М":{"ha":1118,"x_min":104,"x_max":1014,"o":"m 1014 972 l 1014 0 l 886 0 l 886 760 l 568 231 l 551 231 l 233 758 l 233 0 l 104 0 l 104 972 l 250 972 l 560 458 l 868 972 l 1014 972 z "},"Н":{"ha":938,"x_min":104,"x_max":833,"o":"m 706 972 l 833 972 l 833 0 l 706 0 l 706 438 l 233 438 l 233 0 l 104 0 l 104 972 l 233 972 l 233 560 l 706 560 l 706 972 z "},"О":{"ha":1111,"x_min":53,"x_max":1060,"o":"m 913 129 q 840 56 913 129 q 556 -18 767 -18 q 199 129 344 -18 q 53 486 53 276 q 199 844 53 697 q 556 990 344 990 q 913 844 767 990 q 1060 486 1060 697 q 913 129 1060 276 m 288 217 q 342 163 288 217 q 556 108 396 108 q 823 217 715 108 q 931 486 931 326 q 823 756 931 647 q 556 865 715 865 q 288 756 396 865 q 181 486 181 647 q 288 217 181 326 z "},"П":{"ha":914,"x_min":104,"x_max":810,"o":"m 810 972 l 810 0 l 681 0 l 681 850 l 233 850 l 233 0 l 104 0 l 104 972 l 810 972 z "},"Р":{"ha":819,"x_min":104,"x_max":771,"o":"m 457 972 q 681 883 592 972 q 771 660 771 793 q 681 438 771 528 q 457 347 592 347 l 233 347 l 233 0 l 104 0 l 104 972 l 457 972 m 457 468 q 590 523 538 468 q 643 660 643 578 q 590 797 643 743 q 457 851 538 851 l 233 851 l 233 468 l 457 468 z "},"С":{"ha":1026,"x_min":53,"x_max":981,"o":"m 561 -18 q 197 128 340 -18 q 53 486 53 274 q 197 844 53 699 q 561 990 340 990 q 806 926 694 990 q 981 754 918 863 l 868 689 q 744 817 826 769 q 561 865 661 865 q 287 757 393 865 q 181 486 181 649 q 287 217 181 325 q 561 108 393 108 q 744 156 661 108 q 868 283 826 204 l 981 219 q 807 47 919 111 q 561 -18 694 -18 z "},"Т":{"ha":750,"x_min":25,"x_max":726,"o":"m 726 972 l 726 850 l 439 850 l 439 0 l 311 0 l 311 850 l 25 850 l 25 972 l 726 972 z "},"У":{"ha":806,"x_min":39,"x_max":792,"o":"m 661 972 l 792 972 l 479 231 q 344 49 426 106 q 144 0 263 -7 l 144 119 q 275 143 225 111 q 358 253 325 175 l 368 275 l 39 972 l 169 972 l 428 417 l 661 972 z "},"Ф":{"ha":1124,"x_min":39,"x_max":1086,"o":"m 960 756 q 1023 706 960 756 q 1086 486 1086 656 q 960 217 1086 317 q 625 103 835 117 l 625 -7 l 499 -7 l 499 103 q 165 217 290 117 q 39 486 39 317 q 165 756 39 656 q 499 869 290 856 l 499 979 l 625 979 l 625 869 q 960 756 835 856 m 625 221 q 869 298 782 232 q 957 486 957 364 q 869 674 957 608 q 625 751 782 740 l 625 221 m 167 486 q 254 299 167 365 q 499 222 342 233 l 499 751 q 254 674 342 740 q 167 486 167 608 z "},"Х":{"ha":819,"x_min":25,"x_max":796,"o":"m 796 0 l 649 0 l 410 383 l 171 0 l 25 0 l 338 500 l 43 972 l 189 972 l 410 618 l 631 972 l 776 972 l 483 501 l 796 0 z "},"Ц":{"ha":958,"x_min":104,"x_max":914,"o":"m 810 122 l 914 122 l 914 -186 l 785 -186 l 785 0 l 104 0 l 104 972 l 233 972 l 233 122 l 681 122 l 681 972 l 810 972 l 810 122 z "},"Ч":{"ha":872,"x_min":83,"x_max":768,"o":"m 639 972 l 768 972 l 768 0 l 639 0 l 639 392 q 400 338 525 338 q 171 417 258 338 q 83 625 83 497 l 83 972 l 213 972 l 213 633 q 263 507 213 554 q 401 460 313 460 q 639 514 526 460 l 639 972 z "},"Ш":{"ha":1317,"x_min":104,"x_max":1213,"o":"m 1083 972 l 1213 972 l 1213 0 l 104 0 l 104 972 l 233 972 l 233 122 l 594 122 l 594 972 l 722 972 l 722 122 l 1083 122 l 1083 972 z "},"Щ":{"ha":1361,"x_min":104,"x_max":1317,"o":"m 1213 122 l 1317 122 l 1317 -186 l 1188 -186 l 1188 0 l 104 0 l 104 972 l 233 972 l 233 122 l 594 122 l 594 972 l 722 972 l 722 122 l 1083 122 l 1083 972 l 1213 972 l 1213 122 z "},"Ъ":{"ha":969,"x_min":0,"x_max":921,"o":"m 254 0 l 254 850 l 0 850 l 0 972 l 382 972 l 382 625 l 606 625 q 831 535 740 625 q 921 313 921 444 q 831 90 921 179 q 606 0 740 0 l 254 0 m 382 121 l 606 121 q 739 175 686 121 q 792 313 792 229 q 739 450 792 396 q 606 504 686 504 l 382 504 l 382 121 z "},"Ы":{"ha":1103,"x_min":104,"x_max":999,"o":"m 104 0 l 104 972 l 233 972 l 233 625 l 457 625 q 681 535 592 625 q 771 313 771 444 q 681 90 771 179 q 457 0 592 0 l 104 0 m 869 0 l 869 972 l 999 972 l 999 0 l 869 0 m 233 121 l 457 121 q 590 175 538 121 q 643 313 643 229 q 590 450 643 396 q 457 504 538 504 l 233 504 l 233 121 z "},"Ь":{"ha":819,"x_min":104,"x_max":771,"o":"m 457 625 q 681 535 592 625 q 771 313 771 444 q 681 90 771 179 q 457 0 592 0 l 104 0 l 104 972 l 233 972 l 233 625 l 457 625 m 457 121 q 590 175 538 121 q 643 313 643 229 q 590 449 643 394 q 457 504 538 504 l 233 504 l 233 121 l 457 121 z "},"Э":{"ha":1021,"x_min":46,"x_max":968,"o":"m 465 990 q 826 845 685 990 q 968 486 968 700 q 826 128 968 274 q 465 -18 685 -18 q 218 47 331 -18 q 46 219 106 111 l 158 283 q 282 156 199 204 q 465 108 365 108 q 717 197 617 108 q 836 426 817 286 l 336 426 l 336 547 l 836 547 q 717 776 817 688 q 465 865 617 865 q 283 817 365 865 q 158 689 200 769 l 46 754 q 219 926 107 863 q 465 990 332 990 z "},"Ю":{"ha":1451,"x_min":104,"x_max":1400,"o":"m 896 990 q 1253 844 1107 990 q 1400 486 1400 697 q 1253 129 1400 276 q 896 -18 1107 -18 q 558 113 699 -18 q 400 439 418 244 l 233 439 l 233 0 l 104 0 l 104 972 l 233 972 l 233 561 l 404 561 q 568 868 431 746 q 896 990 706 990 m 628 217 q 682 163 628 217 q 896 108 736 108 q 1163 217 1056 108 q 1271 486 1271 326 q 1163 756 1271 647 q 896 865 1056 865 q 628 756 736 865 q 521 486 521 647 q 628 217 521 326 z "},"Я":{"ha":863,"x_min":40,"x_max":758,"o":"m 758 972 l 758 0 l 631 0 l 631 372 l 438 372 l 186 0 l 40 0 l 299 381 q 133 486 199 404 q 68 671 68 568 q 156 884 68 796 q 369 972 244 972 l 758 972 m 369 489 l 631 489 l 631 851 l 369 851 q 247 799 299 851 q 196 671 196 746 q 247 542 196 596 q 369 489 299 489 z "},"а":{"ha":879,"x_min":53,"x_max":788,"o":"m 667 694 l 788 694 l 788 0 l 667 0 l 667 119 q 404 -18 576 -18 q 156 88 258 -18 q 53 347 53 194 q 156 606 53 500 q 404 713 258 713 q 667 575 576 713 l 667 694 m 419 99 q 596 170 525 99 q 667 347 667 242 q 596 524 667 453 q 419 596 525 596 q 244 524 315 596 q 174 347 174 453 q 244 170 174 242 q 419 99 315 99 z "},"б":{"ha":788,"x_min":53,"x_max":751,"o":"m 407 -18 q 153 83 253 -18 q 53 344 53 185 q 105 618 53 522 q 318 792 157 714 q 398 828 347 806 q 472 862 449 850 q 525 894 496 874 q 569 938 554 914 q 590 994 583 963 l 688 939 q 676 898 683 917 q 656 862 669 879 q 633 832 643 844 q 601 805 624 819 q 567 783 578 790 q 527 763 557 776 q 487 744 497 749 q 440 724 476 739 q 396 706 404 710 q 258 624 301 665 q 194 518 214 582 q 306 600 239 574 q 439 626 372 626 q 660 538 569 626 q 751 308 751 449 q 654 74 751 167 q 407 -18 557 -18 m 244 160 q 277 129 244 160 q 407 99 310 99 q 567 158 504 99 q 631 308 631 218 q 570 460 631 401 q 411 519 510 519 q 251 463 322 519 q 179 315 179 407 q 244 160 179 221 z "},"в":{"ha":700,"x_min":92,"x_max":661,"o":"m 554 357 q 661 196 661 313 q 603 55 661 110 q 439 0 546 0 l 92 0 l 92 694 l 411 694 q 572 642 515 694 q 629 506 629 590 q 554 357 629 406 m 406 586 l 210 586 l 210 404 l 406 404 q 511 497 511 404 q 406 586 511 586 m 432 110 q 513 135 485 110 q 542 206 542 160 q 513 273 542 249 q 432 297 485 297 l 210 297 l 210 110 l 432 110 z "},"г":{"ha":561,"x_min":92,"x_max":547,"o":"m 547 694 l 547 578 l 213 578 l 213 0 l 92 0 l 92 694 l 547 694 z "},"д":{"ha":824,"x_min":25,"x_max":785,"o":"m 689 115 l 785 115 l 785 -186 l 665 -186 l 665 0 l 144 0 l 144 -186 l 25 -186 l 25 115 l 110 115 q 176 372 176 207 l 176 694 l 689 694 l 689 115 m 247 115 l 569 115 l 569 582 l 296 582 l 296 372 q 247 115 296 217 z "},"е":{"ha":810,"x_min":53,"x_max":763,"o":"m 176 292 q 262 147 194 199 q 428 96 329 96 q 628 197 565 96 l 731 139 q 425 -18 629 -18 q 156 85 260 -18 q 53 347 53 189 q 154 608 53 504 q 417 713 256 713 q 666 605 569 713 q 763 346 763 497 q 758 292 763 319 l 176 292 m 417 599 q 256 544 319 599 q 176 397 192 489 l 640 397 q 563 547 625 496 q 417 599 500 599 z "},"ж":{"ha":969,"x_min":25,"x_max":946,"o":"m 946 0 l 804 0 l 544 329 l 544 0 l 425 0 l 425 329 l 165 0 l 25 0 l 315 358 l 39 694 l 179 694 l 425 388 l 425 694 l 544 694 l 544 388 l 790 694 l 932 694 l 654 358 l 946 0 z "},"з":{"ha":621,"x_min":36,"x_max":582,"o":"m 467 356 q 582 190 582 308 q 513 42 582 103 q 315 -18 443 -18 q 36 149 107 -18 l 138 208 q 317 94 178 94 q 424 124 386 94 q 463 201 463 154 q 431 269 463 243 q 347 296 400 296 l 246 296 l 246 406 l 321 406 q 403 431 374 406 q 432 501 432 457 q 398 574 432 546 q 304 601 364 601 q 146 503 188 601 l 47 560 q 304 713 121 713 q 484 654 418 713 q 550 511 550 596 q 467 356 550 406 z "},"и":{"ha":785,"x_min":92,"x_max":693,"o":"m 596 694 l 693 694 l 693 0 l 574 0 l 574 488 l 189 0 l 92 0 l 92 694 l 211 694 l 211 207 l 596 694 z "},"й":{"ha":785,"x_min":92,"x_max":693,"o":"m 206 799 l 206 904 l 581 904 l 581 799 l 206 799 m 596 694 l 693 694 l 693 0 l 574 0 l 574 488 l 189 0 l 92 0 l 92 694 l 211 694 l 211 207 l 596 694 z "},"к":{"ha":700,"x_min":92,"x_max":679,"o":"m 679 0 l 529 0 l 213 329 l 213 0 l 92 0 l 92 694 l 213 694 l 213 388 l 513 694 l 668 694 l 336 358 l 679 0 z "},"л":{"ha":763,"x_min":14,"x_max":671,"o":"m 671 694 l 671 0 l 550 0 l 550 578 l 276 578 l 276 294 q 208 56 276 124 q 14 0 139 -11 l 14 114 q 120 145 85 104 q 156 297 156 186 l 156 694 l 671 694 z "},"м":{"ha":879,"x_min":92,"x_max":786,"o":"m 786 694 l 786 0 l 668 0 l 668 504 l 447 149 l 432 149 l 211 504 l 211 0 l 92 0 l 92 694 l 221 694 l 439 343 l 657 694 l 786 694 z "},"н":{"ha":785,"x_min":92,"x_max":693,"o":"m 572 694 l 693 694 l 693 0 l 572 0 l 572 290 l 213 290 l 213 0 l 92 0 l 92 694 l 213 694 l 213 406 l 572 406 l 572 694 z "},"о":{"ha":836,"x_min":53,"x_max":785,"o":"m 678 88 q 624 35 678 88 q 418 -18 571 -18 q 159 88 265 -18 q 53 347 53 193 q 159 607 53 501 q 418 713 265 713 q 678 607 571 713 q 785 347 785 501 q 678 88 785 193 m 418 100 q 593 171 522 100 q 664 347 664 242 q 593 524 664 453 q 418 594 522 594 q 244 524 315 594 q 174 347 174 453 q 244 171 174 242 q 418 100 315 100 z "},"п":{"ha":785,"x_min":92,"x_max":693,"o":"m 693 694 l 693 0 l 572 0 l 572 579 l 213 579 l 213 0 l 92 0 l 92 694 l 693 694 z "},"р":{"ha":879,"x_min":92,"x_max":826,"o":"m 475 713 q 724 606 621 713 q 826 347 826 500 q 724 88 826 194 q 475 -18 621 -18 q 213 119 303 -18 l 213 -278 l 92 -278 l 92 694 l 213 694 l 213 575 q 475 713 303 713 m 460 99 q 635 170 564 99 q 706 347 706 242 q 635 524 706 453 q 460 596 564 596 q 283 524 354 596 q 213 347 213 453 q 283 170 213 242 q 460 99 354 99 z "},"с":{"ha":760,"x_min":53,"x_max":731,"o":"m 418 -18 q 157 87 261 -18 q 53 347 53 192 q 157 608 53 503 q 418 713 261 713 q 603 663 521 713 q 725 531 685 614 l 624 472 q 542 561 597 528 q 418 594 488 594 q 244 524 314 594 q 174 347 174 453 q 244 172 174 243 q 418 101 314 101 q 543 134 488 101 q 628 222 599 167 l 731 163 q 603 31 686 81 q 418 -18 519 -18 z "},"т":{"ha":622,"x_min":14,"x_max":608,"o":"m 608 694 l 608 578 l 372 578 l 372 0 l 251 0 l 251 578 l 14 578 l 14 694 l 608 694 z "},"у":{"ha":715,"x_min":11,"x_max":706,"o":"m 576 694 l 706 694 l 422 -43 q 297 -223 378 -161 q 114 -278 217 -285 l 114 -165 q 301 -26 242 -175 l 313 -1 l 11 694 l 139 694 l 376 150 l 576 694 z "},"ф":{"ha":938,"x_min":53,"x_max":886,"o":"m 789 590 q 838 540 789 590 q 886 347 886 490 q 789 104 886 204 q 529 -14 692 4 l 529 -278 l 410 -278 l 410 -14 q 150 104 247 4 q 53 347 53 204 q 150 590 53 490 q 410 708 247 690 l 410 972 l 529 972 l 529 708 q 789 590 692 690 m 172 347 q 235 185 172 251 q 410 103 299 118 l 410 592 q 235 511 299 578 q 172 347 172 444 m 529 103 q 703 185 640 118 q 765 347 765 251 q 703 510 765 443 q 529 592 640 576 l 529 103 z "},"х":{"ha":715,"x_min":21,"x_max":694,"o":"m 694 0 l 553 0 l 358 263 l 163 0 l 21 0 l 288 357 l 36 694 l 179 694 l 358 453 l 538 694 l 679 694 l 429 358 l 694 0 z "},"ц":{"ha":826,"x_min":92,"x_max":789,"o":"m 675 115 l 789 115 l 789 -186 l 669 -186 l 669 0 l 92 0 l 92 694 l 213 694 l 213 115 l 554 115 l 554 694 l 675 694 l 675 115 z "},"ч":{"ha":742,"x_min":63,"x_max":650,"o":"m 529 694 l 650 694 l 650 0 l 529 0 l 529 250 q 342 214 446 214 q 135 277 208 214 q 63 464 63 340 l 63 694 l 183 694 l 183 471 q 226 360 183 393 q 350 326 268 326 q 529 363 449 326 l 529 694 z "},"ш":{"ha":1136,"x_min":92,"x_max":1043,"o":"m 922 694 l 1043 694 l 1043 0 l 92 0 l 92 694 l 213 694 l 213 115 l 507 115 l 507 694 l 628 694 l 628 115 l 922 115 l 922 694 z "},"щ":{"ha":1171,"x_min":92,"x_max":1132,"o":"m 1036 115 l 1132 115 l 1132 -186 l 1013 -186 l 1013 0 l 92 0 l 92 694 l 213 694 l 213 115 l 504 115 l 504 694 l 625 694 l 625 115 l 915 115 l 915 694 l 1036 694 l 1036 115 z "},"ъ":{"ha":765,"x_min":0,"x_max":728,"o":"m 486 444 q 658 382 589 444 q 728 222 728 319 q 658 63 728 125 q 486 0 589 0 l 193 0 l 193 578 l 0 578 l 0 694 l 314 694 l 314 444 l 486 444 m 486 113 q 573 142 538 113 q 608 222 608 172 q 573 303 608 272 q 486 333 538 333 l 314 333 l 314 113 l 486 113 z "},"ы":{"ha":931,"x_min":92,"x_max":838,"o":"m 385 444 q 558 383 489 444 q 626 222 626 321 q 558 62 626 124 q 385 0 489 0 l 92 0 l 92 694 l 213 694 l 213 444 l 385 444 m 717 694 l 838 694 l 838 0 l 717 0 l 717 694 m 385 113 q 472 142 436 113 q 507 222 507 172 q 472 303 507 272 q 385 333 436 333 l 213 333 l 213 113 l 385 113 z "},"ь":{"ha":665,"x_min":92,"x_max":626,"o":"m 385 444 q 558 383 489 444 q 626 222 626 321 q 558 62 626 124 q 385 0 489 0 l 92 0 l 92 694 l 213 694 l 213 444 l 385 444 m 385 113 q 472 142 436 113 q 507 222 507 172 q 472 303 507 272 q 385 333 436 333 l 213 333 l 213 113 l 385 113 z "},"э":{"ha":747,"x_min":25,"x_max":696,"o":"m 342 713 q 598 610 500 713 q 696 347 696 507 q 597 85 696 189 q 340 -18 499 -18 q 146 31 229 -18 q 25 165 63 81 l 128 225 q 205 133 150 168 q 340 99 260 99 q 492 151 431 99 q 569 290 553 204 l 260 290 l 260 404 l 569 404 q 493 543 553 490 q 343 596 433 596 q 215 562 269 596 q 133 471 160 528 l 29 531 q 154 664 71 615 q 342 713 238 713 z "},"ю":{"ha":1117,"x_min":92,"x_max":1064,"o":"m 699 713 q 958 607 851 713 q 1064 347 1064 501 q 958 88 1064 193 q 699 -18 851 -18 q 461 69 561 -18 q 342 290 361 157 l 213 290 l 213 0 l 92 0 l 92 694 l 213 694 l 213 406 l 342 406 q 462 626 361 539 q 699 713 563 713 m 699 100 q 872 171 801 100 q 943 347 943 242 q 872 524 943 453 q 699 594 801 594 q 524 524 594 594 q 453 347 453 453 q 524 171 453 242 q 699 100 594 100 z "},"я":{"ha":703,"x_min":49,"x_max":611,"o":"m 611 694 l 611 0 l 492 0 l 492 250 l 390 250 l 196 0 l 49 0 l 251 257 q 125 335 174 276 q 76 471 76 393 q 144 631 76 567 q 315 694 213 694 l 611 694 m 319 358 l 492 358 l 492 582 l 319 582 q 232 551 268 582 q 196 469 196 521 q 232 389 196 419 q 319 358 268 358 z "},"ё":{"ha":810,"x_min":53,"x_max":763,"o":"m 328 809 q 317 798 328 809 q 276 788 307 788 q 224 809 246 788 q 203 861 203 831 q 224 913 203 892 q 276 933 246 933 q 328 913 307 933 q 349 861 349 892 q 328 809 349 831 m 592 809 q 581 798 592 809 q 540 788 571 788 q 488 809 510 788 q 467 861 467 831 q 488 913 467 892 q 540 933 510 933 q 592 913 571 933 q 613 861 613 892 q 592 809 613 831 m 176 292 q 262 147 194 199 q 428 96 329 96 q 628 197 565 96 l 731 139 q 425 -18 629 -18 q 156 85 260 -18 q 53 347 53 189 q 154 608 53 504 q 417 713 256 713 q 666 605 569 713 q 763 346 763 497 q 758 292 763 319 l 176 292 m 417 599 q 256 544 319 599 q 176 397 192 489 l 640 397 q 563 547 625 496 q 417 599 500 599 z "},"ђ":{"ha":796,"x_min":11,"x_max":719,"o":"m 450 713 q 646 635 572 713 q 719 426 719 558 l 719 -42 q 651 -241 719 -176 q 451 -296 583 -306 l 451 -179 q 563 -154 528 -186 q 599 -42 599 -122 l 599 419 q 553 551 599 504 q 426 597 507 597 q 281 541 336 597 q 225 368 225 485 l 225 0 l 104 0 l 104 790 l 11 790 l 11 879 l 104 879 l 104 972 l 225 972 l 225 879 l 424 879 l 424 790 l 225 790 l 225 594 q 450 713 299 713 z "},"ѓ":{"ha":561,"x_min":92,"x_max":547,"o":"m 464 972 l 324 789 l 207 789 l 318 972 l 464 972 m 547 694 l 547 578 l 213 578 l 213 0 l 92 0 l 92 694 l 547 694 z "},"є":{"ha":747,"x_min":51,"x_max":722,"o":"m 619 225 l 722 165 q 601 31 685 81 q 407 -18 518 -18 q 150 85 249 -18 q 51 347 51 189 q 149 610 51 507 q 406 713 247 713 q 593 664 510 713 q 718 531 676 615 l 614 471 q 533 562 588 528 q 404 596 478 596 q 254 543 314 596 q 178 404 194 490 l 488 404 l 488 290 l 178 290 q 256 151 194 204 q 407 99 317 99 q 542 133 488 99 q 619 225 597 168 z "},"ѕ":{"ha":636,"x_min":49,"x_max":585,"o":"m 196 507 q 236 442 196 467 q 333 403 276 418 q 447 370 390 389 q 544 306 504 351 q 585 190 585 261 q 512 39 585 96 q 325 -18 439 -18 q 151 26 224 -18 q 49 144 79 71 l 153 204 q 215 125 169 154 q 325 96 261 96 q 424 119 385 96 q 463 190 463 142 q 422 255 463 231 q 325 294 382 279 q 211 328 268 308 q 114 392 154 347 q 74 506 74 436 q 144 654 74 596 q 319 713 214 713 q 470 674 404 713 q 569 568 536 636 l 468 511 q 319 600 431 600 q 232 576 268 600 q 196 507 196 551 z "},"і":{"ha":306,"x_min":71,"x_max":233,"o":"m 153 821 q 94 844 118 821 q 71 901 71 868 q 94 959 71 935 q 153 983 118 983 q 210 959 186 983 q 233 901 233 935 q 210 844 233 868 q 153 821 186 821 m 92 0 l 92 694 l 213 694 l 213 0 l 92 0 z "},"ї":{"ha":306,"x_min":-53,"x_max":357,"o":"m 72 808 q 62 797 72 808 q 21 786 51 786 q -31 808 -10 786 q -53 860 -53 829 q -31 911 -53 890 q 21 932 -10 932 q 72 911 51 932 q 93 860 93 890 q 72 808 93 829 m 336 808 q 326 797 336 808 q 285 786 315 786 q 233 808 254 786 q 211 860 211 829 q 233 911 211 890 q 285 932 254 932 q 336 911 315 932 q 357 860 357 890 q 336 808 357 829 m 92 0 l 92 694 l 213 694 l 213 0 l 92 0 z "},"ј":{"ha":335,"x_min":-25,"x_max":264,"o":"m 183 821 q 125 844 149 821 q 101 901 101 868 q 125 959 101 935 q 183 983 149 983 q 240 959 217 983 q 264 901 264 935 q 240 844 264 868 q 183 821 217 821 m 122 -42 l 122 694 l 243 694 l 243 -42 q 175 -241 243 -176 q -25 -296 107 -306 l -25 -179 q 87 -154 51 -186 q 122 -42 122 -122 z "},"љ":{"ha":1085,"x_min":14,"x_max":1046,"o":"m 821 421 q 983 364 919 421 q 1046 210 1046 307 q 983 56 1046 113 q 821 0 919 0 l 536 0 l 536 578 l 276 578 l 276 294 q 208 57 276 125 q 14 -3 139 -11 l 14 111 q 120 144 85 103 q 156 297 156 186 l 156 694 l 657 694 l 657 421 l 821 421 m 822 113 q 899 137 868 113 q 931 210 931 161 q 899 283 931 258 q 822 308 868 308 l 657 308 l 657 113 l 822 113 z "},"њ":{"ha":1096,"x_min":89,"x_max":1058,"o":"m 831 421 q 994 364 929 421 q 1058 210 1058 307 q 993 57 1058 114 q 831 0 928 0 l 544 0 l 544 306 l 210 306 l 210 0 l 89 0 l 89 694 l 210 694 l 210 421 l 544 421 l 544 694 l 665 694 l 665 421 l 831 421 m 831 113 q 908 137 878 113 q 939 210 939 161 q 908 283 939 258 q 831 308 878 308 l 665 308 l 665 113 l 831 113 z "},"ћ":{"ha":796,"x_min":11,"x_max":719,"o":"m 450 713 q 646 635 572 713 q 719 426 719 558 l 719 0 l 599 0 l 599 419 q 553 551 599 504 q 426 597 507 597 q 281 541 336 597 q 225 368 225 485 l 225 0 l 104 0 l 104 790 l 11 790 l 11 879 l 104 879 l 104 972 l 225 972 l 225 879 l 424 879 l 424 790 l 225 790 l 225 594 q 450 713 299 713 z "},"ќ":{"ha":700,"x_min":92,"x_max":679,"o":"m 526 972 l 386 789 l 269 789 l 381 972 l 526 972 m 679 0 l 529 0 l 213 329 l 213 0 l 92 0 l 92 694 l 213 694 l 213 388 l 513 694 l 668 694 l 336 358 l 679 0 z "},"ў":{"ha":715,"x_min":11,"x_max":706,"o":"m 543 904 l 543 799 l 168 799 l 168 904 l 543 904 m 576 694 l 706 694 l 422 -43 q 297 -223 378 -161 q 114 -278 217 -285 l 114 -165 q 301 -26 242 -175 l 313 -1 l 11 694 l 139 694 l 376 150 l 576 694 z "},"џ":{"ha":785,"x_min":92,"x_max":693,"o":"m 572 694 l 693 694 l 693 0 l 453 0 l 453 -186 l 333 -186 l 333 0 l 92 0 l 92 694 l 213 694 l 213 115 l 572 115 l 572 694 z "},"Ґ":{"ha":674,"x_min":104,"x_max":650,"o":"m 521 1139 l 650 1139 l 650 850 l 233 850 l 233 0 l 104 0 l 104 972 l 521 972 l 521 1139 z "},"ґ":{"ha":561,"x_min":92,"x_max":547,"o":"m 428 838 l 547 838 l 547 578 l 213 578 l 213 0 l 92 0 l 92 694 l 428 694 l 428 838 z "},"Ẁ":{"ha":1389,"x_min":35,"x_max":1354,"o":"m 801 1067 l 690 1250 l 544 1250 l 685 1067 l 801 1067 m 314 0 l 35 972 l 171 972 l 393 172 l 629 972 l 760 972 l 996 172 l 1218 972 l 1354 972 l 1075 0 l 925 0 l 694 776 l 464 0 l 314 0 z "},"ẁ":{"ha":1069,"x_min":33,"x_max":1036,"o":"m 628 789 l 511 789 l 371 972 l 517 972 l 628 789 m 910 694 l 1036 694 l 821 0 l 697 0 l 535 514 l 372 0 l 249 0 l 33 694 l 160 694 l 313 167 l 476 694 l 593 694 l 757 165 l 910 694 z "},"Ẃ":{"ha":1389,"x_min":35,"x_max":1354,"o":"m 625 1067 l 742 1067 l 882 1250 l 736 1250 l 625 1067 m 314 0 l 35 972 l 171 972 l 393 172 l 629 972 l 760 972 l 996 172 l 1218 972 l 1354 972 l 1075 0 l 925 0 l 694 776 l 464 0 l 314 0 z "},"ẃ":{"ha":1069,"x_min":33,"x_max":1036,"o":"m 708 972 l 568 789 l 451 789 l 563 972 l 708 972 m 910 694 l 1036 694 l 821 0 l 697 0 l 535 514 l 372 0 l 249 0 l 33 694 l 160 694 l 313 167 l 476 694 l 593 694 l 757 165 l 910 694 z "},"Ẅ":{"ha":1389,"x_min":35,"x_max":1354,"o":"m 628 1085 q 617 1075 628 1085 q 576 1064 607 1064 q 524 1085 546 1064 q 503 1138 503 1107 q 524 1189 503 1168 q 576 1210 546 1210 q 628 1189 607 1210 q 649 1138 649 1168 q 628 1085 649 1107 m 892 1085 q 881 1075 892 1085 q 840 1064 871 1064 q 788 1085 810 1064 q 767 1138 767 1107 q 788 1189 767 1168 q 840 1210 810 1210 q 892 1189 871 1210 q 913 1138 913 1168 q 892 1085 913 1107 m 314 0 l 35 972 l 171 972 l 393 172 l 629 972 l 760 972 l 996 172 l 1218 972 l 1354 972 l 1075 0 l 925 0 l 694 776 l 464 0 l 314 0 z "},"ẅ":{"ha":1069,"x_min":33,"x_max":1036,"o":"m 454 808 q 444 797 454 808 q 403 786 433 786 q 351 808 372 786 q 329 860 329 829 q 351 911 329 890 q 403 932 372 932 q 454 911 433 932 q 475 860 475 890 q 454 808 475 829 m 718 808 q 708 797 718 808 q 667 786 697 786 q 615 808 636 786 q 593 860 593 829 q 615 911 593 890 q 667 932 636 932 q 718 911 697 932 q 739 860 739 890 q 718 808 739 829 m 910 694 l 1036 694 l 821 0 l 697 0 l 535 514 l 372 0 l 249 0 l 33 694 l 160 694 l 313 167 l 476 694 l 593 694 l 757 165 l 910 694 z "},"Ỳ":{"ha":839,"x_min":11,"x_max":828,"o":"m 508 1067 l 392 1067 l 251 1250 l 397 1250 l 508 1067 m 828 972 l 483 393 l 483 0 l 354 0 l 354 394 l 11 972 l 156 972 l 419 517 l 683 972 l 828 972 z "},"ỳ":{"ha":715,"x_min":11,"x_max":706,"o":"m 449 789 l 332 789 l 192 972 l 338 972 l 449 789 m 576 694 l 706 694 l 422 -43 q 298 -223 378 -161 q 114 -278 218 -285 l 114 -165 q 301 -24 242 -175 l 314 3 l 11 694 l 140 694 l 376 150 l 576 694 z "},"–":{"ha":910,"x_min":104,"x_max":806,"o":"m 104 368 l 104 485 l 806 485 l 806 368 l 104 368 z "},"—":{"ha":1049,"x_min":104,"x_max":944,"o":"m 104 368 l 104 485 l 944 485 l 944 368 l 104 368 z "},"‘":{"ha":351,"x_min":79,"x_max":274,"o":"m 79 635 l 169 972 l 274 972 l 218 635 l 79 635 z "},"’":{"ha":351,"x_min":78,"x_max":272,"o":"m 272 974 l 182 636 l 78 636 l 133 974 l 272 974 z "},"‚":{"ha":351,"x_min":78,"x_max":272,"o":"m 272 143 l 182 -194 l 78 -194 l 133 143 l 272 143 z "},"“":{"ha":567,"x_min":79,"x_max":489,"o":"m 79 635 l 169 972 l 274 972 l 218 635 l 79 635 m 294 635 l 385 972 l 489 972 l 433 635 l 294 635 z "},"”":{"ha":567,"x_min":78,"x_max":488,"o":"m 272 974 l 182 636 l 78 636 l 133 974 l 272 974 m 488 974 l 397 636 l 293 636 l 349 974 l 488 974 z "},"„":{"ha":567,"x_min":78,"x_max":488,"o":"m 272 143 l 182 -194 l 78 -194 l 133 143 l 272 143 m 488 143 l 397 -194 l 293 -194 l 349 143 l 488 143 z "},"†":{"ha":667,"x_min":76,"x_max":590,"o":"m 590 757 l 590 640 l 394 640 l 394 0 l 274 0 l 274 640 l 76 640 l 76 757 l 274 757 l 274 972 l 394 972 l 394 757 l 590 757 z "},"‡":{"ha":667,"x_min":76,"x_max":590,"o":"m 590 640 l 394 640 l 394 332 l 590 332 l 590 215 l 394 215 l 394 0 l 274 0 l 274 215 l 76 215 l 76 332 l 274 332 l 274 640 l 76 640 l 76 757 l 274 757 l 274 972 l 394 972 l 394 757 l 590 757 l 590 640 z "},"•":{"ha":444,"x_min":67,"x_max":379,"o":"m 334 376 q 311 353 334 376 q 224 331 289 331 q 113 376 158 331 q 67 488 67 422 q 113 598 67 553 q 224 643 158 643 q 334 598 289 643 q 379 488 379 553 q 334 376 379 422 z "},"…":{"ha":900,"x_min":78,"x_max":821,"o":"m 168 -15 q 104 11 131 -15 q 78 75 78 38 q 104 139 78 113 q 168 165 131 165 q 233 139 207 165 q 258 75 258 113 q 233 11 258 38 q 168 -15 207 -15 m 450 -15 q 386 11 413 -15 q 360 75 360 38 q 386 139 360 113 q 450 165 413 165 q 515 139 489 165 q 540 75 540 113 q 515 11 540 38 q 450 -15 489 -15 m 731 -15 q 667 11 693 -15 q 640 75 640 38 q 667 139 640 113 q 731 165 693 165 q 795 139 769 165 q 821 75 821 113 q 795 11 821 38 q 731 -15 769 -15 z "},"‰":{"ha":1513,"x_min":76,"x_max":1436,"o":"m 296 560 q 139 622 201 560 q 76 775 76 685 q 140 927 76 864 q 296 990 203 990 q 453 928 390 990 q 515 775 515 865 q 453 622 515 685 q 296 560 392 560 m 216 694 q 232 677 216 694 q 296 661 247 661 q 376 694 344 661 q 407 775 407 728 q 376 855 407 822 q 296 888 344 888 q 216 855 247 888 q 185 775 185 822 q 216 694 185 726 m 142 138 l 788 860 l 856 822 l 208 99 l 142 138 m 872 46 q 841 15 872 46 q 715 -17 810 -17 q 558 46 621 -17 q 496 199 496 108 q 558 351 496 289 q 715 414 621 414 q 872 351 810 414 q 935 199 935 289 q 872 46 935 108 m 1374 46 q 1342 15 1374 46 q 1217 -17 1311 -17 q 1060 46 1122 -17 q 997 199 997 108 q 1060 351 997 289 q 1217 414 1122 414 q 1374 351 1311 414 q 1436 199 1436 289 q 1374 46 1436 108 m 635 119 q 651 102 635 119 q 715 86 667 86 q 795 119 764 86 q 826 199 826 151 q 795 278 826 246 q 715 311 764 311 q 635 278 667 311 q 604 199 604 246 q 635 119 604 151 m 1137 119 q 1152 102 1137 119 q 1217 86 1168 86 q 1297 119 1265 86 q 1328 199 1328 151 q 1297 278 1328 246 q 1217 311 1265 311 q 1137 278 1168 311 q 1106 199 1106 246 q 1137 119 1106 151 z "},"‹":{"ha":472,"x_min":94,"x_max":378,"o":"m 378 683 l 225 429 l 378 176 l 247 176 l 94 429 l 247 683 l 378 683 z "},"›":{"ha":472,"x_min":94,"x_max":378,"o":"m 225 683 l 378 429 l 225 176 l 94 176 l 247 429 l 94 683 l 225 683 z "},"⁄":{"ha":292,"x_min":-181,"x_max":472,"o":"m -83 0 l -181 0 l 375 972 l 472 972 l -83 0 z "},"€":{"ha":833,"x_min":26,"x_max":800,"o":"m 693 240 l 800 179 q 683 33 760 85 q 500 -18 606 -18 q 250 85 347 -18 q 128 365 153 188 l 26 365 l 26 456 l 119 456 l 119 486 q 121 529 119 515 l 26 529 l 26 618 l 129 618 q 253 890 157 790 q 500 990 350 990 q 799 797 713 990 l 692 736 q 500 865 633 865 q 344 801 406 865 q 260 618 282 738 l 589 618 l 589 529 l 250 529 q 249 486 249 515 l 249 456 l 589 456 l 589 365 l 258 365 q 340 175 278 242 q 500 108 403 108 q 693 240 638 108 z "},"₽":{"ha":825,"x_min":25,"x_max":799,"o":"m 494 372 l 271 372 l 271 260 l 615 260 l 615 165 l 271 165 l 271 0 l 143 0 l 143 165 l 25 165 l 25 260 l 143 260 l 143 372 l 25 372 l 25 489 l 143 489 l 143 972 l 494 972 q 710 884 621 972 q 799 671 799 796 q 710 459 799 546 q 494 372 622 372 m 271 851 l 271 489 l 494 489 q 619 542 567 489 q 671 671 671 596 q 619 799 671 746 q 494 851 568 851 l 271 851 z "},"№":{"ha":1422,"x_min":104,"x_max":1371,"o":"m 1151 558 q 995 621 1058 558 q 932 774 932 683 q 994 926 932 864 q 1151 989 1057 989 q 1308 926 1246 989 q 1371 774 1371 864 q 1309 621 1371 683 q 1151 558 1247 558 m 708 972 l 838 972 l 838 0 l 733 0 l 233 726 l 233 0 l 104 0 l 104 972 l 208 972 l 708 247 l 708 972 m 1072 694 q 1088 678 1072 694 q 1151 663 1103 663 q 1231 694 1200 663 q 1261 774 1261 726 q 1231 853 1261 821 q 1151 885 1200 885 q 1072 853 1103 885 q 1042 774 1042 821 q 1072 694 1042 726 m 949 354 l 949 469 l 1354 469 l 1354 354 l 949 354 z "},"™":{"ha":650,"x_min":53,"x_max":597,"o":"m 275 972 l 275 913 l 197 913 l 197 694 l 132 694 l 132 913 l 53 913 l 53 972 l 275 972 m 533 972 l 597 972 l 597 694 l 533 694 l 533 867 l 456 744 l 449 744 l 371 867 l 371 694 l 307 694 l 307 972 l 371 972 l 453 844 l 533 972 z "},"℮":{"ha":1125,"x_min":49,"x_max":1076,"o":"m 192 842 q 264 914 192 842 q 563 986 336 986 q 933 842 789 986 q 1076 486 1076 697 q 1056 465 1076 465 l 278 465 q 257 444 257 465 l 257 178 q 267 151 257 163 q 590 28 383 28 q 911 163 792 28 q 936 175 922 175 l 988 175 q 1006 167 1001 175 q 1000 149 1010 158 q 590 -14 849 -14 q 197 130 346 -14 q 49 486 49 274 q 192 842 49 697 m 868 794 q 858 821 868 810 q 563 944 742 944 q 267 821 383 944 q 257 794 257 810 l 257 528 q 278 507 257 507 l 847 507 q 868 528 868 507 l 868 794 z "},"⅛":{"ha":1117,"x_min":11,"x_max":1085,"o":"m 267 417 l 160 417 l 160 860 l 38 824 l 11 914 l 174 972 l 267 972 l 267 417 m 728 972 l 825 972 l 269 0 l 172 0 l 728 972 m 997 293 q 1085 149 1085 246 q 1029 27 1085 72 q 881 -18 974 -18 q 732 27 788 -18 q 676 149 676 72 q 764 293 676 246 q 694 413 694 335 q 748 530 694 486 q 881 574 801 574 q 1013 530 960 574 q 1067 413 1067 486 q 997 293 1067 335 m 881 478 q 817 459 839 478 q 794 408 794 440 q 817 355 794 375 q 881 335 839 335 q 944 355 921 335 q 967 408 967 375 q 944 459 967 440 q 881 478 921 478 m 807 103 q 820 92 807 103 q 881 81 833 81 q 954 103 928 81 q 981 163 981 125 q 953 222 981 200 q 881 244 926 244 q 807 223 833 244 q 781 163 781 201 q 807 103 781 125 z "},"⅜":{"ha":1251,"x_min":28,"x_max":1219,"o":"m 439 581 q 383 448 439 497 q 232 399 326 399 q 28 518 83 399 l 118 569 q 232 499 149 499 q 306 521 281 499 q 332 581 332 543 q 304 641 332 618 q 231 664 276 664 l 218 664 l 171 733 l 288 872 l 49 872 l 49 972 l 414 972 l 414 881 l 297 742 q 401 685 364 728 q 439 581 439 643 m 863 972 l 960 972 l 404 0 l 307 0 l 863 972 m 1132 293 q 1219 149 1219 246 q 1164 27 1219 72 q 1015 -18 1108 -18 q 867 27 922 -18 q 811 149 811 72 q 899 293 811 246 q 829 413 829 335 q 883 530 829 486 q 1015 574 936 574 q 1148 530 1094 574 q 1201 413 1201 486 q 1132 293 1201 335 m 1015 478 q 951 459 974 478 q 929 408 929 440 q 951 355 929 375 q 1015 335 974 335 q 1078 355 1056 335 q 1101 408 1101 375 q 1078 459 1101 440 q 1015 478 1056 478 m 942 103 q 955 92 942 103 q 1015 81 968 81 q 1089 103 1063 81 q 1115 163 1115 125 q 1088 222 1115 200 q 1015 244 1061 244 q 942 223 968 244 q 915 163 915 201 q 942 103 915 125 z "},"⅝":{"ha":1235,"x_min":24,"x_max":1203,"o":"m 426 579 q 372 447 426 496 q 226 399 318 399 q 24 519 79 399 l 114 569 q 225 497 146 497 q 298 519 272 497 q 324 581 324 542 q 298 644 324 619 q 225 668 272 668 l 53 668 l 74 972 l 403 972 l 403 874 l 164 874 l 157 764 l 229 764 q 372 715 318 764 q 426 579 426 665 m 846 972 l 943 972 l 388 0 l 290 0 l 846 972 m 1115 293 q 1203 149 1203 246 q 1147 27 1203 72 q 999 -18 1092 -18 q 850 27 906 -18 q 794 149 794 72 q 882 293 794 246 q 813 413 813 335 q 866 530 813 486 q 999 574 919 574 q 1131 530 1078 574 q 1185 413 1185 486 q 1115 293 1185 335 m 999 478 q 935 459 957 478 q 913 408 913 440 q 935 355 913 375 q 999 335 957 335 q 1062 355 1039 335 q 1085 408 1085 375 q 1062 459 1085 440 q 999 478 1039 478 m 925 103 q 938 92 925 103 q 999 81 951 81 q 1072 103 1046 81 q 1099 163 1099 125 q 1072 222 1099 200 q 999 244 1044 244 q 925 223 951 244 q 899 163 899 201 q 925 103 899 125 z "},"⅞":{"ha":1175,"x_min":11,"x_max":1143,"o":"m 385 972 l 385 888 l 189 417 l 76 417 l 268 872 l 11 872 l 11 972 l 385 972 m 786 972 l 883 972 l 328 0 l 231 0 l 786 972 m 1056 293 q 1143 149 1143 246 q 1088 27 1143 72 q 939 -18 1032 -18 q 790 27 846 -18 q 735 149 735 72 q 822 293 735 246 q 753 413 753 335 q 806 530 753 486 q 939 574 860 574 q 1072 530 1018 574 q 1125 413 1125 486 q 1056 293 1125 335 m 939 478 q 875 459 897 478 q 853 408 853 440 q 875 355 853 375 q 939 335 897 335 q 1002 355 979 335 q 1025 408 1025 375 q 1002 459 1025 440 q 939 478 979 478 m 865 103 q 878 92 865 103 q 939 81 892 81 q 1013 103 986 81 q 1039 163 1039 125 q 1012 222 1039 200 q 939 244 985 244 q 865 223 892 244 q 839 163 839 201 q 865 103 839 125 z "},"←":{"ha":1129,"x_min":76,"x_max":1053,"o":"m 1053 544 l 1053 428 l 297 428 l 656 69 l 493 69 l 76 486 l 493 903 l 656 903 l 297 544 l 1053 544 z "},"↑":{"ha":986,"x_min":76,"x_max":910,"o":"m 910 556 l 910 393 l 554 749 l 554 0 l 433 0 l 433 750 l 76 393 l 76 556 l 493 972 l 910 556 z "},"→":{"ha":1129,"x_min":76,"x_max":1053,"o":"m 636 903 l 1053 486 l 636 69 l 474 69 l 832 428 l 76 428 l 76 544 l 832 544 l 474 903 l 636 903 z "},"↓":{"ha":986,"x_min":76,"x_max":910,"o":"m 554 224 l 910 579 l 910 417 l 493 0 l 76 417 l 76 579 l 433 222 l 433 972 l 554 972 l 554 224 z "},"↔":{"ha":1465,"x_min":76,"x_max":1389,"o":"m 1032 844 l 1389 486 l 1032 129 l 871 129 l 1168 428 l 296 428 l 594 129 l 433 129 l 76 486 l 433 844 l 594 844 l 296 544 l 1169 544 l 871 844 l 1032 844 z "},"↕":{"ha":868,"x_min":76,"x_max":792,"o":"m 792 625 l 494 922 l 494 50 l 792 347 l 792 186 l 435 -171 l 76 186 l 76 347 l 374 51 l 374 921 l 76 625 l 76 786 l 435 1143 l 792 786 l 792 625 z "},"↖":{"ha":889,"x_min":76,"x_max":813,"o":"m 813 176 l 728 92 l 190 629 l 190 125 l 76 239 l 76 828 l 665 828 l 779 714 l 275 714 l 813 176 z "},"↗":{"ha":889,"x_min":76,"x_max":813,"o":"m 224 828 l 813 828 l 813 239 l 699 125 l 699 629 l 161 92 l 76 176 l 614 714 l 110 714 l 224 828 z "},"↘":{"ha":889,"x_min":76,"x_max":813,"o":"m 699 819 l 813 706 l 813 117 l 224 117 l 110 231 l 614 231 l 76 768 l 161 851 l 699 314 l 699 819 z "},"↙":{"ha":889,"x_min":76,"x_max":813,"o":"m 813 768 l 275 231 l 779 231 l 665 117 l 76 117 l 76 706 l 190 819 l 190 314 l 728 851 l 813 768 z "},"∂":{"ha":804,"x_min":67,"x_max":728,"o":"m 326 990 q 611 851 494 990 q 728 486 728 711 q 624 115 728 249 q 358 -18 519 -18 q 145 66 224 -18 q 67 278 67 150 q 151 510 67 421 q 383 599 235 599 q 606 532 501 599 q 519 776 594 681 q 318 874 444 872 q 144 826 224 874 l 144 940 q 326 990 222 990 m 361 99 q 528 184 464 99 q 604 418 593 269 q 392 488 515 488 q 243 433 299 488 q 188 279 188 379 q 232 149 188 200 q 361 99 276 99 z "},"∅":{"ha":1117,"x_min":56,"x_max":1061,"o":"m 911 844 q 1061 486 1061 697 q 914 131 1061 278 q 558 -17 767 -17 q 275 71 401 -17 l 194 -28 l 81 -28 l 207 126 q 56 486 56 275 q 203 842 56 694 q 558 989 350 989 q 842 901 715 989 l 922 1000 l 1038 1000 l 911 844 m 153 486 q 268 200 153 318 l 782 828 q 558 894 683 894 q 271 776 389 894 q 153 486 153 657 m 558 78 q 846 197 728 78 q 964 486 964 317 q 850 771 964 654 l 336 144 q 558 78 439 78 z "},"∏":{"ha":889,"x_min":104,"x_max":785,"o":"m 104 -278 l 104 972 l 785 972 l 785 -278 l 664 -278 l 664 856 l 225 856 l 225 -278 l 104 -278 z "},"∑":{"ha":761,"x_min":63,"x_max":715,"o":"m 63 -278 l 63 -167 l 383 361 l 83 860 l 83 972 l 694 972 l 694 856 l 224 856 l 522 361 l 204 -161 l 715 -161 l 715 -278 l 63 -278 z "},"−":{"ha":757,"x_min":81,"x_max":678,"o":"m 81 429 l 81 544 l 678 544 l 678 429 l 81 429 z "},"√":{"ha":910,"x_min":76,"x_max":889,"o":"m 389 0 l 206 311 l 76 311 l 76 428 l 275 428 l 439 143 l 763 1111 l 889 1111 l 511 0 l 389 0 z "},"∞":{"ha":1115,"x_min":75,"x_max":1040,"o":"m 807 715 q 974 651 907 715 q 1040 486 1040 586 q 974 322 1040 386 q 807 257 907 257 q 558 397 679 257 q 308 257 438 257 q 142 322 208 257 q 75 486 75 386 q 142 651 75 586 q 308 715 208 715 q 558 575 438 715 q 807 715 679 715 m 311 367 q 488 486 400 367 q 311 606 400 606 q 227 572 260 606 q 194 486 194 539 q 227 400 194 433 q 311 367 260 367 m 804 367 q 888 400 856 367 q 921 486 921 433 q 888 572 921 539 q 804 606 856 606 q 629 486 717 606 q 804 367 717 367 z "},"∫":{"ha":611,"x_min":0,"x_max":611,"o":"m 0 -282 l 0 -162 q 110 -165 65 -189 q 167 -74 156 -142 l 311 779 q 412 959 333 911 q 611 975 490 1007 l 611 857 q 490 858 536 882 q 432 768 443 835 l 288 -85 q 189 -265 265 -217 q 0 -282 113 -314 z "},"≈":{"ha":814,"x_min":76,"x_max":738,"o":"m 394 547 q 281 592 326 586 q 213 578 236 597 q 171 514 189 558 l 76 553 q 200 707 113 676 q 418 664 288 738 q 567 620 521 608 q 633 708 613 632 l 738 660 q 616 506 703 538 q 394 547 529 475 m 181 264 l 76 313 q 199 467 111 435 q 418 425 288 499 q 533 380 488 385 q 601 394 578 375 q 643 458 625 414 l 738 419 q 615 265 701 296 q 394 308 529 235 q 247 351 293 363 q 181 264 201 339 z "},"≠":{"ha":743,"x_min":76,"x_max":667,"o":"m 667 569 l 450 569 l 376 403 l 667 403 l 667 288 l 325 288 l 236 90 l 153 90 l 242 288 l 76 288 l 76 403 l 293 403 l 367 569 l 76 569 l 76 685 l 418 685 l 507 882 l 590 882 l 501 685 l 667 685 l 667 569 z "},"≤":{"ha":726,"x_min":76,"x_max":650,"o":"m 650 858 l 650 728 l 222 579 l 650 432 l 650 301 l 76 522 l 76 636 l 650 858 m 76 118 l 76 233 l 650 233 l 650 118 l 76 118 z "},"≥":{"ha":726,"x_min":76,"x_max":650,"o":"m 76 858 l 650 636 l 650 522 l 76 301 l 76 432 l 504 579 l 76 728 l 76 858 m 76 118 l 76 233 l 650 233 l 650 118 l 76 118 z "},"◊":{"ha":757,"x_min":67,"x_max":692,"o":"m 325 0 l 67 486 l 325 972 l 433 972 l 692 486 l 433 0 l 325 0 m 379 144 l 561 486 l 379 828 l 196 486 l 379 144 z "},"ﬁ":{"ha":736,"x_min":33,"x_max":643,"o":"m 643 694 l 643 0 l 522 0 l 522 578 l 265 578 l 265 0 l 144 0 l 144 578 l 33 578 l 33 694 l 144 694 l 144 715 q 449 990 144 990 q 592 972 506 990 l 592 863 q 449 874 507 874 q 310 838 354 874 q 265 715 265 803 l 265 694 l 643 694 z "},"ﬂ":{"ha":736,"x_min":33,"x_max":643,"o":"m 449 990 q 643 969 532 990 l 643 0 l 522 0 l 522 879 q 449 882 472 882 q 310 843 356 882 q 265 715 265 804 l 265 694 l 410 694 l 410 578 l 265 578 l 265 0 l 144 0 l 144 578 l 33 578 l 33 694 l 144 694 l 144 715 q 449 990 144 990 z "}}}
